G04 #@! TF.FileFunction,Copper,L1,Top,Signal*
%FSLAX46Y46*%
G04 Gerber Fmt 4.6, Leading zero omitted, Abs format (unit mm)*
G04 Created by KiCad (PCBNEW 4.0.1-3.201512221402+6198~38~ubuntu15.04.1-stable) date Mon 04 Jan 2016 10:21:23 PM EST*
%MOMM*%
G01*
G04 APERTURE LIST*
%ADD10C,0.100000*%
%ADD11R,1.143000X0.508000*%
%ADD12R,0.600000X0.500000*%
%ADD13R,0.800000X0.750000*%
%ADD14R,0.300000X0.300000*%
%ADD15R,0.900000X0.300000*%
%ADD16R,0.300000X0.900000*%
%ADD17R,1.800000X1.800000*%
%ADD18R,0.900000X0.500000*%
%ADD19R,0.850000X0.650000*%
%ADD20R,1.524000X1.524000*%
%ADD21C,1.524000*%
%ADD22C,0.600000*%
%ADD23C,0.250000*%
%ADD24C,0.254000*%
G04 APERTURE END LIST*
D10*
D11*
X189475000Y-92905000D03*
X189475000Y-91635000D03*
X189475000Y-90365000D03*
X189475000Y-89095000D03*
X195825000Y-89095000D03*
X195825000Y-90365000D03*
X195825000Y-91635000D03*
X195825000Y-92905000D03*
D12*
X169550000Y-96950000D03*
X170650000Y-96950000D03*
D13*
X169450000Y-94450000D03*
X170950000Y-94450000D03*
D12*
X181200000Y-100000000D03*
X180100000Y-100000000D03*
D13*
X181200000Y-95500000D03*
X179700000Y-95500000D03*
D14*
X175015001Y-91450000D03*
X175015001Y-88950000D03*
D15*
X174715001Y-89450000D03*
X174715001Y-89950000D03*
X174715001Y-90450000D03*
X174715001Y-90950000D03*
D16*
X175515001Y-91750000D03*
X176015001Y-91750000D03*
X176515001Y-91750000D03*
X177015001Y-91750000D03*
D14*
X177515001Y-91450000D03*
D15*
X177815001Y-90950000D03*
X177815001Y-90450000D03*
X177815001Y-89950000D03*
X177815001Y-89450000D03*
D14*
X177515001Y-88950000D03*
D16*
X177015001Y-88650000D03*
X176515001Y-88650000D03*
X176015001Y-88650000D03*
X175515001Y-88650000D03*
D17*
X176265001Y-90200000D03*
D18*
X162500000Y-82500000D03*
X162500000Y-84000000D03*
D19*
X169050000Y-82300000D03*
X169050000Y-83150000D03*
X167600000Y-83150000D03*
X167600000Y-82300000D03*
D20*
X168080000Y-111700000D03*
D21*
X170620000Y-111700000D03*
X173160000Y-111700000D03*
X175700000Y-111700000D03*
X178240000Y-111700000D03*
D22*
X189500000Y-93000000D03*
X172750000Y-92500000D03*
X189475000Y-90365000D03*
X179400000Y-91750000D03*
X162670000Y-100150000D03*
X180000000Y-100000000D03*
X188000000Y-106000000D03*
X173000000Y-111750000D03*
D23*
X189475000Y-92975000D02*
X189475000Y-92905000D01*
X189475000Y-92975000D02*
X189500000Y-93000000D01*
X172750000Y-92500000D02*
X173965001Y-92500000D01*
X169550000Y-96950000D02*
X169550000Y-94550000D01*
X169550000Y-94550000D02*
X171600000Y-92500000D01*
X171600000Y-92500000D02*
X172750000Y-92500000D01*
X173965001Y-92500000D02*
X175015001Y-91450000D01*
X177515001Y-91450000D02*
X178015001Y-91950000D01*
X179200000Y-91950000D02*
X178015001Y-91950000D01*
X179400000Y-91750000D02*
X179200000Y-91950000D01*
X189475000Y-89095000D02*
X182655000Y-89095000D01*
X181300000Y-90450000D02*
X177515001Y-90450000D01*
X182655000Y-89095000D02*
X181300000Y-90450000D01*
X175015001Y-89950000D02*
X173050000Y-89950000D01*
X177515001Y-90950000D02*
X183000000Y-90950000D01*
X162670000Y-100100000D02*
X162670000Y-100150000D01*
X180100000Y-100000000D02*
X180000000Y-100000000D01*
X162670000Y-100100000D02*
X162670000Y-84170000D01*
X162670000Y-84170000D02*
X162500000Y-84000000D01*
X179700000Y-95500000D02*
X177750000Y-95500000D01*
X175515001Y-93265001D02*
X175515001Y-91450000D01*
X177750000Y-95500000D02*
X175515001Y-93265001D01*
X180100000Y-100000000D02*
X180100000Y-98100000D01*
X179700000Y-97700000D02*
X179700000Y-95500000D01*
X180100000Y-98100000D02*
X179700000Y-97700000D01*
X176515001Y-91450000D02*
X176515001Y-92815001D01*
X187300000Y-100100000D02*
X175700000Y-111700000D01*
X187300000Y-97100000D02*
X187300000Y-100100000D01*
X183600000Y-93400000D02*
X187300000Y-97100000D01*
X177100000Y-93400000D02*
X183600000Y-93400000D01*
X176515001Y-92815001D02*
X177100000Y-93400000D01*
X178240000Y-111700000D02*
X178240000Y-110460000D01*
X183160000Y-105540000D02*
X188200000Y-100500000D01*
X177015001Y-92615001D02*
X177015001Y-91450000D01*
X177100000Y-92700000D02*
X177015001Y-92615001D01*
X184000000Y-92700000D02*
X177100000Y-92700000D01*
X188200000Y-96900000D02*
X184000000Y-92700000D01*
X188200000Y-100500000D02*
X188200000Y-96900000D01*
X178240000Y-110460000D02*
X183160000Y-105540000D01*
X180350000Y-89450000D02*
X184650000Y-85150000D01*
X184650000Y-85150000D02*
X197600000Y-85150000D01*
X197600000Y-85150000D02*
X199500000Y-86100000D01*
X199500000Y-86100000D02*
X199500000Y-99250000D01*
X199500000Y-99250000D02*
X187950000Y-106050000D01*
X180350000Y-89450000D02*
X177515001Y-89450000D01*
X187953262Y-106050000D02*
X187950000Y-106050000D01*
X188001578Y-106001684D02*
X187953262Y-106050000D01*
X188001578Y-106001578D02*
X188001578Y-106001684D01*
X188000000Y-106000000D02*
X188001578Y-106001578D01*
X169050000Y-82300000D02*
X174300000Y-82300000D01*
X177515001Y-85515001D02*
X177515001Y-88950000D01*
X174300000Y-82300000D02*
X177515001Y-85515001D01*
X169050000Y-83150000D02*
X174150000Y-83150000D01*
X177015001Y-86015001D02*
X177015001Y-88950000D01*
X174150000Y-83150000D02*
X177015001Y-86015001D01*
X167600000Y-83150000D02*
X167600000Y-84100000D01*
X176515001Y-86765001D02*
X176515001Y-88950000D01*
X176500000Y-86750000D02*
X176515001Y-86765001D01*
X170250000Y-86750000D02*
X176500000Y-86750000D01*
X167600000Y-84100000D02*
X170250000Y-86750000D01*
X162500000Y-82500000D02*
X165000000Y-82500000D01*
X165200000Y-82300000D02*
X167600000Y-82300000D01*
X165000000Y-82500000D02*
X165200000Y-82300000D01*
D24*
G36*
X201690000Y-113590000D02*
X156310000Y-113590000D01*
X156310000Y-111985750D01*
X166683000Y-111985750D01*
X166683000Y-112588310D01*
X166779673Y-112821699D01*
X166958302Y-113000327D01*
X167191691Y-113097000D01*
X167794250Y-113097000D01*
X167953000Y-112938250D01*
X167953000Y-111827000D01*
X166841750Y-111827000D01*
X166683000Y-111985750D01*
X156310000Y-111985750D01*
X156310000Y-110811690D01*
X166683000Y-110811690D01*
X166683000Y-111414250D01*
X166841750Y-111573000D01*
X167953000Y-111573000D01*
X167953000Y-110461750D01*
X167794250Y-110303000D01*
X167191691Y-110303000D01*
X166958302Y-110399673D01*
X166779673Y-110578301D01*
X166683000Y-110811690D01*
X156310000Y-110811690D01*
X156310000Y-82250000D01*
X161402560Y-82250000D01*
X161402560Y-82750000D01*
X161446838Y-82985317D01*
X161585910Y-83201441D01*
X161655711Y-83249134D01*
X161598559Y-83285910D01*
X161453569Y-83498110D01*
X161402560Y-83750000D01*
X161402560Y-84250000D01*
X161446838Y-84485317D01*
X161585910Y-84701441D01*
X161798110Y-84846431D01*
X161910000Y-84869089D01*
X161910000Y-99587537D01*
X161877808Y-99619673D01*
X161735162Y-99963201D01*
X161734838Y-100335167D01*
X161876883Y-100678943D01*
X162139673Y-100942192D01*
X162483201Y-101084838D01*
X162855167Y-101085162D01*
X163198943Y-100943117D01*
X163462192Y-100680327D01*
X163604838Y-100336799D01*
X163605162Y-99964833D01*
X163463117Y-99621057D01*
X163430000Y-99587882D01*
X163430000Y-84672292D01*
X163546431Y-84501890D01*
X163597440Y-84250000D01*
X163597440Y-83750000D01*
X163553162Y-83514683D01*
X163414090Y-83298559D01*
X163357657Y-83260000D01*
X165000000Y-83260000D01*
X165290839Y-83202148D01*
X165503579Y-83060000D01*
X166527560Y-83060000D01*
X166527560Y-83475000D01*
X166571838Y-83710317D01*
X166710910Y-83926441D01*
X166840000Y-84014644D01*
X166840000Y-84100000D01*
X166897852Y-84390839D01*
X167062599Y-84637401D01*
X169712599Y-87287401D01*
X169959161Y-87452148D01*
X170250000Y-87510000D01*
X175755001Y-87510000D01*
X175755001Y-87570785D01*
X175665001Y-87552560D01*
X175365001Y-87552560D01*
X175129684Y-87596838D01*
X174913560Y-87735910D01*
X174768570Y-87948110D01*
X174721708Y-88179523D01*
X174629684Y-88196838D01*
X174413560Y-88335910D01*
X174268570Y-88548110D01*
X174246722Y-88655999D01*
X174029684Y-88696838D01*
X173813560Y-88835910D01*
X173668570Y-89048110D01*
X173617561Y-89300000D01*
X173617561Y-89600000D01*
X173630982Y-89671324D01*
X173630001Y-89673691D01*
X173630001Y-89716250D01*
X173641622Y-89727871D01*
X173661839Y-89835317D01*
X173735621Y-89949978D01*
X173668570Y-90048110D01*
X173643921Y-90169830D01*
X173630001Y-90183750D01*
X173630001Y-90226309D01*
X173631669Y-90230335D01*
X173617561Y-90300000D01*
X173617561Y-90600000D01*
X173637068Y-90703671D01*
X173617561Y-90800000D01*
X173617561Y-91100000D01*
X173661839Y-91335317D01*
X173800911Y-91551441D01*
X173823395Y-91566804D01*
X173650199Y-91740000D01*
X173312463Y-91740000D01*
X173280327Y-91707808D01*
X172936799Y-91565162D01*
X172564833Y-91564838D01*
X172221057Y-91706883D01*
X172187882Y-91740000D01*
X171600000Y-91740000D01*
X171309161Y-91797852D01*
X171062599Y-91962599D01*
X169597638Y-93427560D01*
X169050000Y-93427560D01*
X168814683Y-93471838D01*
X168598559Y-93610910D01*
X168453569Y-93823110D01*
X168402560Y-94075000D01*
X168402560Y-94825000D01*
X168446838Y-95060317D01*
X168585910Y-95276441D01*
X168790000Y-95415890D01*
X168790000Y-96248437D01*
X168653569Y-96448110D01*
X168602560Y-96700000D01*
X168602560Y-97200000D01*
X168646838Y-97435317D01*
X168785910Y-97651441D01*
X168998110Y-97796431D01*
X169250000Y-97847440D01*
X169850000Y-97847440D01*
X170085317Y-97803162D01*
X170109406Y-97787661D01*
X170223691Y-97835000D01*
X170364250Y-97835000D01*
X170523000Y-97676250D01*
X170523000Y-97075000D01*
X170777000Y-97075000D01*
X170777000Y-97676250D01*
X170935750Y-97835000D01*
X171076309Y-97835000D01*
X171309698Y-97738327D01*
X171488327Y-97559699D01*
X171585000Y-97326310D01*
X171585000Y-97233750D01*
X171426250Y-97075000D01*
X170777000Y-97075000D01*
X170523000Y-97075000D01*
X170503000Y-97075000D01*
X170503000Y-96825000D01*
X170523000Y-96825000D01*
X170523000Y-96223750D01*
X170777000Y-96223750D01*
X170777000Y-96825000D01*
X171426250Y-96825000D01*
X171585000Y-96666250D01*
X171585000Y-96573690D01*
X171488327Y-96340301D01*
X171309698Y-96161673D01*
X171076309Y-96065000D01*
X170935750Y-96065000D01*
X170777000Y-96223750D01*
X170523000Y-96223750D01*
X170364250Y-96065000D01*
X170310000Y-96065000D01*
X170310000Y-95412908D01*
X170423691Y-95460000D01*
X170664250Y-95460000D01*
X170823000Y-95301250D01*
X170823000Y-94577000D01*
X171077000Y-94577000D01*
X171077000Y-95301250D01*
X171235750Y-95460000D01*
X171476309Y-95460000D01*
X171709698Y-95363327D01*
X171888327Y-95184699D01*
X171985000Y-94951310D01*
X171985000Y-94735750D01*
X171826250Y-94577000D01*
X171077000Y-94577000D01*
X170823000Y-94577000D01*
X170803000Y-94577000D01*
X170803000Y-94371802D01*
X170871802Y-94303000D01*
X171077000Y-94303000D01*
X171077000Y-94323000D01*
X171826250Y-94323000D01*
X171985000Y-94164250D01*
X171985000Y-93948690D01*
X171888327Y-93715301D01*
X171709698Y-93536673D01*
X171659091Y-93515711D01*
X171914802Y-93260000D01*
X172187537Y-93260000D01*
X172219673Y-93292192D01*
X172563201Y-93434838D01*
X172935167Y-93435162D01*
X173278943Y-93293117D01*
X173312118Y-93260000D01*
X173965001Y-93260000D01*
X174255840Y-93202148D01*
X174502402Y-93037401D01*
X174755001Y-92784802D01*
X174755001Y-93265001D01*
X174812853Y-93555840D01*
X174977600Y-93802402D01*
X177212599Y-96037401D01*
X177459161Y-96202148D01*
X177750000Y-96260000D01*
X178793156Y-96260000D01*
X178835910Y-96326441D01*
X178940000Y-96397563D01*
X178940000Y-97700000D01*
X178997852Y-97990839D01*
X179162599Y-98237401D01*
X179340000Y-98414802D01*
X179340000Y-99298437D01*
X179255591Y-99421973D01*
X179207808Y-99469673D01*
X179065162Y-99813201D01*
X179064838Y-100185167D01*
X179206883Y-100528943D01*
X179257609Y-100579757D01*
X179335910Y-100701441D01*
X179548110Y-100846431D01*
X179649970Y-100867058D01*
X179813201Y-100934838D01*
X180185167Y-100935162D01*
X180276461Y-100897440D01*
X180400000Y-100897440D01*
X180635317Y-100853162D01*
X180659406Y-100837661D01*
X180773691Y-100885000D01*
X180914250Y-100885000D01*
X181073000Y-100726250D01*
X181073000Y-100125000D01*
X181327000Y-100125000D01*
X181327000Y-100726250D01*
X181485750Y-100885000D01*
X181626309Y-100885000D01*
X181859698Y-100788327D01*
X182038327Y-100609699D01*
X182135000Y-100376310D01*
X182135000Y-100283750D01*
X181976250Y-100125000D01*
X181327000Y-100125000D01*
X181073000Y-100125000D01*
X181053000Y-100125000D01*
X181053000Y-99875000D01*
X181073000Y-99875000D01*
X181073000Y-99273750D01*
X181327000Y-99273750D01*
X181327000Y-99875000D01*
X181976250Y-99875000D01*
X182135000Y-99716250D01*
X182135000Y-99623690D01*
X182038327Y-99390301D01*
X181859698Y-99211673D01*
X181626309Y-99115000D01*
X181485750Y-99115000D01*
X181327000Y-99273750D01*
X181073000Y-99273750D01*
X180914250Y-99115000D01*
X180860000Y-99115000D01*
X180860000Y-98100000D01*
X180802148Y-97809161D01*
X180802148Y-97809160D01*
X180637401Y-97562599D01*
X180460000Y-97385198D01*
X180460000Y-96421486D01*
X180673691Y-96510000D01*
X180914250Y-96510000D01*
X181073000Y-96351250D01*
X181073000Y-95627000D01*
X181327000Y-95627000D01*
X181327000Y-96351250D01*
X181485750Y-96510000D01*
X181726309Y-96510000D01*
X181959698Y-96413327D01*
X182138327Y-96234699D01*
X182235000Y-96001310D01*
X182235000Y-95785750D01*
X182076250Y-95627000D01*
X181327000Y-95627000D01*
X181073000Y-95627000D01*
X181053000Y-95627000D01*
X181053000Y-95373000D01*
X181073000Y-95373000D01*
X181073000Y-94648750D01*
X181327000Y-94648750D01*
X181327000Y-95373000D01*
X182076250Y-95373000D01*
X182235000Y-95214250D01*
X182235000Y-94998690D01*
X182138327Y-94765301D01*
X181959698Y-94586673D01*
X181726309Y-94490000D01*
X181485750Y-94490000D01*
X181327000Y-94648750D01*
X181073000Y-94648750D01*
X180914250Y-94490000D01*
X180673691Y-94490000D01*
X180440302Y-94586673D01*
X180438932Y-94588043D01*
X180351890Y-94528569D01*
X180100000Y-94477560D01*
X179300000Y-94477560D01*
X179064683Y-94521838D01*
X178848559Y-94660910D01*
X178794519Y-94740000D01*
X178064802Y-94740000D01*
X177484802Y-94160000D01*
X183285198Y-94160000D01*
X186540000Y-97414802D01*
X186540000Y-99785198D01*
X176009381Y-110315817D01*
X175979100Y-110303243D01*
X175423339Y-110302758D01*
X174909697Y-110514990D01*
X174516371Y-110907630D01*
X174430051Y-111115512D01*
X174345010Y-110909697D01*
X173952370Y-110516371D01*
X173439100Y-110303243D01*
X172883339Y-110302758D01*
X172369697Y-110514990D01*
X171976371Y-110907630D01*
X171890051Y-111115512D01*
X171805010Y-110909697D01*
X171412370Y-110516371D01*
X170899100Y-110303243D01*
X170343339Y-110302758D01*
X169829697Y-110514990D01*
X169477000Y-110867072D01*
X169477000Y-110811690D01*
X169380327Y-110578301D01*
X169201698Y-110399673D01*
X168968309Y-110303000D01*
X168365750Y-110303000D01*
X168207000Y-110461750D01*
X168207000Y-111573000D01*
X168227000Y-111573000D01*
X168227000Y-111827000D01*
X168207000Y-111827000D01*
X168207000Y-112938250D01*
X168365750Y-113097000D01*
X168968309Y-113097000D01*
X169201698Y-113000327D01*
X169380327Y-112821699D01*
X169477000Y-112588310D01*
X169477000Y-112532386D01*
X169827630Y-112883629D01*
X170340900Y-113096757D01*
X170896661Y-113097242D01*
X171410303Y-112885010D01*
X171803629Y-112492370D01*
X171889949Y-112284488D01*
X171974990Y-112490303D01*
X172367630Y-112883629D01*
X172880900Y-113096757D01*
X173436661Y-113097242D01*
X173950303Y-112885010D01*
X174343629Y-112492370D01*
X174429949Y-112284488D01*
X174514990Y-112490303D01*
X174907630Y-112883629D01*
X175420900Y-113096757D01*
X175976661Y-113097242D01*
X176490303Y-112885010D01*
X176883629Y-112492370D01*
X176969949Y-112284488D01*
X177054990Y-112490303D01*
X177447630Y-112883629D01*
X177960900Y-113096757D01*
X178516661Y-113097242D01*
X179030303Y-112885010D01*
X179423629Y-112492370D01*
X179636757Y-111979100D01*
X179637242Y-111423339D01*
X179425010Y-110909697D01*
X179145302Y-110629500D01*
X188737401Y-101037401D01*
X188902148Y-100790840D01*
X188960000Y-100500000D01*
X188960000Y-96900000D01*
X188902148Y-96609161D01*
X188737401Y-96362599D01*
X184537401Y-92162599D01*
X184290839Y-91997852D01*
X184000000Y-91940000D01*
X180333509Y-91940000D01*
X180334838Y-91936799D01*
X180335162Y-91564833D01*
X180193117Y-91221057D01*
X180182079Y-91210000D01*
X181300000Y-91210000D01*
X181590839Y-91152148D01*
X181837401Y-90987401D01*
X182969802Y-89855000D01*
X188309877Y-89855000D01*
X188307069Y-89859110D01*
X188256060Y-90111000D01*
X188256060Y-90619000D01*
X188300338Y-90854317D01*
X188394666Y-91000907D01*
X188307069Y-91129110D01*
X188256060Y-91381000D01*
X188256060Y-91889000D01*
X188300338Y-92124317D01*
X188394666Y-92270907D01*
X188307069Y-92399110D01*
X188256060Y-92651000D01*
X188256060Y-93159000D01*
X188300338Y-93394317D01*
X188439410Y-93610441D01*
X188651610Y-93755431D01*
X188903500Y-93806440D01*
X189003986Y-93806440D01*
X189313201Y-93934838D01*
X189685167Y-93935162D01*
X189996699Y-93806440D01*
X190046500Y-93806440D01*
X190281817Y-93762162D01*
X190497941Y-93623090D01*
X190642931Y-93410890D01*
X190693940Y-93159000D01*
X190693940Y-92651000D01*
X190649662Y-92415683D01*
X190555334Y-92269093D01*
X190642931Y-92140890D01*
X190693940Y-91889000D01*
X190693940Y-91381000D01*
X190649662Y-91145683D01*
X190555334Y-90999093D01*
X190642931Y-90870890D01*
X190693940Y-90619000D01*
X190693940Y-90111000D01*
X194606060Y-90111000D01*
X194606060Y-90619000D01*
X194650338Y-90854317D01*
X194744666Y-91000907D01*
X194657069Y-91129110D01*
X194606060Y-91381000D01*
X194606060Y-91889000D01*
X194650338Y-92124317D01*
X194744666Y-92270907D01*
X194657069Y-92399110D01*
X194606060Y-92651000D01*
X194606060Y-93159000D01*
X194650338Y-93394317D01*
X194789410Y-93610441D01*
X195001610Y-93755431D01*
X195253500Y-93806440D01*
X196396500Y-93806440D01*
X196631817Y-93762162D01*
X196847941Y-93623090D01*
X196992931Y-93410890D01*
X197043940Y-93159000D01*
X197043940Y-92651000D01*
X196999662Y-92415683D01*
X196905334Y-92269093D01*
X196992931Y-92140890D01*
X197043940Y-91889000D01*
X197043940Y-91381000D01*
X196999662Y-91145683D01*
X196905334Y-90999093D01*
X196992931Y-90870890D01*
X197043940Y-90619000D01*
X197043940Y-90111000D01*
X196999662Y-89875683D01*
X196908896Y-89734629D01*
X196934827Y-89708698D01*
X197031500Y-89475309D01*
X197031500Y-89380750D01*
X196872750Y-89222000D01*
X195952000Y-89222000D01*
X195952000Y-89242000D01*
X195698000Y-89242000D01*
X195698000Y-89222000D01*
X194777250Y-89222000D01*
X194618500Y-89380750D01*
X194618500Y-89475309D01*
X194715173Y-89708698D01*
X194741709Y-89735235D01*
X194657069Y-89859110D01*
X194606060Y-90111000D01*
X190693940Y-90111000D01*
X190649662Y-89875683D01*
X190555334Y-89729093D01*
X190642931Y-89600890D01*
X190693940Y-89349000D01*
X190693940Y-88841000D01*
X190670174Y-88714691D01*
X194618500Y-88714691D01*
X194618500Y-88809250D01*
X194777250Y-88968000D01*
X195698000Y-88968000D01*
X195698000Y-88364750D01*
X195952000Y-88364750D01*
X195952000Y-88968000D01*
X196872750Y-88968000D01*
X197031500Y-88809250D01*
X197031500Y-88714691D01*
X196934827Y-88481302D01*
X196756199Y-88302673D01*
X196522810Y-88206000D01*
X196110750Y-88206000D01*
X195952000Y-88364750D01*
X195698000Y-88364750D01*
X195539250Y-88206000D01*
X195127190Y-88206000D01*
X194893801Y-88302673D01*
X194715173Y-88481302D01*
X194618500Y-88714691D01*
X190670174Y-88714691D01*
X190649662Y-88605683D01*
X190510590Y-88389559D01*
X190298390Y-88244569D01*
X190046500Y-88193560D01*
X188903500Y-88193560D01*
X188668183Y-88237838D01*
X188517189Y-88335000D01*
X182655000Y-88335000D01*
X182511198Y-88363604D01*
X184964802Y-85910000D01*
X197420588Y-85910000D01*
X198740000Y-86569706D01*
X198740000Y-98815512D01*
X188124877Y-105065108D01*
X187814833Y-105064838D01*
X187471057Y-105206883D01*
X187207808Y-105469673D01*
X187065162Y-105813201D01*
X187064838Y-106185167D01*
X187206883Y-106528943D01*
X187469673Y-106792192D01*
X187813201Y-106934838D01*
X188185167Y-106935162D01*
X188528943Y-106793117D01*
X188792192Y-106530327D01*
X188843980Y-106405608D01*
X199885583Y-99904924D01*
X199957390Y-99840863D01*
X200037401Y-99787401D01*
X200067045Y-99743035D01*
X200106860Y-99707515D01*
X200148686Y-99620850D01*
X200202148Y-99540839D01*
X200212557Y-99488509D01*
X200235750Y-99440453D01*
X200241227Y-99344378D01*
X200260000Y-99250000D01*
X200260000Y-86100000D01*
X200236235Y-85980526D01*
X200220999Y-85859667D01*
X200207475Y-85835943D01*
X200202148Y-85809161D01*
X200134473Y-85707878D01*
X200074145Y-85602047D01*
X200052572Y-85585304D01*
X200037401Y-85562599D01*
X199936118Y-85494924D01*
X199839883Y-85420236D01*
X197939882Y-84470235D01*
X197913543Y-84463022D01*
X197890839Y-84447852D01*
X197771363Y-84424087D01*
X197653876Y-84391913D01*
X197626786Y-84395328D01*
X197600000Y-84390000D01*
X184650000Y-84390000D01*
X184359160Y-84447852D01*
X184112599Y-84612599D01*
X180035198Y-88690000D01*
X178449885Y-88690000D01*
X178285478Y-88656707D01*
X178275001Y-88601024D01*
X178275001Y-85515001D01*
X178217149Y-85224162D01*
X178052402Y-84977600D01*
X174837401Y-81762599D01*
X174590839Y-81597852D01*
X174300000Y-81540000D01*
X169949669Y-81540000D01*
X169939090Y-81523559D01*
X169726890Y-81378569D01*
X169475000Y-81327560D01*
X168625000Y-81327560D01*
X168389683Y-81371838D01*
X168326522Y-81412481D01*
X168276890Y-81378569D01*
X168025000Y-81327560D01*
X167175000Y-81327560D01*
X166939683Y-81371838D01*
X166723559Y-81510910D01*
X166703683Y-81540000D01*
X165200000Y-81540000D01*
X164909161Y-81597852D01*
X164696421Y-81740000D01*
X163328386Y-81740000D01*
X163201890Y-81653569D01*
X162950000Y-81602560D01*
X162050000Y-81602560D01*
X161814683Y-81646838D01*
X161598559Y-81785910D01*
X161453569Y-81998110D01*
X161402560Y-82250000D01*
X156310000Y-82250000D01*
X156310000Y-77210000D01*
X201690000Y-77210000D01*
X201690000Y-113590000D01*
X201690000Y-113590000D01*
G37*
X201690000Y-113590000D02*
X156310000Y-113590000D01*
X156310000Y-111985750D01*
X166683000Y-111985750D01*
X166683000Y-112588310D01*
X166779673Y-112821699D01*
X166958302Y-113000327D01*
X167191691Y-113097000D01*
X167794250Y-113097000D01*
X167953000Y-112938250D01*
X167953000Y-111827000D01*
X166841750Y-111827000D01*
X166683000Y-111985750D01*
X156310000Y-111985750D01*
X156310000Y-110811690D01*
X166683000Y-110811690D01*
X166683000Y-111414250D01*
X166841750Y-111573000D01*
X167953000Y-111573000D01*
X167953000Y-110461750D01*
X167794250Y-110303000D01*
X167191691Y-110303000D01*
X166958302Y-110399673D01*
X166779673Y-110578301D01*
X166683000Y-110811690D01*
X156310000Y-110811690D01*
X156310000Y-82250000D01*
X161402560Y-82250000D01*
X161402560Y-82750000D01*
X161446838Y-82985317D01*
X161585910Y-83201441D01*
X161655711Y-83249134D01*
X161598559Y-83285910D01*
X161453569Y-83498110D01*
X161402560Y-83750000D01*
X161402560Y-84250000D01*
X161446838Y-84485317D01*
X161585910Y-84701441D01*
X161798110Y-84846431D01*
X161910000Y-84869089D01*
X161910000Y-99587537D01*
X161877808Y-99619673D01*
X161735162Y-99963201D01*
X161734838Y-100335167D01*
X161876883Y-100678943D01*
X162139673Y-100942192D01*
X162483201Y-101084838D01*
X162855167Y-101085162D01*
X163198943Y-100943117D01*
X163462192Y-100680327D01*
X163604838Y-100336799D01*
X163605162Y-99964833D01*
X163463117Y-99621057D01*
X163430000Y-99587882D01*
X163430000Y-84672292D01*
X163546431Y-84501890D01*
X163597440Y-84250000D01*
X163597440Y-83750000D01*
X163553162Y-83514683D01*
X163414090Y-83298559D01*
X163357657Y-83260000D01*
X165000000Y-83260000D01*
X165290839Y-83202148D01*
X165503579Y-83060000D01*
X166527560Y-83060000D01*
X166527560Y-83475000D01*
X166571838Y-83710317D01*
X166710910Y-83926441D01*
X166840000Y-84014644D01*
X166840000Y-84100000D01*
X166897852Y-84390839D01*
X167062599Y-84637401D01*
X169712599Y-87287401D01*
X169959161Y-87452148D01*
X170250000Y-87510000D01*
X175755001Y-87510000D01*
X175755001Y-87570785D01*
X175665001Y-87552560D01*
X175365001Y-87552560D01*
X175129684Y-87596838D01*
X174913560Y-87735910D01*
X174768570Y-87948110D01*
X174721708Y-88179523D01*
X174629684Y-88196838D01*
X174413560Y-88335910D01*
X174268570Y-88548110D01*
X174246722Y-88655999D01*
X174029684Y-88696838D01*
X173813560Y-88835910D01*
X173668570Y-89048110D01*
X173617561Y-89300000D01*
X173617561Y-89600000D01*
X173630982Y-89671324D01*
X173630001Y-89673691D01*
X173630001Y-89716250D01*
X173641622Y-89727871D01*
X173661839Y-89835317D01*
X173735621Y-89949978D01*
X173668570Y-90048110D01*
X173643921Y-90169830D01*
X173630001Y-90183750D01*
X173630001Y-90226309D01*
X173631669Y-90230335D01*
X173617561Y-90300000D01*
X173617561Y-90600000D01*
X173637068Y-90703671D01*
X173617561Y-90800000D01*
X173617561Y-91100000D01*
X173661839Y-91335317D01*
X173800911Y-91551441D01*
X173823395Y-91566804D01*
X173650199Y-91740000D01*
X173312463Y-91740000D01*
X173280327Y-91707808D01*
X172936799Y-91565162D01*
X172564833Y-91564838D01*
X172221057Y-91706883D01*
X172187882Y-91740000D01*
X171600000Y-91740000D01*
X171309161Y-91797852D01*
X171062599Y-91962599D01*
X169597638Y-93427560D01*
X169050000Y-93427560D01*
X168814683Y-93471838D01*
X168598559Y-93610910D01*
X168453569Y-93823110D01*
X168402560Y-94075000D01*
X168402560Y-94825000D01*
X168446838Y-95060317D01*
X168585910Y-95276441D01*
X168790000Y-95415890D01*
X168790000Y-96248437D01*
X168653569Y-96448110D01*
X168602560Y-96700000D01*
X168602560Y-97200000D01*
X168646838Y-97435317D01*
X168785910Y-97651441D01*
X168998110Y-97796431D01*
X169250000Y-97847440D01*
X169850000Y-97847440D01*
X170085317Y-97803162D01*
X170109406Y-97787661D01*
X170223691Y-97835000D01*
X170364250Y-97835000D01*
X170523000Y-97676250D01*
X170523000Y-97075000D01*
X170777000Y-97075000D01*
X170777000Y-97676250D01*
X170935750Y-97835000D01*
X171076309Y-97835000D01*
X171309698Y-97738327D01*
X171488327Y-97559699D01*
X171585000Y-97326310D01*
X171585000Y-97233750D01*
X171426250Y-97075000D01*
X170777000Y-97075000D01*
X170523000Y-97075000D01*
X170503000Y-97075000D01*
X170503000Y-96825000D01*
X170523000Y-96825000D01*
X170523000Y-96223750D01*
X170777000Y-96223750D01*
X170777000Y-96825000D01*
X171426250Y-96825000D01*
X171585000Y-96666250D01*
X171585000Y-96573690D01*
X171488327Y-96340301D01*
X171309698Y-96161673D01*
X171076309Y-96065000D01*
X170935750Y-96065000D01*
X170777000Y-96223750D01*
X170523000Y-96223750D01*
X170364250Y-96065000D01*
X170310000Y-96065000D01*
X170310000Y-95412908D01*
X170423691Y-95460000D01*
X170664250Y-95460000D01*
X170823000Y-95301250D01*
X170823000Y-94577000D01*
X171077000Y-94577000D01*
X171077000Y-95301250D01*
X171235750Y-95460000D01*
X171476309Y-95460000D01*
X171709698Y-95363327D01*
X171888327Y-95184699D01*
X171985000Y-94951310D01*
X171985000Y-94735750D01*
X171826250Y-94577000D01*
X171077000Y-94577000D01*
X170823000Y-94577000D01*
X170803000Y-94577000D01*
X170803000Y-94371802D01*
X170871802Y-94303000D01*
X171077000Y-94303000D01*
X171077000Y-94323000D01*
X171826250Y-94323000D01*
X171985000Y-94164250D01*
X171985000Y-93948690D01*
X171888327Y-93715301D01*
X171709698Y-93536673D01*
X171659091Y-93515711D01*
X171914802Y-93260000D01*
X172187537Y-93260000D01*
X172219673Y-93292192D01*
X172563201Y-93434838D01*
X172935167Y-93435162D01*
X173278943Y-93293117D01*
X173312118Y-93260000D01*
X173965001Y-93260000D01*
X174255840Y-93202148D01*
X174502402Y-93037401D01*
X174755001Y-92784802D01*
X174755001Y-93265001D01*
X174812853Y-93555840D01*
X174977600Y-93802402D01*
X177212599Y-96037401D01*
X177459161Y-96202148D01*
X177750000Y-96260000D01*
X178793156Y-96260000D01*
X178835910Y-96326441D01*
X178940000Y-96397563D01*
X178940000Y-97700000D01*
X178997852Y-97990839D01*
X179162599Y-98237401D01*
X179340000Y-98414802D01*
X179340000Y-99298437D01*
X179255591Y-99421973D01*
X179207808Y-99469673D01*
X179065162Y-99813201D01*
X179064838Y-100185167D01*
X179206883Y-100528943D01*
X179257609Y-100579757D01*
X179335910Y-100701441D01*
X179548110Y-100846431D01*
X179649970Y-100867058D01*
X179813201Y-100934838D01*
X180185167Y-100935162D01*
X180276461Y-100897440D01*
X180400000Y-100897440D01*
X180635317Y-100853162D01*
X180659406Y-100837661D01*
X180773691Y-100885000D01*
X180914250Y-100885000D01*
X181073000Y-100726250D01*
X181073000Y-100125000D01*
X181327000Y-100125000D01*
X181327000Y-100726250D01*
X181485750Y-100885000D01*
X181626309Y-100885000D01*
X181859698Y-100788327D01*
X182038327Y-100609699D01*
X182135000Y-100376310D01*
X182135000Y-100283750D01*
X181976250Y-100125000D01*
X181327000Y-100125000D01*
X181073000Y-100125000D01*
X181053000Y-100125000D01*
X181053000Y-99875000D01*
X181073000Y-99875000D01*
X181073000Y-99273750D01*
X181327000Y-99273750D01*
X181327000Y-99875000D01*
X181976250Y-99875000D01*
X182135000Y-99716250D01*
X182135000Y-99623690D01*
X182038327Y-99390301D01*
X181859698Y-99211673D01*
X181626309Y-99115000D01*
X181485750Y-99115000D01*
X181327000Y-99273750D01*
X181073000Y-99273750D01*
X180914250Y-99115000D01*
X180860000Y-99115000D01*
X180860000Y-98100000D01*
X180802148Y-97809161D01*
X180802148Y-97809160D01*
X180637401Y-97562599D01*
X180460000Y-97385198D01*
X180460000Y-96421486D01*
X180673691Y-96510000D01*
X180914250Y-96510000D01*
X181073000Y-96351250D01*
X181073000Y-95627000D01*
X181327000Y-95627000D01*
X181327000Y-96351250D01*
X181485750Y-96510000D01*
X181726309Y-96510000D01*
X181959698Y-96413327D01*
X182138327Y-96234699D01*
X182235000Y-96001310D01*
X182235000Y-95785750D01*
X182076250Y-95627000D01*
X181327000Y-95627000D01*
X181073000Y-95627000D01*
X181053000Y-95627000D01*
X181053000Y-95373000D01*
X181073000Y-95373000D01*
X181073000Y-94648750D01*
X181327000Y-94648750D01*
X181327000Y-95373000D01*
X182076250Y-95373000D01*
X182235000Y-95214250D01*
X182235000Y-94998690D01*
X182138327Y-94765301D01*
X181959698Y-94586673D01*
X181726309Y-94490000D01*
X181485750Y-94490000D01*
X181327000Y-94648750D01*
X181073000Y-94648750D01*
X180914250Y-94490000D01*
X180673691Y-94490000D01*
X180440302Y-94586673D01*
X180438932Y-94588043D01*
X180351890Y-94528569D01*
X180100000Y-94477560D01*
X179300000Y-94477560D01*
X179064683Y-94521838D01*
X178848559Y-94660910D01*
X178794519Y-94740000D01*
X178064802Y-94740000D01*
X177484802Y-94160000D01*
X183285198Y-94160000D01*
X186540000Y-97414802D01*
X186540000Y-99785198D01*
X176009381Y-110315817D01*
X175979100Y-110303243D01*
X175423339Y-110302758D01*
X174909697Y-110514990D01*
X174516371Y-110907630D01*
X174430051Y-111115512D01*
X174345010Y-110909697D01*
X173952370Y-110516371D01*
X173439100Y-110303243D01*
X172883339Y-110302758D01*
X172369697Y-110514990D01*
X171976371Y-110907630D01*
X171890051Y-111115512D01*
X171805010Y-110909697D01*
X171412370Y-110516371D01*
X170899100Y-110303243D01*
X170343339Y-110302758D01*
X169829697Y-110514990D01*
X169477000Y-110867072D01*
X169477000Y-110811690D01*
X169380327Y-110578301D01*
X169201698Y-110399673D01*
X168968309Y-110303000D01*
X168365750Y-110303000D01*
X168207000Y-110461750D01*
X168207000Y-111573000D01*
X168227000Y-111573000D01*
X168227000Y-111827000D01*
X168207000Y-111827000D01*
X168207000Y-112938250D01*
X168365750Y-113097000D01*
X168968309Y-113097000D01*
X169201698Y-113000327D01*
X169380327Y-112821699D01*
X169477000Y-112588310D01*
X169477000Y-112532386D01*
X169827630Y-112883629D01*
X170340900Y-113096757D01*
X170896661Y-113097242D01*
X171410303Y-112885010D01*
X171803629Y-112492370D01*
X171889949Y-112284488D01*
X171974990Y-112490303D01*
X172367630Y-112883629D01*
X172880900Y-113096757D01*
X173436661Y-113097242D01*
X173950303Y-112885010D01*
X174343629Y-112492370D01*
X174429949Y-112284488D01*
X174514990Y-112490303D01*
X174907630Y-112883629D01*
X175420900Y-113096757D01*
X175976661Y-113097242D01*
X176490303Y-112885010D01*
X176883629Y-112492370D01*
X176969949Y-112284488D01*
X177054990Y-112490303D01*
X177447630Y-112883629D01*
X177960900Y-113096757D01*
X178516661Y-113097242D01*
X179030303Y-112885010D01*
X179423629Y-112492370D01*
X179636757Y-111979100D01*
X179637242Y-111423339D01*
X179425010Y-110909697D01*
X179145302Y-110629500D01*
X188737401Y-101037401D01*
X188902148Y-100790840D01*
X188960000Y-100500000D01*
X188960000Y-96900000D01*
X188902148Y-96609161D01*
X188737401Y-96362599D01*
X184537401Y-92162599D01*
X184290839Y-91997852D01*
X184000000Y-91940000D01*
X180333509Y-91940000D01*
X180334838Y-91936799D01*
X180335162Y-91564833D01*
X180193117Y-91221057D01*
X180182079Y-91210000D01*
X181300000Y-91210000D01*
X181590839Y-91152148D01*
X181837401Y-90987401D01*
X182969802Y-89855000D01*
X188309877Y-89855000D01*
X188307069Y-89859110D01*
X188256060Y-90111000D01*
X188256060Y-90619000D01*
X188300338Y-90854317D01*
X188394666Y-91000907D01*
X188307069Y-91129110D01*
X188256060Y-91381000D01*
X188256060Y-91889000D01*
X188300338Y-92124317D01*
X188394666Y-92270907D01*
X188307069Y-92399110D01*
X188256060Y-92651000D01*
X188256060Y-93159000D01*
X188300338Y-93394317D01*
X188439410Y-93610441D01*
X188651610Y-93755431D01*
X188903500Y-93806440D01*
X189003986Y-93806440D01*
X189313201Y-93934838D01*
X189685167Y-93935162D01*
X189996699Y-93806440D01*
X190046500Y-93806440D01*
X190281817Y-93762162D01*
X190497941Y-93623090D01*
X190642931Y-93410890D01*
X190693940Y-93159000D01*
X190693940Y-92651000D01*
X190649662Y-92415683D01*
X190555334Y-92269093D01*
X190642931Y-92140890D01*
X190693940Y-91889000D01*
X190693940Y-91381000D01*
X190649662Y-91145683D01*
X190555334Y-90999093D01*
X190642931Y-90870890D01*
X190693940Y-90619000D01*
X190693940Y-90111000D01*
X194606060Y-90111000D01*
X194606060Y-90619000D01*
X194650338Y-90854317D01*
X194744666Y-91000907D01*
X194657069Y-91129110D01*
X194606060Y-91381000D01*
X194606060Y-91889000D01*
X194650338Y-92124317D01*
X194744666Y-92270907D01*
X194657069Y-92399110D01*
X194606060Y-92651000D01*
X194606060Y-93159000D01*
X194650338Y-93394317D01*
X194789410Y-93610441D01*
X195001610Y-93755431D01*
X195253500Y-93806440D01*
X196396500Y-93806440D01*
X196631817Y-93762162D01*
X196847941Y-93623090D01*
X196992931Y-93410890D01*
X197043940Y-93159000D01*
X197043940Y-92651000D01*
X196999662Y-92415683D01*
X196905334Y-92269093D01*
X196992931Y-92140890D01*
X197043940Y-91889000D01*
X197043940Y-91381000D01*
X196999662Y-91145683D01*
X196905334Y-90999093D01*
X196992931Y-90870890D01*
X197043940Y-90619000D01*
X197043940Y-90111000D01*
X196999662Y-89875683D01*
X196908896Y-89734629D01*
X196934827Y-89708698D01*
X197031500Y-89475309D01*
X197031500Y-89380750D01*
X196872750Y-89222000D01*
X195952000Y-89222000D01*
X195952000Y-89242000D01*
X195698000Y-89242000D01*
X195698000Y-89222000D01*
X194777250Y-89222000D01*
X194618500Y-89380750D01*
X194618500Y-89475309D01*
X194715173Y-89708698D01*
X194741709Y-89735235D01*
X194657069Y-89859110D01*
X194606060Y-90111000D01*
X190693940Y-90111000D01*
X190649662Y-89875683D01*
X190555334Y-89729093D01*
X190642931Y-89600890D01*
X190693940Y-89349000D01*
X190693940Y-88841000D01*
X190670174Y-88714691D01*
X194618500Y-88714691D01*
X194618500Y-88809250D01*
X194777250Y-88968000D01*
X195698000Y-88968000D01*
X195698000Y-88364750D01*
X195952000Y-88364750D01*
X195952000Y-88968000D01*
X196872750Y-88968000D01*
X197031500Y-88809250D01*
X197031500Y-88714691D01*
X196934827Y-88481302D01*
X196756199Y-88302673D01*
X196522810Y-88206000D01*
X196110750Y-88206000D01*
X195952000Y-88364750D01*
X195698000Y-88364750D01*
X195539250Y-88206000D01*
X195127190Y-88206000D01*
X194893801Y-88302673D01*
X194715173Y-88481302D01*
X194618500Y-88714691D01*
X190670174Y-88714691D01*
X190649662Y-88605683D01*
X190510590Y-88389559D01*
X190298390Y-88244569D01*
X190046500Y-88193560D01*
X188903500Y-88193560D01*
X188668183Y-88237838D01*
X188517189Y-88335000D01*
X182655000Y-88335000D01*
X182511198Y-88363604D01*
X184964802Y-85910000D01*
X197420588Y-85910000D01*
X198740000Y-86569706D01*
X198740000Y-98815512D01*
X188124877Y-105065108D01*
X187814833Y-105064838D01*
X187471057Y-105206883D01*
X187207808Y-105469673D01*
X187065162Y-105813201D01*
X187064838Y-106185167D01*
X187206883Y-106528943D01*
X187469673Y-106792192D01*
X187813201Y-106934838D01*
X188185167Y-106935162D01*
X188528943Y-106793117D01*
X188792192Y-106530327D01*
X188843980Y-106405608D01*
X199885583Y-99904924D01*
X199957390Y-99840863D01*
X200037401Y-99787401D01*
X200067045Y-99743035D01*
X200106860Y-99707515D01*
X200148686Y-99620850D01*
X200202148Y-99540839D01*
X200212557Y-99488509D01*
X200235750Y-99440453D01*
X200241227Y-99344378D01*
X200260000Y-99250000D01*
X200260000Y-86100000D01*
X200236235Y-85980526D01*
X200220999Y-85859667D01*
X200207475Y-85835943D01*
X200202148Y-85809161D01*
X200134473Y-85707878D01*
X200074145Y-85602047D01*
X200052572Y-85585304D01*
X200037401Y-85562599D01*
X199936118Y-85494924D01*
X199839883Y-85420236D01*
X197939882Y-84470235D01*
X197913543Y-84463022D01*
X197890839Y-84447852D01*
X197771363Y-84424087D01*
X197653876Y-84391913D01*
X197626786Y-84395328D01*
X197600000Y-84390000D01*
X184650000Y-84390000D01*
X184359160Y-84447852D01*
X184112599Y-84612599D01*
X180035198Y-88690000D01*
X178449885Y-88690000D01*
X178285478Y-88656707D01*
X178275001Y-88601024D01*
X178275001Y-85515001D01*
X178217149Y-85224162D01*
X178052402Y-84977600D01*
X174837401Y-81762599D01*
X174590839Y-81597852D01*
X174300000Y-81540000D01*
X169949669Y-81540000D01*
X169939090Y-81523559D01*
X169726890Y-81378569D01*
X169475000Y-81327560D01*
X168625000Y-81327560D01*
X168389683Y-81371838D01*
X168326522Y-81412481D01*
X168276890Y-81378569D01*
X168025000Y-81327560D01*
X167175000Y-81327560D01*
X166939683Y-81371838D01*
X166723559Y-81510910D01*
X166703683Y-81540000D01*
X165200000Y-81540000D01*
X164909161Y-81597852D01*
X164696421Y-81740000D01*
X163328386Y-81740000D01*
X163201890Y-81653569D01*
X162950000Y-81602560D01*
X162050000Y-81602560D01*
X161814683Y-81646838D01*
X161598559Y-81785910D01*
X161453569Y-81998110D01*
X161402560Y-82250000D01*
X156310000Y-82250000D01*
X156310000Y-77210000D01*
X201690000Y-77210000D01*
X201690000Y-113590000D01*
M02*
