G04 #@! TF.FileFunction,Legend,Top*
%FSLAX46Y46*%
G04 Gerber Fmt 4.6, Leading zero omitted, Abs format (unit mm)*
G04 Created by KiCad (PCBNEW 4.0.1-3.201512221402+6198~38~ubuntu15.04.1-stable) date Mon 04 Jan 2016 10:21:23 PM EST*
%MOMM*%
G01*
G04 APERTURE LIST*
%ADD10C,0.100000*%
%ADD11C,0.300000*%
%ADD12C,0.150000*%
%ADD13C,0.030000*%
G04 APERTURE END LIST*
D10*
D11*
X178642858Y-78678571D02*
X178642858Y-79892857D01*
X178714286Y-80035714D01*
X178785715Y-80107143D01*
X178928572Y-80178571D01*
X179214286Y-80178571D01*
X179357144Y-80107143D01*
X179428572Y-80035714D01*
X179500001Y-79892857D01*
X179500001Y-78678571D01*
X180142858Y-78821429D02*
X180214287Y-78750000D01*
X180357144Y-78678571D01*
X180714287Y-78678571D01*
X180857144Y-78750000D01*
X180928573Y-78821429D01*
X181000001Y-78964286D01*
X181000001Y-79107143D01*
X180928573Y-79321429D01*
X180071430Y-80178571D01*
X181000001Y-80178571D01*
X182142858Y-79392857D02*
X181642858Y-79392857D01*
X181642858Y-80178571D02*
X181642858Y-78678571D01*
X182357144Y-78678571D01*
X182928572Y-79607143D02*
X184071429Y-79607143D01*
X184642858Y-78678571D02*
X185642858Y-78678571D01*
X184642858Y-80178571D01*
X185642858Y-80178571D01*
X186214286Y-79392857D02*
X186714286Y-79392857D01*
X186928572Y-80178571D02*
X186214286Y-80178571D01*
X186214286Y-78678571D01*
X186928572Y-78678571D01*
X188428572Y-80178571D02*
X187928572Y-79464286D01*
X187571429Y-80178571D02*
X187571429Y-78678571D01*
X188142857Y-78678571D01*
X188285715Y-78750000D01*
X188357143Y-78821429D01*
X188428572Y-78964286D01*
X188428572Y-79178571D01*
X188357143Y-79321429D01*
X188285715Y-79392857D01*
X188142857Y-79464286D01*
X187571429Y-79464286D01*
X189357143Y-78678571D02*
X189642857Y-78678571D01*
X189785715Y-78750000D01*
X189928572Y-78892857D01*
X190000000Y-79178571D01*
X190000000Y-79678571D01*
X189928572Y-79964286D01*
X189785715Y-80107143D01*
X189642857Y-80178571D01*
X189357143Y-80178571D01*
X189214286Y-80107143D01*
X189071429Y-79964286D01*
X189000000Y-79678571D01*
X189000000Y-79178571D01*
X189071429Y-78892857D01*
X189214286Y-78750000D01*
X189357143Y-78678571D01*
X191714286Y-80107143D02*
X191928572Y-80178571D01*
X192285715Y-80178571D01*
X192428572Y-80107143D01*
X192500001Y-80035714D01*
X192571429Y-79892857D01*
X192571429Y-79750000D01*
X192500001Y-79607143D01*
X192428572Y-79535714D01*
X192285715Y-79464286D01*
X192000001Y-79392857D01*
X191857143Y-79321429D01*
X191785715Y-79250000D01*
X191714286Y-79107143D01*
X191714286Y-78964286D01*
X191785715Y-78821429D01*
X191857143Y-78750000D01*
X192000001Y-78678571D01*
X192357143Y-78678571D01*
X192571429Y-78750000D01*
X193785714Y-80107143D02*
X193642857Y-80178571D01*
X193357143Y-80178571D01*
X193214286Y-80107143D01*
X193142857Y-79964286D01*
X193142857Y-79392857D01*
X193214286Y-79250000D01*
X193357143Y-79178571D01*
X193642857Y-79178571D01*
X193785714Y-79250000D01*
X193857143Y-79392857D01*
X193857143Y-79535714D01*
X193142857Y-79678571D01*
X194285714Y-79178571D02*
X194857143Y-79178571D01*
X194500000Y-78678571D02*
X194500000Y-79964286D01*
X194571428Y-80107143D01*
X194714286Y-80178571D01*
X194857143Y-80178571D01*
X196000000Y-79178571D02*
X196000000Y-80178571D01*
X195357143Y-79178571D02*
X195357143Y-79964286D01*
X195428571Y-80107143D01*
X195571429Y-80178571D01*
X195785714Y-80178571D01*
X195928571Y-80107143D01*
X196000000Y-80035714D01*
X196714286Y-79178571D02*
X196714286Y-80678571D01*
X196714286Y-79250000D02*
X196857143Y-79178571D01*
X197142857Y-79178571D01*
X197285714Y-79250000D01*
X197357143Y-79321429D01*
X197428572Y-79464286D01*
X197428572Y-79892857D01*
X197357143Y-80035714D01*
X197285714Y-80107143D01*
X197142857Y-80178571D01*
X196857143Y-80178571D01*
X196714286Y-80107143D01*
X167450000Y-108642857D02*
X167378571Y-108785714D01*
X167378571Y-109000000D01*
X167450000Y-109214285D01*
X167592857Y-109357143D01*
X167735714Y-109428571D01*
X168021429Y-109500000D01*
X168235714Y-109500000D01*
X168521429Y-109428571D01*
X168664286Y-109357143D01*
X168807143Y-109214285D01*
X168878571Y-109000000D01*
X168878571Y-108857143D01*
X168807143Y-108642857D01*
X168735714Y-108571428D01*
X168235714Y-108571428D01*
X168235714Y-108857143D01*
X168878571Y-107928571D02*
X167378571Y-107928571D01*
X168878571Y-107071428D01*
X167378571Y-107071428D01*
X168878571Y-106357142D02*
X167378571Y-106357142D01*
X167378571Y-105999999D01*
X167450000Y-105785714D01*
X167592857Y-105642856D01*
X167735714Y-105571428D01*
X168021429Y-105499999D01*
X168235714Y-105499999D01*
X168521429Y-105571428D01*
X168664286Y-105642856D01*
X168807143Y-105785714D01*
X168878571Y-105999999D01*
X168878571Y-106357142D01*
X178935714Y-108599999D02*
X179007143Y-108671428D01*
X179078571Y-108885714D01*
X179078571Y-109028571D01*
X179007143Y-109242856D01*
X178864286Y-109385714D01*
X178721429Y-109457142D01*
X178435714Y-109528571D01*
X178221429Y-109528571D01*
X177935714Y-109457142D01*
X177792857Y-109385714D01*
X177650000Y-109242856D01*
X177578571Y-109028571D01*
X177578571Y-108885714D01*
X177650000Y-108671428D01*
X177721429Y-108599999D01*
X177721429Y-108028571D02*
X177650000Y-107957142D01*
X177578571Y-107814285D01*
X177578571Y-107457142D01*
X177650000Y-107314285D01*
X177721429Y-107242856D01*
X177864286Y-107171428D01*
X178007143Y-107171428D01*
X178221429Y-107242856D01*
X179078571Y-108099999D01*
X179078571Y-107171428D01*
X179078571Y-106528571D02*
X177578571Y-106528571D01*
X177578571Y-106171428D01*
X177650000Y-105957143D01*
X177792857Y-105814285D01*
X177935714Y-105742857D01*
X178221429Y-105671428D01*
X178435714Y-105671428D01*
X178721429Y-105742857D01*
X178864286Y-105814285D01*
X179007143Y-105957143D01*
X179078571Y-106171428D01*
X179078571Y-106528571D01*
X176235714Y-108849999D02*
X176307143Y-108921428D01*
X176378571Y-109135714D01*
X176378571Y-109278571D01*
X176307143Y-109492856D01*
X176164286Y-109635714D01*
X176021429Y-109707142D01*
X175735714Y-109778571D01*
X175521429Y-109778571D01*
X175235714Y-109707142D01*
X175092857Y-109635714D01*
X174950000Y-109492856D01*
X174878571Y-109278571D01*
X174878571Y-109135714D01*
X174950000Y-108921428D01*
X175021429Y-108849999D01*
X175021429Y-108278571D02*
X174950000Y-108207142D01*
X174878571Y-108064285D01*
X174878571Y-107707142D01*
X174950000Y-107564285D01*
X175021429Y-107492856D01*
X175164286Y-107421428D01*
X175307143Y-107421428D01*
X175521429Y-107492856D01*
X176378571Y-108349999D01*
X176378571Y-107421428D01*
X176235714Y-105921428D02*
X176307143Y-105992857D01*
X176378571Y-106207143D01*
X176378571Y-106350000D01*
X176307143Y-106564285D01*
X176164286Y-106707143D01*
X176021429Y-106778571D01*
X175735714Y-106850000D01*
X175521429Y-106850000D01*
X175235714Y-106778571D01*
X175092857Y-106707143D01*
X174950000Y-106564285D01*
X174878571Y-106350000D01*
X174878571Y-106207143D01*
X174950000Y-105992857D01*
X175021429Y-105921428D01*
X176378571Y-105278571D02*
X174878571Y-105278571D01*
X176378571Y-104421428D02*
X175521429Y-105064285D01*
X174878571Y-104421428D02*
X175735714Y-105278571D01*
X172450000Y-108800000D02*
X172378571Y-108942857D01*
X172378571Y-109157143D01*
X172450000Y-109371428D01*
X172592857Y-109514286D01*
X172735714Y-109585714D01*
X173021429Y-109657143D01*
X173235714Y-109657143D01*
X173521429Y-109585714D01*
X173664286Y-109514286D01*
X173807143Y-109371428D01*
X173878571Y-109157143D01*
X173878571Y-109014286D01*
X173807143Y-108800000D01*
X173735714Y-108728571D01*
X173235714Y-108728571D01*
X173235714Y-109014286D01*
X173878571Y-108085714D02*
X172378571Y-108085714D01*
X172378571Y-107514286D01*
X172450000Y-107371428D01*
X172521429Y-107300000D01*
X172664286Y-107228571D01*
X172878571Y-107228571D01*
X173021429Y-107300000D01*
X173092857Y-107371428D01*
X173164286Y-107514286D01*
X173164286Y-108085714D01*
X173878571Y-106585714D02*
X172378571Y-106585714D01*
X172378571Y-105585714D02*
X172378571Y-105300000D01*
X172450000Y-105157142D01*
X172592857Y-105014285D01*
X172878571Y-104942857D01*
X173378571Y-104942857D01*
X173664286Y-105014285D01*
X173807143Y-105157142D01*
X173878571Y-105300000D01*
X173878571Y-105585714D01*
X173807143Y-105728571D01*
X173664286Y-105871428D01*
X173378571Y-105942857D01*
X172878571Y-105942857D01*
X172592857Y-105871428D01*
X172450000Y-105728571D01*
X172378571Y-105585714D01*
X169778571Y-109500000D02*
X171278571Y-109000000D01*
X169778571Y-108500000D01*
X171135714Y-107142857D02*
X171207143Y-107214286D01*
X171278571Y-107428572D01*
X171278571Y-107571429D01*
X171207143Y-107785714D01*
X171064286Y-107928572D01*
X170921429Y-108000000D01*
X170635714Y-108071429D01*
X170421429Y-108071429D01*
X170135714Y-108000000D01*
X169992857Y-107928572D01*
X169850000Y-107785714D01*
X169778571Y-107571429D01*
X169778571Y-107428572D01*
X169850000Y-107214286D01*
X169921429Y-107142857D01*
X171135714Y-105642857D02*
X171207143Y-105714286D01*
X171278571Y-105928572D01*
X171278571Y-106071429D01*
X171207143Y-106285714D01*
X171064286Y-106428572D01*
X170921429Y-106500000D01*
X170635714Y-106571429D01*
X170421429Y-106571429D01*
X170135714Y-106500000D01*
X169992857Y-106428572D01*
X169850000Y-106285714D01*
X169778571Y-106071429D01*
X169778571Y-105928572D01*
X169850000Y-105714286D01*
X169921429Y-105642857D01*
D12*
X190364000Y-93540000D02*
X190364000Y-88460000D01*
X190364000Y-88460000D02*
X194936000Y-88460000D01*
X194936000Y-88460000D02*
X194936000Y-93540000D01*
X194936000Y-93540000D02*
X190364000Y-93540000D01*
X191888000Y-93540000D02*
X191888000Y-93032000D01*
X191888000Y-93032000D02*
X193158000Y-93032000D01*
X193158000Y-93032000D02*
X193158000Y-93540000D01*
X170350000Y-96475000D02*
X169850000Y-96475000D01*
X169850000Y-97425000D02*
X170350000Y-97425000D01*
X169850000Y-93850000D02*
X170550000Y-93850000D01*
X170550000Y-95050000D02*
X169850000Y-95050000D01*
X180400000Y-100475000D02*
X180900000Y-100475000D01*
X180900000Y-99525000D02*
X180400000Y-99525000D01*
X180800000Y-96100000D02*
X180100000Y-96100000D01*
X180100000Y-94900000D02*
X180800000Y-94900000D01*
D13*
X174656422Y-88450000D02*
G75*
G03X174656422Y-88450000I-141421J0D01*
G01*
X174015001Y-87950000D02*
X178515001Y-87950000D01*
X178515001Y-87950000D02*
X178515001Y-92450000D01*
X178515001Y-92450000D02*
X174015001Y-92450000D01*
X174015001Y-92450000D02*
X174015001Y-87950000D01*
D12*
X161825000Y-83750000D02*
X161825000Y-82750000D01*
X163175000Y-82750000D02*
X163175000Y-83750000D01*
D13*
X169685000Y-81792000D02*
X169685000Y-83697000D01*
X169685000Y-83697000D02*
X167018000Y-83697000D01*
X167018000Y-83697000D02*
X167018000Y-81792000D01*
X167018000Y-81792000D02*
X169685000Y-81792000D01*
D12*
X166810000Y-110430000D02*
X179510000Y-110430000D01*
X179510000Y-110430000D02*
X179510000Y-112970000D01*
X179510000Y-112970000D02*
X166810000Y-112970000D01*
X166810000Y-112970000D02*
X166810000Y-110430000D01*
X191546667Y-91714286D02*
X191546667Y-91238095D01*
X191832381Y-91809524D02*
X190832381Y-91476191D01*
X191832381Y-91142857D01*
X191832381Y-90285714D02*
X191832381Y-90857143D01*
X191832381Y-90571429D02*
X190832381Y-90571429D01*
X190975238Y-90666667D01*
X191070476Y-90761905D01*
X191118095Y-90857143D01*
X167133334Y-97357143D02*
X167085715Y-97404762D01*
X166942858Y-97452381D01*
X166847620Y-97452381D01*
X166704762Y-97404762D01*
X166609524Y-97309524D01*
X166561905Y-97214286D01*
X166514286Y-97023810D01*
X166514286Y-96880952D01*
X166561905Y-96690476D01*
X166609524Y-96595238D01*
X166704762Y-96500000D01*
X166847620Y-96452381D01*
X166942858Y-96452381D01*
X167085715Y-96500000D01*
X167133334Y-96547619D01*
X168085715Y-97452381D02*
X167514286Y-97452381D01*
X167800000Y-97452381D02*
X167800000Y-96452381D01*
X167704762Y-96595238D01*
X167609524Y-96690476D01*
X167514286Y-96738095D01*
X166933334Y-94757143D02*
X166885715Y-94804762D01*
X166742858Y-94852381D01*
X166647620Y-94852381D01*
X166504762Y-94804762D01*
X166409524Y-94709524D01*
X166361905Y-94614286D01*
X166314286Y-94423810D01*
X166314286Y-94280952D01*
X166361905Y-94090476D01*
X166409524Y-93995238D01*
X166504762Y-93900000D01*
X166647620Y-93852381D01*
X166742858Y-93852381D01*
X166885715Y-93900000D01*
X166933334Y-93947619D01*
X167314286Y-93947619D02*
X167361905Y-93900000D01*
X167457143Y-93852381D01*
X167695239Y-93852381D01*
X167790477Y-93900000D01*
X167838096Y-93947619D01*
X167885715Y-94042857D01*
X167885715Y-94138095D01*
X167838096Y-94280952D01*
X167266667Y-94852381D01*
X167885715Y-94852381D01*
X177783334Y-100307143D02*
X177735715Y-100354762D01*
X177592858Y-100402381D01*
X177497620Y-100402381D01*
X177354762Y-100354762D01*
X177259524Y-100259524D01*
X177211905Y-100164286D01*
X177164286Y-99973810D01*
X177164286Y-99830952D01*
X177211905Y-99640476D01*
X177259524Y-99545238D01*
X177354762Y-99450000D01*
X177497620Y-99402381D01*
X177592858Y-99402381D01*
X177735715Y-99450000D01*
X177783334Y-99497619D01*
X178116667Y-99402381D02*
X178735715Y-99402381D01*
X178402381Y-99783333D01*
X178545239Y-99783333D01*
X178640477Y-99830952D01*
X178688096Y-99878571D01*
X178735715Y-99973810D01*
X178735715Y-100211905D01*
X178688096Y-100307143D01*
X178640477Y-100354762D01*
X178545239Y-100402381D01*
X178259524Y-100402381D01*
X178164286Y-100354762D01*
X178116667Y-100307143D01*
X177283334Y-95757143D02*
X177235715Y-95804762D01*
X177092858Y-95852381D01*
X176997620Y-95852381D01*
X176854762Y-95804762D01*
X176759524Y-95709524D01*
X176711905Y-95614286D01*
X176664286Y-95423810D01*
X176664286Y-95280952D01*
X176711905Y-95090476D01*
X176759524Y-94995238D01*
X176854762Y-94900000D01*
X176997620Y-94852381D01*
X177092858Y-94852381D01*
X177235715Y-94900000D01*
X177283334Y-94947619D01*
X178140477Y-95185714D02*
X178140477Y-95852381D01*
X177902381Y-94804762D02*
X177664286Y-95519048D01*
X178283334Y-95519048D01*
D10*
X174669764Y-87414286D02*
X174836430Y-87414286D01*
X174907859Y-87676190D02*
X174669764Y-87676190D01*
X174669764Y-87176190D01*
X174907859Y-87176190D01*
X175384049Y-87676190D02*
X175098335Y-87676190D01*
X175241192Y-87676190D02*
X175241192Y-87176190D01*
X175193573Y-87247619D01*
X175145954Y-87295238D01*
X175098335Y-87319048D01*
D12*
X164852381Y-83416666D02*
X164376190Y-83750000D01*
X164852381Y-83988095D02*
X163852381Y-83988095D01*
X163852381Y-83607142D01*
X163900000Y-83511904D01*
X163947619Y-83464285D01*
X164042857Y-83416666D01*
X164185714Y-83416666D01*
X164280952Y-83464285D01*
X164328571Y-83511904D01*
X164376190Y-83607142D01*
X164376190Y-83988095D01*
X164852381Y-82464285D02*
X164852381Y-83035714D01*
X164852381Y-82750000D02*
X163852381Y-82750000D01*
X163995238Y-82845238D01*
X164090476Y-82940476D01*
X164138095Y-83035714D01*
D10*
X170419672Y-83272126D02*
X170229196Y-83405460D01*
X170419672Y-83500698D02*
X170019672Y-83500698D01*
X170019672Y-83348317D01*
X170038720Y-83310222D01*
X170057768Y-83291174D01*
X170095863Y-83272126D01*
X170153006Y-83272126D01*
X170191101Y-83291174D01*
X170210149Y-83310222D01*
X170229196Y-83348317D01*
X170229196Y-83500698D01*
X170038720Y-82891174D02*
X170019672Y-82929269D01*
X170019672Y-82986412D01*
X170038720Y-83043555D01*
X170076815Y-83081650D01*
X170114910Y-83100698D01*
X170191101Y-83119746D01*
X170248244Y-83119746D01*
X170324434Y-83100698D01*
X170362530Y-83081650D01*
X170400625Y-83043555D01*
X170419672Y-82986412D01*
X170419672Y-82948317D01*
X170400625Y-82891174D01*
X170381577Y-82872126D01*
X170248244Y-82872126D01*
X170248244Y-82948317D01*
X170210149Y-82567365D02*
X170229196Y-82510222D01*
X170248244Y-82491174D01*
X170286339Y-82472126D01*
X170343482Y-82472126D01*
X170381577Y-82491174D01*
X170400625Y-82510222D01*
X170419672Y-82548317D01*
X170419672Y-82700698D01*
X170019672Y-82700698D01*
X170019672Y-82567365D01*
X170038720Y-82529269D01*
X170057768Y-82510222D01*
X170095863Y-82491174D01*
X170133958Y-82491174D01*
X170172053Y-82510222D01*
X170191101Y-82529269D01*
X170210149Y-82567365D01*
X170210149Y-82700698D01*
X170419672Y-82091174D02*
X170419672Y-82319746D01*
X170419672Y-82205460D02*
X170019672Y-82205460D01*
X170076815Y-82243555D01*
X170114910Y-82281650D01*
X170133958Y-82319746D01*
D12*
X164801905Y-112152381D02*
X164801905Y-111152381D01*
X165182858Y-111152381D01*
X165278096Y-111200000D01*
X165325715Y-111247619D01*
X165373334Y-111342857D01*
X165373334Y-111485714D01*
X165325715Y-111580952D01*
X165278096Y-111628571D01*
X165182858Y-111676190D01*
X164801905Y-111676190D01*
X166325715Y-112152381D02*
X165754286Y-112152381D01*
X166040000Y-112152381D02*
X166040000Y-111152381D01*
X165944762Y-111295238D01*
X165849524Y-111390476D01*
X165754286Y-111438095D01*
M02*
