M48
;DRILL file {KiCad 4.0.6} date 04/25/18 22:34:21
;FORMAT={-:-/ absolute / inch / decimal}
FMAT,2
INCH,TZ
T1C0.016
T2C0.020
T3C0.028
T4C0.039
T5C0.177
%
G90
G05
M72
T1
X1.69Y-1.375
X1.9449Y-1.189
X2.02Y-1.215
X2.0485Y-1.4019
X2.05Y-1.625
X2.125Y-1.425
X2.2Y-1.2
X2.2165Y-1.6535
X2.2402Y-1.2677
X2.245Y-1.205
X2.4052Y-1.5322
X2.5433Y-1.4016
T2
X1.3882Y-1.1772
X1.3882Y-1.6772
X2.4925Y-1.1772
T3
X2.3281Y-1.3386
X2.3281Y-1.437
X2.3281Y-1.5354
X2.4266Y-1.3386
X2.4266Y-1.437
T4
X2.6102Y-1.2874
X2.6102Y-1.3858
X2.6102Y-1.4646
X2.6102Y-1.563
T5
X1.489Y-1.434
T0
M30
