G04 #@! TF.FileFunction,Soldermask,Top*
%FSLAX46Y46*%
G04 Gerber Fmt 4.6, Leading zero omitted, Abs format (unit mm)*
G04 Created by KiCad (PCBNEW 4.0.2-4+6225~38~ubuntu14.04.1-stable) date Sat 19 Mar 2016 04:38:17 PM EDT*
%MOMM*%
G01*
G04 APERTURE LIST*
%ADD10C,0.100000*%
%ADD11R,0.800000X0.700000*%
%ADD12R,1.000000X0.950000*%
%ADD13R,0.700000X1.100000*%
%ADD14R,0.649580X0.499720*%
%ADD15R,0.850000X1.050000*%
%ADD16R,1.600000X1.800000*%
%ADD17C,0.980000*%
%ADD18R,0.500000X0.500000*%
%ADD19R,1.100000X0.500000*%
%ADD20R,0.500000X1.100000*%
%ADD21R,2.000000X2.000000*%
%ADD22R,0.750000X0.500000*%
%ADD23R,1.500000X1.700000*%
%ADD24C,0.254000*%
G04 APERTURE END LIST*
D10*
D11*
X52650000Y-38200000D03*
X51550000Y-38200000D03*
D12*
X51450000Y-36300000D03*
X52950000Y-36300000D03*
D13*
X49850000Y-38700000D03*
X48350000Y-38700000D03*
D14*
X55898960Y-32399620D03*
X55898960Y-33400380D03*
X57301040Y-32399620D03*
X55898960Y-32900000D03*
X57301040Y-33400380D03*
D15*
X48000000Y-35500000D03*
X48850000Y-35500000D03*
X48850000Y-36950000D03*
X48000000Y-36950000D03*
D16*
X42650000Y-40050000D03*
X42650000Y-32850000D03*
X45650000Y-32850000D03*
X45650000Y-40050000D03*
D17*
X56750000Y-35600000D03*
X56700000Y-37000000D03*
X54100000Y-38400000D03*
X54100000Y-39800000D03*
D18*
X61300000Y-36600000D03*
X61300000Y-39100000D03*
D19*
X61600000Y-38600000D03*
X61600000Y-38100000D03*
X61600000Y-37600000D03*
X61600000Y-37100000D03*
D20*
X60800000Y-36300000D03*
X60300000Y-36300000D03*
X59800000Y-36300000D03*
X59300000Y-36300000D03*
D18*
X58800000Y-36600000D03*
D19*
X58500000Y-37100000D03*
X58500000Y-37600000D03*
X58500000Y-38100000D03*
X58500000Y-38600000D03*
D18*
X58800000Y-39100000D03*
D20*
X59300000Y-39400000D03*
X59800000Y-39400000D03*
X60300000Y-39400000D03*
X60800000Y-39400000D03*
D21*
X60050000Y-37850000D03*
D22*
X60000000Y-33400000D03*
X60000000Y-32900000D03*
X60000000Y-32400000D03*
X60000000Y-31900000D03*
X62650000Y-33400000D03*
X62650000Y-32900000D03*
X62650000Y-32400000D03*
X62650000Y-31900000D03*
D23*
X61325000Y-32650000D03*
D24*
G36*
X74623000Y-33623000D02*
X66677000Y-33623000D01*
X66677000Y-31877000D01*
X74623000Y-31877000D01*
X74623000Y-33623000D01*
X74623000Y-33623000D01*
G37*
X74623000Y-33623000D02*
X66677000Y-33623000D01*
X66677000Y-31877000D01*
X74623000Y-31877000D01*
X74623000Y-33623000D01*
G36*
X74123000Y-38273000D02*
X66677000Y-38273000D01*
X66677000Y-36527000D01*
X74123000Y-36527000D01*
X74123000Y-38273000D01*
X74123000Y-38273000D01*
G37*
X74123000Y-38273000D02*
X66677000Y-38273000D01*
X66677000Y-36527000D01*
X74123000Y-36527000D01*
X74123000Y-38273000D01*
G36*
X74123000Y-35973000D02*
X66677000Y-35973000D01*
X66677000Y-34227000D01*
X74123000Y-34227000D01*
X74123000Y-35973000D01*
X74123000Y-35973000D01*
G37*
X74123000Y-35973000D02*
X66677000Y-35973000D01*
X66677000Y-34227000D01*
X74123000Y-34227000D01*
X74123000Y-35973000D01*
G36*
X74623000Y-40623000D02*
X66677000Y-40623000D01*
X66677000Y-38877000D01*
X74623000Y-38877000D01*
X74623000Y-40623000D01*
X74623000Y-40623000D01*
G37*
X74623000Y-40623000D02*
X66677000Y-40623000D01*
X66677000Y-38877000D01*
X74623000Y-38877000D01*
X74623000Y-40623000D01*
M02*
