G04 #@! TF.FileFunction,Legend,Top*
%FSLAX46Y46*%
G04 Gerber Fmt 4.6, Leading zero omitted, Abs format (unit mm)*
G04 Created by KiCad (PCBNEW 4.0.2-4+6225~38~ubuntu14.04.1-stable) date Sat 19 Mar 2016 04:38:17 PM EDT*
%MOMM*%
G01*
G04 APERTURE LIST*
%ADD10C,0.100000*%
%ADD11C,0.200000*%
%ADD12C,0.250000*%
%ADD13C,0.150000*%
%ADD14C,0.030000*%
%ADD15C,0.125000*%
G04 APERTURE END LIST*
D10*
D11*
X36257142Y-41278571D02*
X36257142Y-41811905D01*
X35914285Y-41278571D02*
X35914285Y-41697619D01*
X35952380Y-41773810D01*
X36028571Y-41811905D01*
X36142857Y-41811905D01*
X36219047Y-41773810D01*
X36257142Y-41735714D01*
X36600000Y-41088095D02*
X36638095Y-41050000D01*
X36714286Y-41011905D01*
X36904762Y-41011905D01*
X36980952Y-41050000D01*
X37019048Y-41088095D01*
X37057143Y-41164286D01*
X37057143Y-41240476D01*
X37019048Y-41354762D01*
X36561905Y-41811905D01*
X37057143Y-41811905D01*
X37285714Y-41278571D02*
X37590476Y-41278571D01*
X37400000Y-41811905D02*
X37400000Y-41126190D01*
X37438095Y-41050000D01*
X37514286Y-41011905D01*
X37590476Y-41011905D01*
X37780953Y-41278571D02*
X38200000Y-41278571D01*
X37780953Y-41811905D01*
X38200000Y-41811905D01*
X38809524Y-41773810D02*
X38733334Y-41811905D01*
X38580953Y-41811905D01*
X38504762Y-41773810D01*
X38466667Y-41697619D01*
X38466667Y-41392857D01*
X38504762Y-41316667D01*
X38580953Y-41278571D01*
X38733334Y-41278571D01*
X38809524Y-41316667D01*
X38847619Y-41392857D01*
X38847619Y-41469048D01*
X38466667Y-41545238D01*
X39190476Y-41811905D02*
X39190476Y-41278571D01*
X39190476Y-41430952D02*
X39228571Y-41354762D01*
X39266667Y-41316667D01*
X39342857Y-41278571D01*
X39419048Y-41278571D01*
X39800000Y-41811905D02*
X39723809Y-41773810D01*
X39685714Y-41735714D01*
X39647619Y-41659524D01*
X39647619Y-41430952D01*
X39685714Y-41354762D01*
X39723809Y-41316667D01*
X39800000Y-41278571D01*
X39914286Y-41278571D01*
X39990476Y-41316667D01*
X40028571Y-41354762D01*
X40066667Y-41430952D01*
X40066667Y-41659524D01*
X40028571Y-41735714D01*
X39990476Y-41773810D01*
X39914286Y-41811905D01*
X39800000Y-41811905D01*
X40409524Y-41735714D02*
X40447619Y-41773810D01*
X40409524Y-41811905D01*
X40371429Y-41773810D01*
X40409524Y-41735714D01*
X40409524Y-41811905D01*
X41133333Y-41773810D02*
X41057143Y-41811905D01*
X40904762Y-41811905D01*
X40828571Y-41773810D01*
X40790476Y-41735714D01*
X40752381Y-41659524D01*
X40752381Y-41430952D01*
X40790476Y-41354762D01*
X40828571Y-41316667D01*
X40904762Y-41278571D01*
X41057143Y-41278571D01*
X41133333Y-41316667D01*
X41590476Y-41811905D02*
X41514285Y-41773810D01*
X41476190Y-41735714D01*
X41438095Y-41659524D01*
X41438095Y-41430952D01*
X41476190Y-41354762D01*
X41514285Y-41316667D01*
X41590476Y-41278571D01*
X41704762Y-41278571D01*
X41780952Y-41316667D01*
X41819047Y-41354762D01*
X41857143Y-41430952D01*
X41857143Y-41659524D01*
X41819047Y-41735714D01*
X41780952Y-41773810D01*
X41704762Y-41811905D01*
X41590476Y-41811905D01*
X42200000Y-41811905D02*
X42200000Y-41278571D01*
X42200000Y-41354762D02*
X42238095Y-41316667D01*
X42314286Y-41278571D01*
X42428572Y-41278571D01*
X42504762Y-41316667D01*
X42542857Y-41392857D01*
X42542857Y-41811905D01*
X42542857Y-41392857D02*
X42580953Y-41316667D01*
X42657143Y-41278571D01*
X42771429Y-41278571D01*
X42847619Y-41316667D01*
X42885714Y-41392857D01*
X42885714Y-41811905D01*
D12*
X35861904Y-30702381D02*
X35861904Y-31511905D01*
X35909523Y-31607143D01*
X35957142Y-31654762D01*
X36052380Y-31702381D01*
X36242857Y-31702381D01*
X36338095Y-31654762D01*
X36385714Y-31607143D01*
X36433333Y-31511905D01*
X36433333Y-30702381D01*
X36861904Y-30797619D02*
X36909523Y-30750000D01*
X37004761Y-30702381D01*
X37242857Y-30702381D01*
X37338095Y-30750000D01*
X37385714Y-30797619D01*
X37433333Y-30892857D01*
X37433333Y-30988095D01*
X37385714Y-31130952D01*
X36814285Y-31702381D01*
X37433333Y-31702381D01*
X38195238Y-31178571D02*
X37861904Y-31178571D01*
X37861904Y-31702381D02*
X37861904Y-30702381D01*
X38338095Y-30702381D01*
X39385714Y-30702381D02*
X40052381Y-30702381D01*
X39385714Y-31702381D01*
X40052381Y-31702381D01*
X40814286Y-31654762D02*
X40719048Y-31702381D01*
X40528571Y-31702381D01*
X40433333Y-31654762D01*
X40385714Y-31559524D01*
X40385714Y-31178571D01*
X40433333Y-31083333D01*
X40528571Y-31035714D01*
X40719048Y-31035714D01*
X40814286Y-31083333D01*
X40861905Y-31178571D01*
X40861905Y-31273810D01*
X40385714Y-31369048D01*
X41290476Y-31702381D02*
X41290476Y-31035714D01*
X41290476Y-31226190D02*
X41338095Y-31130952D01*
X41385714Y-31083333D01*
X41480952Y-31035714D01*
X41576191Y-31035714D01*
X42052381Y-31702381D02*
X41957143Y-31654762D01*
X41909524Y-31607143D01*
X41861905Y-31511905D01*
X41861905Y-31226190D01*
X41909524Y-31130952D01*
X41957143Y-31083333D01*
X42052381Y-31035714D01*
X42195239Y-31035714D01*
X42290477Y-31083333D01*
X42338096Y-31130952D01*
X42385715Y-31226190D01*
X42385715Y-31511905D01*
X42338096Y-31607143D01*
X42290477Y-31654762D01*
X42195239Y-31702381D01*
X42052381Y-31702381D01*
D13*
X51850000Y-38675000D02*
X52350000Y-38675000D01*
X52350000Y-37725000D02*
X51850000Y-37725000D01*
X51850000Y-35700000D02*
X52550000Y-35700000D01*
X52550000Y-36900000D02*
X51850000Y-36900000D01*
X48600000Y-38025000D02*
X49600000Y-38025000D01*
X49600000Y-39375000D02*
X48600000Y-39375000D01*
X55550980Y-32049100D02*
X57649020Y-32049100D01*
X57649020Y-32049100D02*
X57649020Y-33750900D01*
X57649020Y-33750900D02*
X55550980Y-33750900D01*
X55550980Y-33750900D02*
X55550980Y-32049100D01*
D14*
X47492000Y-34865000D02*
X49397000Y-34865000D01*
X49397000Y-34865000D02*
X49397000Y-37532000D01*
X49397000Y-37532000D02*
X47492000Y-37532000D01*
X47492000Y-37532000D02*
X47492000Y-34865000D01*
X61941421Y-39600000D02*
G75*
G03X61941421Y-39600000I-141421J0D01*
G01*
X62300000Y-40100000D02*
X57800000Y-40100000D01*
X57800000Y-40100000D02*
X57800000Y-35600000D01*
X57800000Y-35600000D02*
X62300000Y-35600000D01*
X62300000Y-35600000D02*
X62300000Y-40100000D01*
D13*
X63250000Y-31400000D02*
X63250000Y-33900000D01*
X63250000Y-33900000D02*
X59500000Y-33900000D01*
X59500000Y-33900000D02*
X59500000Y-31400000D01*
X59500000Y-31400000D02*
X63250000Y-31400000D01*
D15*
X53766667Y-38398571D02*
X53742857Y-38422381D01*
X53671429Y-38446190D01*
X53623810Y-38446190D01*
X53552381Y-38422381D01*
X53504762Y-38374762D01*
X53480953Y-38327143D01*
X53457143Y-38231905D01*
X53457143Y-38160476D01*
X53480953Y-38065238D01*
X53504762Y-38017619D01*
X53552381Y-37970000D01*
X53623810Y-37946190D01*
X53671429Y-37946190D01*
X53742857Y-37970000D01*
X53766667Y-37993810D01*
X53933334Y-37946190D02*
X54242857Y-37946190D01*
X54076191Y-38136667D01*
X54147619Y-38136667D01*
X54195238Y-38160476D01*
X54219048Y-38184286D01*
X54242857Y-38231905D01*
X54242857Y-38350952D01*
X54219048Y-38398571D01*
X54195238Y-38422381D01*
X54147619Y-38446190D01*
X54004762Y-38446190D01*
X53957143Y-38422381D01*
X53933334Y-38398571D01*
X54146667Y-36488571D02*
X54122857Y-36512381D01*
X54051429Y-36536190D01*
X54003810Y-36536190D01*
X53932381Y-36512381D01*
X53884762Y-36464762D01*
X53860953Y-36417143D01*
X53837143Y-36321905D01*
X53837143Y-36250476D01*
X53860953Y-36155238D01*
X53884762Y-36107619D01*
X53932381Y-36060000D01*
X54003810Y-36036190D01*
X54051429Y-36036190D01*
X54122857Y-36060000D01*
X54146667Y-36083810D01*
X54575238Y-36202857D02*
X54575238Y-36536190D01*
X54456191Y-36012381D02*
X54337143Y-36369524D01*
X54646667Y-36369524D01*
X49326190Y-38783333D02*
X49088095Y-38950000D01*
X49326190Y-39069047D02*
X48826190Y-39069047D01*
X48826190Y-38878571D01*
X48850000Y-38830952D01*
X48873810Y-38807143D01*
X48921429Y-38783333D01*
X48992857Y-38783333D01*
X49040476Y-38807143D01*
X49064286Y-38830952D01*
X49088095Y-38878571D01*
X49088095Y-39069047D01*
X49326190Y-38307143D02*
X49326190Y-38592857D01*
X49326190Y-38450000D02*
X48826190Y-38450000D01*
X48897619Y-38497619D01*
X48945238Y-38545238D01*
X48969048Y-38592857D01*
X56235239Y-33976190D02*
X56568572Y-33976190D01*
X56235239Y-34476190D01*
X56568572Y-34476190D01*
X57020952Y-34476190D02*
X56735238Y-34476190D01*
X56878095Y-34476190D02*
X56878095Y-33976190D01*
X56830476Y-34047619D01*
X56782857Y-34095238D01*
X56735238Y-34119048D01*
D10*
X48038794Y-34492232D02*
X47905460Y-34301756D01*
X47810222Y-34492232D02*
X47810222Y-34092232D01*
X47962603Y-34092232D01*
X48000698Y-34111280D01*
X48019746Y-34130328D01*
X48038794Y-34168423D01*
X48038794Y-34225566D01*
X48019746Y-34263661D01*
X48000698Y-34282709D01*
X47962603Y-34301756D01*
X47810222Y-34301756D01*
X48419746Y-34111280D02*
X48381651Y-34092232D01*
X48324508Y-34092232D01*
X48267365Y-34111280D01*
X48229270Y-34149375D01*
X48210222Y-34187470D01*
X48191174Y-34263661D01*
X48191174Y-34320804D01*
X48210222Y-34396994D01*
X48229270Y-34435090D01*
X48267365Y-34473185D01*
X48324508Y-34492232D01*
X48362603Y-34492232D01*
X48419746Y-34473185D01*
X48438794Y-34454137D01*
X48438794Y-34320804D01*
X48362603Y-34320804D01*
X48743555Y-34282709D02*
X48800698Y-34301756D01*
X48819746Y-34320804D01*
X48838794Y-34358899D01*
X48838794Y-34416042D01*
X48819746Y-34454137D01*
X48800698Y-34473185D01*
X48762603Y-34492232D01*
X48610222Y-34492232D01*
X48610222Y-34092232D01*
X48743555Y-34092232D01*
X48781651Y-34111280D01*
X48800698Y-34130328D01*
X48819746Y-34168423D01*
X48819746Y-34206518D01*
X48800698Y-34244613D01*
X48781651Y-34263661D01*
X48743555Y-34282709D01*
X48610222Y-34282709D01*
X49219746Y-34492232D02*
X48991174Y-34492232D01*
X49105460Y-34492232D02*
X49105460Y-34092232D01*
X49067365Y-34149375D01*
X49029270Y-34187470D01*
X48991174Y-34206518D01*
D13*
X44704762Y-37633333D02*
X44752381Y-37490476D01*
X44752381Y-37252380D01*
X44704762Y-37157142D01*
X44657143Y-37109523D01*
X44561905Y-37061904D01*
X44466667Y-37061904D01*
X44371429Y-37109523D01*
X44323810Y-37157142D01*
X44276190Y-37252380D01*
X44228571Y-37442857D01*
X44180952Y-37538095D01*
X44133333Y-37585714D01*
X44038095Y-37633333D01*
X43942857Y-37633333D01*
X43847619Y-37585714D01*
X43800000Y-37538095D01*
X43752381Y-37442857D01*
X43752381Y-37204761D01*
X43800000Y-37061904D01*
X43752381Y-36728571D02*
X44752381Y-36490476D01*
X44038095Y-36299999D01*
X44752381Y-36109523D01*
X43752381Y-35871428D01*
X44752381Y-34966666D02*
X44752381Y-35538095D01*
X44752381Y-35252381D02*
X43752381Y-35252381D01*
X43895238Y-35347619D01*
X43990476Y-35442857D01*
X44038095Y-35538095D01*
X58916667Y-33364286D02*
X58916667Y-32888095D01*
X59202381Y-33459524D02*
X58202381Y-33126191D01*
X59202381Y-32792857D01*
X59202381Y-31935714D02*
X59202381Y-32507143D01*
X59202381Y-32221429D02*
X58202381Y-32221429D01*
X58345238Y-32316667D01*
X58440476Y-32411905D01*
X58488095Y-32507143D01*
M02*
