M48
INCH,TZ
T1C0.016
T2C0.028
%
G90
G05
T1
X1.8898Y-1.3976
X1.9232Y-1.3976
X1.9232Y-1.4547
X2.1161Y-1.6171
X2.128Y-1.4843
X2.1496Y-1.4094
X2.1516Y-1.6417
X2.187Y-1.5
X2.2146Y-1.3563
X2.2559Y-1.2756
X2.2559Y-1.315
X2.3701Y-1.2441
X2.4252Y-1.4055
X2.4488Y-1.6388
X2.4626Y-1.44
X2.501Y-1.438
X2.5157Y-1.2362
X2.5354Y-1.3888
X2.5374Y-1.5866
X2.5748Y-1.4134
X2.6398Y-1.2894
X2.6398Y-1.3819
X2.6398Y-1.4724
T2
X2.2067Y-1.5571
X2.2224Y-1.4213
X2.2559Y-1.5559
X2.2717Y-1.4213
T0
M30
