G04 #@! TF.FileFunction,Copper,L1,Top,Signal*
%FSLAX46Y46*%
G04 Gerber Fmt 4.6, Leading zero omitted, Abs format (unit mm)*
G04 Created by KiCad (PCBNEW 4.0.1-stable) date 1/23/2016 7:41:23 PM*
%MOMM*%
G01*
G04 APERTURE LIST*
%ADD10C,0.100000*%
%ADD11R,0.500000X0.600000*%
%ADD12R,0.750000X0.800000*%
%ADD13R,0.600000X0.500000*%
%ADD14R,0.800000X0.750000*%
%ADD15R,0.300000X0.300000*%
%ADD16R,0.900000X0.300000*%
%ADD17R,0.300000X0.900000*%
%ADD18R,1.800000X1.800000*%
%ADD19R,0.500000X0.900000*%
%ADD20R,0.449580X0.299720*%
%ADD21R,0.650000X0.850000*%
%ADD22R,0.550000X0.300000*%
%ADD23R,1.300000X1.500000*%
%ADD24R,1.400000X1.600000*%
%ADD25C,0.780000*%
%ADD26C,0.600000*%
%ADD27C,0.250000*%
%ADD28C,0.200000*%
%ADD29C,0.160000*%
%ADD30C,0.254000*%
G04 APERTURE END LIST*
D10*
D11*
X50900000Y-33250000D03*
X50900000Y-34350000D03*
D12*
X52400000Y-33050000D03*
X52400000Y-34550000D03*
D13*
X52650000Y-38200000D03*
X51550000Y-38200000D03*
D14*
X51450000Y-36300000D03*
X52950000Y-36300000D03*
D15*
X61400000Y-36900000D03*
X61400000Y-39400000D03*
D16*
X61700000Y-38900000D03*
X61700000Y-38400000D03*
X61700000Y-37900000D03*
X61700000Y-37400000D03*
D17*
X60900000Y-36600000D03*
X60400000Y-36600000D03*
X59900000Y-36600000D03*
X59400000Y-36600000D03*
D15*
X58900000Y-36900000D03*
D16*
X58600000Y-37400000D03*
X58600000Y-37900000D03*
X58600000Y-38400000D03*
X58600000Y-38900000D03*
D15*
X58900000Y-39400000D03*
D17*
X59400000Y-39700000D03*
X59900000Y-39700000D03*
X60400000Y-39700000D03*
X60900000Y-39700000D03*
D18*
X60150000Y-38150000D03*
D19*
X49500000Y-39000000D03*
X48000000Y-39000000D03*
D20*
X55898960Y-32399620D03*
X55898960Y-33400380D03*
X57301040Y-32399620D03*
X55898960Y-32900000D03*
X57301040Y-33400380D03*
D21*
X48000000Y-35500000D03*
X48850000Y-35500000D03*
X48850000Y-36950000D03*
X48000000Y-36950000D03*
D22*
X60600000Y-33800000D03*
X60600000Y-33300000D03*
X60600000Y-32800000D03*
X60600000Y-32300000D03*
X63250000Y-33800000D03*
X63250000Y-33300000D03*
X63250000Y-32800000D03*
X63250000Y-32300000D03*
D23*
X61925000Y-33050000D03*
D24*
X42650000Y-40050000D03*
X42650000Y-32850000D03*
X45650000Y-32850000D03*
X45650000Y-40050000D03*
D25*
X56450000Y-36100000D03*
X57700000Y-36100000D03*
X57300000Y-39520000D03*
X56050000Y-39550000D03*
D26*
X67050000Y-32750000D03*
X56250000Y-34450000D03*
X61600000Y-35700000D03*
X63900000Y-31400000D03*
X54600000Y-35800000D03*
X60200000Y-31600000D03*
X55550000Y-38100000D03*
X64450000Y-40300000D03*
X54050000Y-37700000D03*
X64400000Y-35275000D03*
X62550000Y-36575000D03*
X54650000Y-41700000D03*
X48000000Y-35500000D03*
X48850000Y-35500000D03*
X62200000Y-41625000D03*
X63525000Y-36525000D03*
X67050000Y-37400000D03*
X57301040Y-33400380D03*
X67050000Y-35100000D03*
X65400000Y-35900000D03*
X57301040Y-32399620D03*
X48850000Y-36950000D03*
X53750000Y-41075000D03*
D27*
X66950000Y-40500000D02*
X65500000Y-40500000D01*
X66800000Y-40400000D02*
X65600000Y-40400000D01*
X66850000Y-40200000D02*
X65600000Y-40200000D01*
X66850000Y-40000000D02*
X65600000Y-40000000D01*
X66750000Y-39800000D02*
X65650000Y-39800000D01*
X66700000Y-39600000D02*
X65700000Y-39600000D01*
X66850000Y-39400000D02*
X65650000Y-39400000D01*
X66800000Y-39200000D02*
X65700000Y-39200000D01*
X66900000Y-39000000D02*
X65700000Y-39000000D01*
X52650000Y-38200000D02*
X52650000Y-38350000D01*
X52650000Y-38350000D02*
X52000000Y-39000000D01*
X52000000Y-39000000D02*
X49500000Y-39000000D01*
D28*
X55898960Y-34098960D02*
X55898960Y-33400380D01*
X56250000Y-34450000D02*
X55898960Y-34098960D01*
X60900000Y-36900000D02*
X60900000Y-36400000D01*
X60900000Y-36400000D02*
X61600000Y-35700000D01*
D27*
X52950000Y-36300000D02*
X53000000Y-36300000D01*
X53000000Y-36300000D02*
X55898960Y-33401040D01*
X55898960Y-33401040D02*
X55898960Y-33400380D01*
X55898580Y-33400000D02*
X55898960Y-33400380D01*
X52950000Y-36300000D02*
X52950000Y-36050000D01*
X52650000Y-38200000D02*
X52650000Y-36600000D01*
X52650000Y-36600000D02*
X52950000Y-36300000D01*
D28*
X54600000Y-36600000D02*
X54900000Y-36900000D01*
X63900000Y-31400000D02*
X63900000Y-32700000D01*
X63250000Y-32800000D02*
X63800000Y-32800000D01*
X63900000Y-32700000D02*
X63800000Y-32800000D01*
X54600000Y-36600000D02*
X54600000Y-35800000D01*
X57325000Y-36900000D02*
X58900000Y-36900000D01*
X54900000Y-36900000D02*
X57325000Y-36900000D01*
X55550000Y-38100000D02*
X56125000Y-38100000D01*
X60900000Y-31600000D02*
X60200000Y-31600000D01*
X56325000Y-37900000D02*
X58900000Y-37900000D01*
X56125000Y-38100000D02*
X56325000Y-37900000D01*
X60850000Y-31600000D02*
X60900000Y-31600000D01*
X60900000Y-31600000D02*
X62550000Y-31600000D01*
X62550000Y-31600000D02*
X63250000Y-32300000D01*
X60600000Y-32300000D02*
X59400000Y-32300000D01*
X59400000Y-32300000D02*
X59100000Y-32000000D01*
D27*
X55898960Y-32900000D02*
X54850000Y-32900000D01*
X54050000Y-37700000D02*
X54600000Y-37700000D01*
X62550000Y-38400000D02*
X64450000Y-40300000D01*
X61400000Y-38400000D02*
X62550000Y-38400000D01*
X54900000Y-37400000D02*
X58900000Y-37400000D01*
X54600000Y-37700000D02*
X54900000Y-37400000D01*
X50900000Y-34350000D02*
X52200000Y-34350000D01*
X52200000Y-34350000D02*
X52400000Y-34550000D01*
D28*
X52400000Y-34550000D02*
X52650000Y-34550000D01*
D27*
X52400000Y-34550000D02*
X52400000Y-34400000D01*
X51550000Y-36400000D02*
X51450000Y-36300000D01*
X52200000Y-34350000D02*
X52400000Y-34550000D01*
D28*
X61400000Y-36900000D02*
X62225000Y-36900000D01*
X64700000Y-34975000D02*
X64700000Y-33375000D01*
X64400000Y-35275000D02*
X64700000Y-34975000D01*
X62225000Y-36900000D02*
X62550000Y-36575000D01*
X64500000Y-33600000D02*
X64700000Y-33400000D01*
X64500000Y-33600000D02*
X64300000Y-33800000D01*
X63250000Y-33800000D02*
X64300000Y-33800000D01*
X52400000Y-31900000D02*
X52400000Y-33050000D01*
X53700000Y-30600000D02*
X61900000Y-30600000D01*
X52400000Y-31900000D02*
X53700000Y-30600000D01*
X61900000Y-30600000D02*
X64000000Y-30600000D01*
X64100000Y-30600000D02*
X64000000Y-30600000D01*
X64700000Y-31200000D02*
X64100000Y-30600000D01*
X64700000Y-33400000D02*
X64700000Y-33300000D01*
X64700000Y-33300000D02*
X64700000Y-31200000D01*
D27*
X50900000Y-33250000D02*
X52200000Y-33250000D01*
X52200000Y-33250000D02*
X52400000Y-33050000D01*
D29*
X61750000Y-39950000D02*
X61750000Y-40800000D01*
X61750000Y-40800000D02*
X60850000Y-41700000D01*
X60850000Y-41700000D02*
X54650000Y-41700000D01*
X61400000Y-39400000D02*
X61400000Y-39525000D01*
X61400000Y-39525000D02*
X61750000Y-39875000D01*
X62900000Y-39700000D02*
X62900000Y-40925000D01*
X62900000Y-40925000D02*
X62200000Y-41625000D01*
X61400000Y-38900000D02*
X62175000Y-38900000D01*
X62175000Y-38900000D02*
X62900000Y-39625000D01*
X62400000Y-35600000D02*
X62600000Y-35600000D01*
X61800000Y-35000000D02*
X62400000Y-35600000D01*
X57301040Y-33400380D02*
X59100380Y-33400380D01*
X60000000Y-35000000D02*
X61800000Y-35000000D01*
X59400000Y-34400000D02*
X60000000Y-35000000D01*
X59400000Y-33700000D02*
X59400000Y-34400000D01*
X59100380Y-33400380D02*
X59400000Y-33700000D01*
X62600000Y-35600000D02*
X63525000Y-36525000D01*
X61400000Y-37400000D02*
X63275000Y-37400000D01*
X63525000Y-36525000D02*
X63525000Y-37150000D01*
X63525000Y-37150000D02*
X63275000Y-37400000D01*
X64150000Y-36100000D02*
X64150000Y-36050000D01*
X64300000Y-35900000D02*
X65400000Y-35900000D01*
X64150000Y-36050000D02*
X64300000Y-35900000D01*
X63425000Y-37900000D02*
X64150000Y-37175000D01*
X64150000Y-36075000D02*
X64150000Y-36100000D01*
X64150000Y-36100000D02*
X64150000Y-37175000D01*
X63425000Y-37900000D02*
X61400000Y-37900000D01*
X62575000Y-35225000D02*
X63300000Y-35225000D01*
X57301040Y-32399620D02*
X57699620Y-32399620D01*
X60100000Y-34500000D02*
X61850000Y-34500000D01*
X59800000Y-34200000D02*
X60100000Y-34500000D01*
X59800000Y-33200000D02*
X59800000Y-34200000D01*
X59400000Y-32800000D02*
X59800000Y-33200000D01*
X58100000Y-32800000D02*
X59400000Y-32800000D01*
X57699620Y-32399620D02*
X58100000Y-32800000D01*
X61850000Y-34500000D02*
X62575000Y-35225000D01*
X63300000Y-35225000D02*
X64150000Y-36075000D01*
D27*
X42650000Y-32850000D02*
X42650000Y-40050000D01*
D29*
X44100000Y-41400000D02*
X52000000Y-41400000D01*
X42750000Y-40050000D02*
X44100000Y-41400000D01*
X56475000Y-38400000D02*
X58900000Y-38400000D01*
X56150000Y-38725000D02*
X56475000Y-38400000D01*
X54675000Y-38725000D02*
X56150000Y-38725000D01*
X52000000Y-41400000D02*
X54675000Y-38725000D01*
X58900000Y-38400000D02*
X58900000Y-38900000D01*
X42650000Y-40050000D02*
X42750000Y-40050000D01*
D27*
X48000000Y-39000000D02*
X48000000Y-36950000D01*
D29*
X56460000Y-36075000D02*
X56450000Y-35400000D01*
X59900000Y-35875000D02*
X59900000Y-36900000D01*
X59625000Y-35600000D02*
X59900000Y-35875000D01*
X59625000Y-35400000D02*
X59625000Y-35600000D01*
X58950000Y-34725000D02*
X59625000Y-35400000D01*
X57125000Y-34725000D02*
X58950000Y-34725000D01*
X56450000Y-35400000D02*
X57125000Y-34725000D01*
X57700000Y-36100000D02*
X58900000Y-36100000D01*
X58900000Y-36100000D02*
X59400000Y-36600000D01*
X59400000Y-36900000D02*
X59400000Y-36525000D01*
X59400000Y-36400000D02*
X59400000Y-36900000D01*
X60900000Y-40875000D02*
X60700000Y-41075000D01*
X60700000Y-41075000D02*
X53750000Y-41075000D01*
X60900000Y-40875000D02*
X60900000Y-39475000D01*
X57930000Y-39520000D02*
X58150000Y-39520000D01*
X57300000Y-39520000D02*
X57930000Y-39520000D01*
X59080000Y-39960000D02*
X59400000Y-39640000D01*
X58590000Y-39960000D02*
X59080000Y-39960000D01*
X58150000Y-39520000D02*
X58590000Y-39960000D01*
X59400000Y-39640000D02*
X59400000Y-39400000D01*
X59400000Y-39700000D02*
X59400000Y-39400000D01*
X56050000Y-39550000D02*
X56050000Y-39875000D01*
X56050000Y-39875000D02*
X56675000Y-40500000D01*
X56675000Y-40500000D02*
X59600000Y-40500000D01*
X59900000Y-39400000D02*
X59900000Y-40200000D01*
X59600000Y-40500000D02*
X59900000Y-40200000D01*
D30*
G36*
X74623000Y-33623000D02*
X66677000Y-33623000D01*
X66677000Y-31877000D01*
X74623000Y-31877000D01*
X74623000Y-33623000D01*
X74623000Y-33623000D01*
G37*
X74623000Y-33623000D02*
X66677000Y-33623000D01*
X66677000Y-31877000D01*
X74623000Y-31877000D01*
X74623000Y-33623000D01*
G36*
X74123000Y-35973000D02*
X66677000Y-35973000D01*
X66677000Y-34227000D01*
X74123000Y-34227000D01*
X74123000Y-35973000D01*
X74123000Y-35973000D01*
G37*
X74123000Y-35973000D02*
X66677000Y-35973000D01*
X66677000Y-34227000D01*
X74123000Y-34227000D01*
X74123000Y-35973000D01*
G36*
X74123000Y-38273000D02*
X66677000Y-38273000D01*
X66677000Y-36527000D01*
X74123000Y-36527000D01*
X74123000Y-38273000D01*
X74123000Y-38273000D01*
G37*
X74123000Y-38273000D02*
X66677000Y-38273000D01*
X66677000Y-36527000D01*
X74123000Y-36527000D01*
X74123000Y-38273000D01*
G36*
X64869673Y-36692192D02*
X65213201Y-36834838D01*
X65585167Y-36835162D01*
X65873000Y-36716232D01*
X65873000Y-41540000D01*
X63296163Y-41540000D01*
X63405581Y-41430582D01*
X63560574Y-41198619D01*
X63566332Y-41169673D01*
X63615000Y-40925000D01*
X63615000Y-39700000D01*
X63607541Y-39662500D01*
X63615000Y-39625000D01*
X63560574Y-39351382D01*
X63405581Y-39119419D01*
X62901162Y-38615000D01*
X63425000Y-38615000D01*
X63698619Y-38560574D01*
X63930581Y-38405581D01*
X64655581Y-37680581D01*
X64660233Y-37673619D01*
X64810574Y-37448619D01*
X64865000Y-37175000D01*
X64865000Y-36687511D01*
X64869673Y-36692192D01*
X64869673Y-36692192D01*
G37*
X64869673Y-36692192D02*
X65213201Y-36834838D01*
X65585167Y-36835162D01*
X65873000Y-36716232D01*
X65873000Y-41540000D01*
X63296163Y-41540000D01*
X63405581Y-41430582D01*
X63560574Y-41198619D01*
X63566332Y-41169673D01*
X63615000Y-40925000D01*
X63615000Y-39700000D01*
X63607541Y-39662500D01*
X63615000Y-39625000D01*
X63560574Y-39351382D01*
X63405581Y-39119419D01*
X62901162Y-38615000D01*
X63425000Y-38615000D01*
X63698619Y-38560574D01*
X63930581Y-38405581D01*
X64655581Y-37680581D01*
X64660233Y-37673619D01*
X64810574Y-37448619D01*
X64865000Y-37175000D01*
X64865000Y-36687511D01*
X64869673Y-36692192D01*
G36*
X51880277Y-31380277D02*
X51720949Y-31618728D01*
X51665000Y-31900000D01*
X51665000Y-32127069D01*
X51573559Y-32185910D01*
X51440825Y-32380172D01*
X51401890Y-32353569D01*
X51150000Y-32302560D01*
X50650000Y-32302560D01*
X50414683Y-32346838D01*
X50198559Y-32485910D01*
X50053569Y-32698110D01*
X50002560Y-32950000D01*
X50002560Y-33550000D01*
X50046838Y-33785317D01*
X50062339Y-33809406D01*
X50015000Y-33923691D01*
X50015000Y-34064250D01*
X50173750Y-34223000D01*
X50775000Y-34223000D01*
X50775000Y-34203000D01*
X51025000Y-34203000D01*
X51025000Y-34223000D01*
X51047000Y-34223000D01*
X51047000Y-34477000D01*
X51025000Y-34477000D01*
X51025000Y-35126250D01*
X51183750Y-35285000D01*
X51276310Y-35285000D01*
X51447134Y-35214242D01*
X51486673Y-35309698D01*
X51601362Y-35424388D01*
X51577000Y-35448750D01*
X51577000Y-36173000D01*
X51597000Y-36173000D01*
X51597000Y-36427000D01*
X51577000Y-36427000D01*
X51577000Y-37151250D01*
X51735750Y-37310000D01*
X51890000Y-37310000D01*
X51890000Y-37315000D01*
X51835750Y-37315000D01*
X51677000Y-37473750D01*
X51677000Y-38075000D01*
X51697000Y-38075000D01*
X51697000Y-38228198D01*
X51685198Y-38240000D01*
X50305105Y-38240000D01*
X50214090Y-38098559D01*
X50001890Y-37953569D01*
X49750000Y-37902560D01*
X49527806Y-37902560D01*
X49626441Y-37839090D01*
X49636963Y-37823690D01*
X50615000Y-37823690D01*
X50615000Y-37916250D01*
X50773750Y-38075000D01*
X51423000Y-38075000D01*
X51423000Y-37473750D01*
X51264250Y-37315000D01*
X51123691Y-37315000D01*
X50890302Y-37411673D01*
X50711673Y-37590301D01*
X50615000Y-37823690D01*
X49636963Y-37823690D01*
X49771431Y-37626890D01*
X49822440Y-37375000D01*
X49822440Y-36585750D01*
X50415000Y-36585750D01*
X50415000Y-36801310D01*
X50511673Y-37034699D01*
X50690302Y-37213327D01*
X50923691Y-37310000D01*
X51164250Y-37310000D01*
X51323000Y-37151250D01*
X51323000Y-36427000D01*
X50573750Y-36427000D01*
X50415000Y-36585750D01*
X49822440Y-36585750D01*
X49822440Y-36525000D01*
X49778162Y-36289683D01*
X49737519Y-36226522D01*
X49771431Y-36176890D01*
X49822440Y-35925000D01*
X49822440Y-35798690D01*
X50415000Y-35798690D01*
X50415000Y-36014250D01*
X50573750Y-36173000D01*
X51323000Y-36173000D01*
X51323000Y-35448750D01*
X51164250Y-35290000D01*
X50923691Y-35290000D01*
X50690302Y-35386673D01*
X50511673Y-35565301D01*
X50415000Y-35798690D01*
X49822440Y-35798690D01*
X49822440Y-35075000D01*
X49778162Y-34839683D01*
X49646935Y-34635750D01*
X50015000Y-34635750D01*
X50015000Y-34776309D01*
X50111673Y-35009698D01*
X50290301Y-35188327D01*
X50523690Y-35285000D01*
X50616250Y-35285000D01*
X50775000Y-35126250D01*
X50775000Y-34477000D01*
X50173750Y-34477000D01*
X50015000Y-34635750D01*
X49646935Y-34635750D01*
X49639090Y-34623559D01*
X49426890Y-34478569D01*
X49175000Y-34427560D01*
X48525000Y-34427560D01*
X48421329Y-34447067D01*
X48325000Y-34427560D01*
X47675000Y-34427560D01*
X47439683Y-34471838D01*
X47223559Y-34610910D01*
X47078569Y-34823110D01*
X47027560Y-35075000D01*
X47027560Y-35925000D01*
X47071838Y-36160317D01*
X47112481Y-36223478D01*
X47078569Y-36273110D01*
X47027560Y-36525000D01*
X47027560Y-37375000D01*
X47071838Y-37610317D01*
X47210910Y-37826441D01*
X47240000Y-37846317D01*
X47240000Y-38171614D01*
X47153569Y-38298110D01*
X47102560Y-38550000D01*
X47102560Y-39450000D01*
X47146838Y-39685317D01*
X47285910Y-39901441D01*
X47498110Y-40046431D01*
X47750000Y-40097440D01*
X48250000Y-40097440D01*
X48485317Y-40053162D01*
X48701441Y-39914090D01*
X48749134Y-39844289D01*
X48785910Y-39901441D01*
X48998110Y-40046431D01*
X49250000Y-40097440D01*
X49750000Y-40097440D01*
X49985317Y-40053162D01*
X50201441Y-39914090D01*
X50306726Y-39760000D01*
X52000000Y-39760000D01*
X52290839Y-39702148D01*
X52537401Y-39537401D01*
X52983704Y-39091098D01*
X53185317Y-39053162D01*
X53401441Y-38914090D01*
X53546431Y-38701890D01*
X53597440Y-38450000D01*
X53597440Y-37950000D01*
X53553162Y-37714683D01*
X53414090Y-37498559D01*
X53410000Y-37495764D01*
X53410000Y-37311150D01*
X53585317Y-37278162D01*
X53801441Y-37139090D01*
X53946431Y-36926890D01*
X53947594Y-36921149D01*
X54080277Y-37119723D01*
X54380276Y-37419723D01*
X54575250Y-37550000D01*
X54618728Y-37579051D01*
X54743600Y-37603890D01*
X54615162Y-37913201D01*
X54615067Y-38021921D01*
X54401381Y-38064426D01*
X54169418Y-38219419D01*
X51703838Y-40685000D01*
X46985000Y-40685000D01*
X46985000Y-40335750D01*
X46826250Y-40177000D01*
X45777000Y-40177000D01*
X45777000Y-40197000D01*
X45523000Y-40197000D01*
X45523000Y-40177000D01*
X44473750Y-40177000D01*
X44315000Y-40335750D01*
X44315000Y-40603837D01*
X43997440Y-40286277D01*
X43997440Y-39250000D01*
X43973674Y-39123691D01*
X44315000Y-39123691D01*
X44315000Y-39764250D01*
X44473750Y-39923000D01*
X45523000Y-39923000D01*
X45523000Y-38773750D01*
X45777000Y-38773750D01*
X45777000Y-39923000D01*
X46826250Y-39923000D01*
X46985000Y-39764250D01*
X46985000Y-39123691D01*
X46888327Y-38890302D01*
X46709699Y-38711673D01*
X46476310Y-38615000D01*
X45935750Y-38615000D01*
X45777000Y-38773750D01*
X45523000Y-38773750D01*
X45364250Y-38615000D01*
X44823690Y-38615000D01*
X44590301Y-38711673D01*
X44411673Y-38890302D01*
X44315000Y-39123691D01*
X43973674Y-39123691D01*
X43953162Y-39014683D01*
X43814090Y-38798559D01*
X43601890Y-38653569D01*
X43410000Y-38614710D01*
X43410000Y-34286150D01*
X43585317Y-34253162D01*
X43801441Y-34114090D01*
X43946431Y-33901890D01*
X43997440Y-33650000D01*
X43997440Y-33135750D01*
X44315000Y-33135750D01*
X44315000Y-33776309D01*
X44411673Y-34009698D01*
X44590301Y-34188327D01*
X44823690Y-34285000D01*
X45364250Y-34285000D01*
X45523000Y-34126250D01*
X45523000Y-32977000D01*
X45777000Y-32977000D01*
X45777000Y-34126250D01*
X45935750Y-34285000D01*
X46476310Y-34285000D01*
X46709699Y-34188327D01*
X46888327Y-34009698D01*
X46985000Y-33776309D01*
X46985000Y-33135750D01*
X46826250Y-32977000D01*
X45777000Y-32977000D01*
X45523000Y-32977000D01*
X44473750Y-32977000D01*
X44315000Y-33135750D01*
X43997440Y-33135750D01*
X43997440Y-32050000D01*
X43973674Y-31923691D01*
X44315000Y-31923691D01*
X44315000Y-32564250D01*
X44473750Y-32723000D01*
X45523000Y-32723000D01*
X45523000Y-31573750D01*
X45777000Y-31573750D01*
X45777000Y-32723000D01*
X46826250Y-32723000D01*
X46985000Y-32564250D01*
X46985000Y-31923691D01*
X46888327Y-31690302D01*
X46709699Y-31511673D01*
X46476310Y-31415000D01*
X45935750Y-31415000D01*
X45777000Y-31573750D01*
X45523000Y-31573750D01*
X45364250Y-31415000D01*
X44823690Y-31415000D01*
X44590301Y-31511673D01*
X44411673Y-31690302D01*
X44315000Y-31923691D01*
X43973674Y-31923691D01*
X43953162Y-31814683D01*
X43814090Y-31598559D01*
X43601890Y-31453569D01*
X43350000Y-31402560D01*
X41950000Y-31402560D01*
X41714683Y-31446838D01*
X41498559Y-31585910D01*
X41353569Y-31798110D01*
X41302560Y-32050000D01*
X41302560Y-33650000D01*
X41346838Y-33885317D01*
X41485910Y-34101441D01*
X41698110Y-34246431D01*
X41890000Y-34285290D01*
X41890000Y-38613850D01*
X41714683Y-38646838D01*
X41498559Y-38785910D01*
X41353569Y-38998110D01*
X41302560Y-39250000D01*
X41302560Y-40850000D01*
X41346838Y-41085317D01*
X41485910Y-41301441D01*
X41698110Y-41446431D01*
X41950000Y-41497440D01*
X43186277Y-41497440D01*
X43228837Y-41540000D01*
X34710000Y-41540000D01*
X34710000Y-36250000D01*
X35040000Y-36250000D01*
X35265317Y-37382743D01*
X35906964Y-38343036D01*
X36867257Y-38984683D01*
X38000000Y-39210000D01*
X39132743Y-38984683D01*
X40093036Y-38343036D01*
X40734683Y-37382743D01*
X40960000Y-36250000D01*
X40734683Y-35117257D01*
X40093036Y-34156964D01*
X39132743Y-33515317D01*
X38000000Y-33290000D01*
X36867257Y-33515317D01*
X35906964Y-34156964D01*
X35265317Y-35117257D01*
X35040000Y-36250000D01*
X34710000Y-36250000D01*
X34710000Y-30960000D01*
X52300554Y-30960000D01*
X51880277Y-31380277D01*
X51880277Y-31380277D01*
G37*
X51880277Y-31380277D02*
X51720949Y-31618728D01*
X51665000Y-31900000D01*
X51665000Y-32127069D01*
X51573559Y-32185910D01*
X51440825Y-32380172D01*
X51401890Y-32353569D01*
X51150000Y-32302560D01*
X50650000Y-32302560D01*
X50414683Y-32346838D01*
X50198559Y-32485910D01*
X50053569Y-32698110D01*
X50002560Y-32950000D01*
X50002560Y-33550000D01*
X50046838Y-33785317D01*
X50062339Y-33809406D01*
X50015000Y-33923691D01*
X50015000Y-34064250D01*
X50173750Y-34223000D01*
X50775000Y-34223000D01*
X50775000Y-34203000D01*
X51025000Y-34203000D01*
X51025000Y-34223000D01*
X51047000Y-34223000D01*
X51047000Y-34477000D01*
X51025000Y-34477000D01*
X51025000Y-35126250D01*
X51183750Y-35285000D01*
X51276310Y-35285000D01*
X51447134Y-35214242D01*
X51486673Y-35309698D01*
X51601362Y-35424388D01*
X51577000Y-35448750D01*
X51577000Y-36173000D01*
X51597000Y-36173000D01*
X51597000Y-36427000D01*
X51577000Y-36427000D01*
X51577000Y-37151250D01*
X51735750Y-37310000D01*
X51890000Y-37310000D01*
X51890000Y-37315000D01*
X51835750Y-37315000D01*
X51677000Y-37473750D01*
X51677000Y-38075000D01*
X51697000Y-38075000D01*
X51697000Y-38228198D01*
X51685198Y-38240000D01*
X50305105Y-38240000D01*
X50214090Y-38098559D01*
X50001890Y-37953569D01*
X49750000Y-37902560D01*
X49527806Y-37902560D01*
X49626441Y-37839090D01*
X49636963Y-37823690D01*
X50615000Y-37823690D01*
X50615000Y-37916250D01*
X50773750Y-38075000D01*
X51423000Y-38075000D01*
X51423000Y-37473750D01*
X51264250Y-37315000D01*
X51123691Y-37315000D01*
X50890302Y-37411673D01*
X50711673Y-37590301D01*
X50615000Y-37823690D01*
X49636963Y-37823690D01*
X49771431Y-37626890D01*
X49822440Y-37375000D01*
X49822440Y-36585750D01*
X50415000Y-36585750D01*
X50415000Y-36801310D01*
X50511673Y-37034699D01*
X50690302Y-37213327D01*
X50923691Y-37310000D01*
X51164250Y-37310000D01*
X51323000Y-37151250D01*
X51323000Y-36427000D01*
X50573750Y-36427000D01*
X50415000Y-36585750D01*
X49822440Y-36585750D01*
X49822440Y-36525000D01*
X49778162Y-36289683D01*
X49737519Y-36226522D01*
X49771431Y-36176890D01*
X49822440Y-35925000D01*
X49822440Y-35798690D01*
X50415000Y-35798690D01*
X50415000Y-36014250D01*
X50573750Y-36173000D01*
X51323000Y-36173000D01*
X51323000Y-35448750D01*
X51164250Y-35290000D01*
X50923691Y-35290000D01*
X50690302Y-35386673D01*
X50511673Y-35565301D01*
X50415000Y-35798690D01*
X49822440Y-35798690D01*
X49822440Y-35075000D01*
X49778162Y-34839683D01*
X49646935Y-34635750D01*
X50015000Y-34635750D01*
X50015000Y-34776309D01*
X50111673Y-35009698D01*
X50290301Y-35188327D01*
X50523690Y-35285000D01*
X50616250Y-35285000D01*
X50775000Y-35126250D01*
X50775000Y-34477000D01*
X50173750Y-34477000D01*
X50015000Y-34635750D01*
X49646935Y-34635750D01*
X49639090Y-34623559D01*
X49426890Y-34478569D01*
X49175000Y-34427560D01*
X48525000Y-34427560D01*
X48421329Y-34447067D01*
X48325000Y-34427560D01*
X47675000Y-34427560D01*
X47439683Y-34471838D01*
X47223559Y-34610910D01*
X47078569Y-34823110D01*
X47027560Y-35075000D01*
X47027560Y-35925000D01*
X47071838Y-36160317D01*
X47112481Y-36223478D01*
X47078569Y-36273110D01*
X47027560Y-36525000D01*
X47027560Y-37375000D01*
X47071838Y-37610317D01*
X47210910Y-37826441D01*
X47240000Y-37846317D01*
X47240000Y-38171614D01*
X47153569Y-38298110D01*
X47102560Y-38550000D01*
X47102560Y-39450000D01*
X47146838Y-39685317D01*
X47285910Y-39901441D01*
X47498110Y-40046431D01*
X47750000Y-40097440D01*
X48250000Y-40097440D01*
X48485317Y-40053162D01*
X48701441Y-39914090D01*
X48749134Y-39844289D01*
X48785910Y-39901441D01*
X48998110Y-40046431D01*
X49250000Y-40097440D01*
X49750000Y-40097440D01*
X49985317Y-40053162D01*
X50201441Y-39914090D01*
X50306726Y-39760000D01*
X52000000Y-39760000D01*
X52290839Y-39702148D01*
X52537401Y-39537401D01*
X52983704Y-39091098D01*
X53185317Y-39053162D01*
X53401441Y-38914090D01*
X53546431Y-38701890D01*
X53597440Y-38450000D01*
X53597440Y-37950000D01*
X53553162Y-37714683D01*
X53414090Y-37498559D01*
X53410000Y-37495764D01*
X53410000Y-37311150D01*
X53585317Y-37278162D01*
X53801441Y-37139090D01*
X53946431Y-36926890D01*
X53947594Y-36921149D01*
X54080277Y-37119723D01*
X54380276Y-37419723D01*
X54575250Y-37550000D01*
X54618728Y-37579051D01*
X54743600Y-37603890D01*
X54615162Y-37913201D01*
X54615067Y-38021921D01*
X54401381Y-38064426D01*
X54169418Y-38219419D01*
X51703838Y-40685000D01*
X46985000Y-40685000D01*
X46985000Y-40335750D01*
X46826250Y-40177000D01*
X45777000Y-40177000D01*
X45777000Y-40197000D01*
X45523000Y-40197000D01*
X45523000Y-40177000D01*
X44473750Y-40177000D01*
X44315000Y-40335750D01*
X44315000Y-40603837D01*
X43997440Y-40286277D01*
X43997440Y-39250000D01*
X43973674Y-39123691D01*
X44315000Y-39123691D01*
X44315000Y-39764250D01*
X44473750Y-39923000D01*
X45523000Y-39923000D01*
X45523000Y-38773750D01*
X45777000Y-38773750D01*
X45777000Y-39923000D01*
X46826250Y-39923000D01*
X46985000Y-39764250D01*
X46985000Y-39123691D01*
X46888327Y-38890302D01*
X46709699Y-38711673D01*
X46476310Y-38615000D01*
X45935750Y-38615000D01*
X45777000Y-38773750D01*
X45523000Y-38773750D01*
X45364250Y-38615000D01*
X44823690Y-38615000D01*
X44590301Y-38711673D01*
X44411673Y-38890302D01*
X44315000Y-39123691D01*
X43973674Y-39123691D01*
X43953162Y-39014683D01*
X43814090Y-38798559D01*
X43601890Y-38653569D01*
X43410000Y-38614710D01*
X43410000Y-34286150D01*
X43585317Y-34253162D01*
X43801441Y-34114090D01*
X43946431Y-33901890D01*
X43997440Y-33650000D01*
X43997440Y-33135750D01*
X44315000Y-33135750D01*
X44315000Y-33776309D01*
X44411673Y-34009698D01*
X44590301Y-34188327D01*
X44823690Y-34285000D01*
X45364250Y-34285000D01*
X45523000Y-34126250D01*
X45523000Y-32977000D01*
X45777000Y-32977000D01*
X45777000Y-34126250D01*
X45935750Y-34285000D01*
X46476310Y-34285000D01*
X46709699Y-34188327D01*
X46888327Y-34009698D01*
X46985000Y-33776309D01*
X46985000Y-33135750D01*
X46826250Y-32977000D01*
X45777000Y-32977000D01*
X45523000Y-32977000D01*
X44473750Y-32977000D01*
X44315000Y-33135750D01*
X43997440Y-33135750D01*
X43997440Y-32050000D01*
X43973674Y-31923691D01*
X44315000Y-31923691D01*
X44315000Y-32564250D01*
X44473750Y-32723000D01*
X45523000Y-32723000D01*
X45523000Y-31573750D01*
X45777000Y-31573750D01*
X45777000Y-32723000D01*
X46826250Y-32723000D01*
X46985000Y-32564250D01*
X46985000Y-31923691D01*
X46888327Y-31690302D01*
X46709699Y-31511673D01*
X46476310Y-31415000D01*
X45935750Y-31415000D01*
X45777000Y-31573750D01*
X45523000Y-31573750D01*
X45364250Y-31415000D01*
X44823690Y-31415000D01*
X44590301Y-31511673D01*
X44411673Y-31690302D01*
X44315000Y-31923691D01*
X43973674Y-31923691D01*
X43953162Y-31814683D01*
X43814090Y-31598559D01*
X43601890Y-31453569D01*
X43350000Y-31402560D01*
X41950000Y-31402560D01*
X41714683Y-31446838D01*
X41498559Y-31585910D01*
X41353569Y-31798110D01*
X41302560Y-32050000D01*
X41302560Y-33650000D01*
X41346838Y-33885317D01*
X41485910Y-34101441D01*
X41698110Y-34246431D01*
X41890000Y-34285290D01*
X41890000Y-38613850D01*
X41714683Y-38646838D01*
X41498559Y-38785910D01*
X41353569Y-38998110D01*
X41302560Y-39250000D01*
X41302560Y-40850000D01*
X41346838Y-41085317D01*
X41485910Y-41301441D01*
X41698110Y-41446431D01*
X41950000Y-41497440D01*
X43186277Y-41497440D01*
X43228837Y-41540000D01*
X34710000Y-41540000D01*
X34710000Y-36250000D01*
X35040000Y-36250000D01*
X35265317Y-37382743D01*
X35906964Y-38343036D01*
X36867257Y-38984683D01*
X38000000Y-39210000D01*
X39132743Y-38984683D01*
X40093036Y-38343036D01*
X40734683Y-37382743D01*
X40960000Y-36250000D01*
X40734683Y-35117257D01*
X40093036Y-34156964D01*
X39132743Y-33515317D01*
X38000000Y-33290000D01*
X36867257Y-33515317D01*
X35906964Y-34156964D01*
X35265317Y-35117257D01*
X35040000Y-36250000D01*
X34710000Y-36250000D01*
X34710000Y-30960000D01*
X52300554Y-30960000D01*
X51880277Y-31380277D01*
G36*
X59265162Y-31413201D02*
X59264838Y-31785167D01*
X59388726Y-32085000D01*
X58396162Y-32085000D01*
X58205201Y-31894039D01*
X57973239Y-31739046D01*
X57960158Y-31736444D01*
X57831367Y-31607428D01*
X57487839Y-31464782D01*
X57115873Y-31464458D01*
X56772097Y-31606503D01*
X56583154Y-31795117D01*
X56375640Y-31653329D01*
X56123750Y-31602320D01*
X55674170Y-31602320D01*
X55438853Y-31646598D01*
X55222729Y-31785670D01*
X55077739Y-31997870D01*
X55026730Y-32249760D01*
X55026730Y-32549480D01*
X55040236Y-32621257D01*
X55039170Y-32623830D01*
X55039170Y-32666320D01*
X55050927Y-32678077D01*
X55071008Y-32784797D01*
X55145135Y-32899993D01*
X55077739Y-32998630D01*
X55053240Y-33119610D01*
X55039170Y-33133680D01*
X55039170Y-33176170D01*
X55040927Y-33180412D01*
X55039947Y-33185251D01*
X53399724Y-34825474D01*
X53251250Y-34677000D01*
X52527000Y-34677000D01*
X52527000Y-34697000D01*
X52273000Y-34697000D01*
X52273000Y-34677000D01*
X52253000Y-34677000D01*
X52253000Y-34423000D01*
X52273000Y-34423000D01*
X52273000Y-34403000D01*
X52527000Y-34403000D01*
X52527000Y-34423000D01*
X53251250Y-34423000D01*
X53410000Y-34264250D01*
X53410000Y-34023691D01*
X53313327Y-33790302D01*
X53311957Y-33788932D01*
X53371431Y-33701890D01*
X53422440Y-33450000D01*
X53422440Y-32650000D01*
X53378162Y-32414683D01*
X53239090Y-32198559D01*
X53180750Y-32158697D01*
X54004447Y-31335000D01*
X59297634Y-31335000D01*
X59265162Y-31413201D01*
X59265162Y-31413201D01*
G37*
X59265162Y-31413201D02*
X59264838Y-31785167D01*
X59388726Y-32085000D01*
X58396162Y-32085000D01*
X58205201Y-31894039D01*
X57973239Y-31739046D01*
X57960158Y-31736444D01*
X57831367Y-31607428D01*
X57487839Y-31464782D01*
X57115873Y-31464458D01*
X56772097Y-31606503D01*
X56583154Y-31795117D01*
X56375640Y-31653329D01*
X56123750Y-31602320D01*
X55674170Y-31602320D01*
X55438853Y-31646598D01*
X55222729Y-31785670D01*
X55077739Y-31997870D01*
X55026730Y-32249760D01*
X55026730Y-32549480D01*
X55040236Y-32621257D01*
X55039170Y-32623830D01*
X55039170Y-32666320D01*
X55050927Y-32678077D01*
X55071008Y-32784797D01*
X55145135Y-32899993D01*
X55077739Y-32998630D01*
X55053240Y-33119610D01*
X55039170Y-33133680D01*
X55039170Y-33176170D01*
X55040927Y-33180412D01*
X55039947Y-33185251D01*
X53399724Y-34825474D01*
X53251250Y-34677000D01*
X52527000Y-34677000D01*
X52527000Y-34697000D01*
X52273000Y-34697000D01*
X52273000Y-34677000D01*
X52253000Y-34677000D01*
X52253000Y-34423000D01*
X52273000Y-34423000D01*
X52273000Y-34403000D01*
X52527000Y-34403000D01*
X52527000Y-34423000D01*
X53251250Y-34423000D01*
X53410000Y-34264250D01*
X53410000Y-34023691D01*
X53313327Y-33790302D01*
X53311957Y-33788932D01*
X53371431Y-33701890D01*
X53422440Y-33450000D01*
X53422440Y-32650000D01*
X53378162Y-32414683D01*
X53239090Y-32198559D01*
X53180750Y-32158697D01*
X54004447Y-31335000D01*
X59297634Y-31335000D01*
X59265162Y-31413201D01*
M02*
