G04 #@! TF.FileFunction,Copper,L1,Top,Signal*
%FSLAX46Y46*%
G04 Gerber Fmt 4.6, Leading zero omitted, Abs format (unit mm)*
G04 Created by KiCad (PCBNEW 4.0.1-3.201512221402+6198~38~ubuntu15.04.1-stable) date Sat 02 Jan 2016 06:06:27 PM EST*
%MOMM*%
G01*
G04 APERTURE LIST*
%ADD10C,0.100000*%
%ADD11C,1.524000*%
%ADD12R,1.143000X0.508000*%
%ADD13R,0.500000X0.600000*%
%ADD14R,0.750000X0.800000*%
%ADD15R,0.600000X0.500000*%
%ADD16R,0.800000X0.750000*%
%ADD17R,0.300000X0.300000*%
%ADD18R,0.900000X0.300000*%
%ADD19R,0.300000X0.900000*%
%ADD20R,1.800000X1.800000*%
%ADD21R,0.500000X0.900000*%
%ADD22R,0.449580X0.299720*%
%ADD23R,0.650000X0.850000*%
%ADD24C,0.600000*%
%ADD25C,0.250000*%
%ADD26C,0.254000*%
G04 APERTURE END LIST*
D10*
D11*
X40000000Y-38000000D03*
X35500000Y-38000000D03*
X40000000Y-31500000D03*
X35500000Y-31500000D03*
D12*
X57455000Y-40675000D03*
X57455000Y-39405000D03*
X57455000Y-38135000D03*
X57455000Y-36865000D03*
X63805000Y-36865000D03*
X63805000Y-38135000D03*
X63805000Y-39405000D03*
X63805000Y-40675000D03*
D13*
X48000000Y-34800000D03*
X48000000Y-33700000D03*
D14*
X46250000Y-35000000D03*
X46250000Y-33500000D03*
D15*
X53700000Y-39230000D03*
X54800000Y-39230000D03*
D16*
X55000000Y-37520000D03*
X53500000Y-37520000D03*
D17*
X53010000Y-35480000D03*
X53010000Y-32980000D03*
D18*
X52710000Y-33480000D03*
X52710000Y-33980000D03*
X52710000Y-34480000D03*
X52710000Y-34980000D03*
D19*
X53510000Y-35780000D03*
X54010000Y-35780000D03*
X54510000Y-35780000D03*
X55010000Y-35780000D03*
D17*
X55510000Y-35480000D03*
D18*
X55810000Y-34980000D03*
X55810000Y-34480000D03*
X55810000Y-33980000D03*
X55810000Y-33480000D03*
D17*
X55510000Y-32980000D03*
D19*
X55010000Y-32680000D03*
X54510000Y-32680000D03*
X54010000Y-32680000D03*
X53510000Y-32680000D03*
D20*
X54260000Y-34230000D03*
D21*
X46220000Y-40220000D03*
X44720000Y-40220000D03*
D22*
X50461040Y-38530380D03*
X50461040Y-37529620D03*
X49058960Y-38530380D03*
X50461040Y-38030000D03*
X49058960Y-37529620D03*
D23*
X43000000Y-35500000D03*
X43850000Y-35500000D03*
X43850000Y-36950000D03*
X43000000Y-36950000D03*
D24*
X59600000Y-37460000D03*
X46200000Y-40240000D03*
X53500000Y-37520000D03*
X55000000Y-37520000D03*
X63805000Y-36905000D03*
X49750000Y-33950000D03*
X57560000Y-34940000D03*
X48000000Y-34800000D03*
X51350000Y-36910000D03*
X51500000Y-35350000D03*
X67500000Y-37400000D03*
X50900000Y-34650000D03*
X67500000Y-35050000D03*
X40000000Y-31500000D03*
X50890000Y-32740000D03*
D25*
X66250000Y-32600000D02*
X68250000Y-32600000D01*
X62300000Y-36550000D02*
X66250000Y-32600000D01*
X59600000Y-37460000D02*
X62300000Y-36550000D01*
X46200000Y-40240000D02*
X46130000Y-40170000D01*
X46130000Y-40170000D02*
X46130000Y-40070000D01*
X50461040Y-37529620D02*
X53365380Y-37654620D01*
X53365380Y-37654620D02*
X53500000Y-37520000D01*
X53500000Y-37520000D02*
X53530000Y-35500000D01*
X53530000Y-35500000D02*
X53510000Y-35480000D01*
X53700000Y-39230000D02*
X53700000Y-37720000D01*
X53700000Y-37720000D02*
X53500000Y-37520000D01*
X57455000Y-38135000D02*
X56995000Y-38135000D01*
X56995000Y-38135000D02*
X55510000Y-35480000D01*
X55550000Y-35520000D02*
X55510000Y-35480000D01*
X57455000Y-36865000D02*
X57455000Y-36665000D01*
X57455000Y-36665000D02*
X58770000Y-35280000D01*
X58770000Y-35280000D02*
X58770000Y-34660000D01*
X58770000Y-34660000D02*
X58140000Y-34030000D01*
X58140000Y-34030000D02*
X57340000Y-34030000D01*
X57340000Y-34030000D02*
X56890000Y-34480000D01*
X56890000Y-34480000D02*
X55510000Y-34480000D01*
X45580000Y-37230000D02*
X45580000Y-36080000D01*
X45580000Y-37230000D02*
X49980000Y-41630000D01*
X58960000Y-41850000D02*
X58960000Y-41880000D01*
X49980000Y-41630000D02*
X58960000Y-41880000D01*
X45250000Y-33500000D02*
X46250000Y-33500000D01*
X45250000Y-35750000D02*
X45250000Y-33500000D01*
X45580000Y-36080000D02*
X45250000Y-35750000D01*
X58960000Y-41850000D02*
X64610000Y-41850000D01*
X66710000Y-39750000D02*
X68100000Y-39750000D01*
X64610000Y-41850000D02*
X66710000Y-39750000D01*
X58960000Y-41850000D02*
X58960000Y-40950000D01*
X63045000Y-36865000D02*
X63805000Y-36865000D01*
X58960000Y-40950000D02*
X63045000Y-36865000D01*
X48000000Y-33700000D02*
X49400000Y-34300000D01*
X49400000Y-34300000D02*
X49750000Y-33950000D01*
X46250000Y-33500000D02*
X47835000Y-33535000D01*
X47835000Y-33535000D02*
X48000000Y-33700000D01*
X35500000Y-38000000D02*
X40000000Y-38000000D01*
X50461040Y-38030000D02*
X51520000Y-38030000D01*
X51520000Y-38030000D02*
X52200000Y-38710000D01*
X49750000Y-33950000D02*
X49970000Y-33950000D01*
X49980000Y-33960000D02*
X49750000Y-33950000D01*
X49970000Y-33950000D02*
X49980000Y-33960000D01*
X49750000Y-33950000D02*
X49750000Y-33960000D01*
X49750000Y-33960000D02*
X49750000Y-33950000D01*
X49750000Y-33950000D02*
X49750000Y-33960000D01*
X55510000Y-34980000D02*
X57520000Y-34980000D01*
X57520000Y-34980000D02*
X57560000Y-34940000D01*
X54990000Y-37510000D02*
X55000000Y-37520000D01*
X49750000Y-33960000D02*
X53010000Y-33980000D01*
X56050000Y-37430000D02*
X55000000Y-37520000D01*
X56080000Y-37460000D02*
X56050000Y-37430000D01*
X56140000Y-40140000D02*
X56080000Y-37460000D01*
X56040000Y-40250000D02*
X56140000Y-40140000D01*
X52200000Y-40250000D02*
X56040000Y-40250000D01*
X52200000Y-38710000D02*
X52200000Y-40250000D01*
X52185000Y-38695000D02*
X52200000Y-38710000D01*
X54800000Y-39230000D02*
X54800000Y-37720000D01*
X54800000Y-37720000D02*
X55000000Y-37520000D01*
X46450000Y-33700000D02*
X46250000Y-33500000D01*
X48000000Y-34800000D02*
X46450000Y-34800000D01*
X46450000Y-34800000D02*
X47250000Y-35600000D01*
X51650000Y-40770000D02*
X57290000Y-40770000D01*
X50250000Y-39370000D02*
X51650000Y-40770000D01*
X48730000Y-39620000D02*
X50250000Y-39370000D01*
X47250000Y-38140000D02*
X48730000Y-39620000D01*
X47250000Y-35600000D02*
X47250000Y-38140000D01*
X47765000Y-35035000D02*
X48000000Y-34800000D01*
X57290000Y-40770000D02*
X57455000Y-40675000D01*
X47800000Y-35000000D02*
X48000000Y-34800000D01*
X52780000Y-35480000D02*
X53010000Y-35480000D01*
X51350000Y-36910000D02*
X52780000Y-35480000D01*
X51500000Y-35209331D02*
X51500000Y-35350000D01*
X51500000Y-35209331D02*
X51680000Y-34980000D01*
X49058960Y-37529620D02*
X48385380Y-37424620D01*
X51680000Y-34980000D02*
X53010000Y-34980000D01*
X48390000Y-36830000D02*
X51500000Y-35209331D01*
X48390000Y-37420000D02*
X48390000Y-36830000D01*
X48385380Y-37424620D02*
X48390000Y-37420000D01*
X50800000Y-34550000D02*
X50800000Y-34480000D01*
X50800000Y-34550000D02*
X50900000Y-34650000D01*
X53010000Y-34480000D02*
X50800000Y-34480000D01*
X50800000Y-34480000D02*
X50570000Y-34480000D01*
X48330380Y-38530380D02*
X49058960Y-38530380D01*
X47800000Y-38000000D02*
X48330380Y-38530380D01*
X47800000Y-36550000D02*
X47800000Y-38000000D01*
X49250000Y-35100000D02*
X47800000Y-36550000D01*
X49950000Y-35100000D02*
X49250000Y-35100000D01*
X50570000Y-34480000D02*
X49950000Y-35100000D01*
X43000000Y-35500000D02*
X43000000Y-30907471D01*
X43000000Y-30907471D02*
X43000000Y-31000000D01*
X43000000Y-31000000D02*
X43000000Y-30907471D01*
X55510000Y-30880000D02*
X55510000Y-32980000D01*
X55450000Y-30820000D02*
X55510000Y-30880000D01*
X43000000Y-30907471D02*
X55450000Y-30820000D01*
X43850000Y-35500000D02*
X43850000Y-31546268D01*
X43850000Y-31546268D02*
X44000000Y-31396268D01*
X44000000Y-31500000D02*
X44000000Y-31396268D01*
X55010000Y-31330000D02*
X55010000Y-32980000D01*
X44000000Y-31396268D02*
X55010000Y-31330000D01*
X43850000Y-36950000D02*
X44700000Y-36700000D01*
X44750000Y-36650000D02*
X44750000Y-32160960D01*
X44700000Y-36700000D02*
X44750000Y-36650000D01*
X44750000Y-32160960D02*
X44750000Y-32250000D01*
X44750000Y-32250000D02*
X44750000Y-32160960D01*
X54530000Y-31820002D02*
X54510000Y-32980000D01*
X54550000Y-31800002D02*
X54530000Y-31820002D01*
X44750000Y-32160960D02*
X54550000Y-31800002D01*
X40000000Y-31500000D02*
X35500000Y-31500000D01*
X51280000Y-32430000D02*
X50970000Y-32740000D01*
X50970000Y-32740000D02*
X50890000Y-32740000D01*
X53510000Y-32640000D02*
X53300000Y-32430000D01*
X53300000Y-32430000D02*
X51280000Y-32430000D01*
X53510000Y-32980000D02*
X53510000Y-32640000D01*
X54010000Y-32980000D02*
X53510000Y-32980000D01*
X44720000Y-40220000D02*
X43000000Y-38500000D01*
X43000000Y-38500000D02*
X43000000Y-36950000D01*
X43050000Y-36930000D02*
X43010000Y-36890000D01*
D26*
G36*
X74623000Y-33623000D02*
X66677000Y-33623000D01*
X66677000Y-31877000D01*
X74623000Y-31877000D01*
X74623000Y-33623000D01*
X74623000Y-33623000D01*
G37*
X74623000Y-33623000D02*
X66677000Y-33623000D01*
X66677000Y-31877000D01*
X74623000Y-31877000D01*
X74623000Y-33623000D01*
G36*
X74123000Y-35973000D02*
X66677000Y-35973000D01*
X66677000Y-34227000D01*
X74123000Y-34227000D01*
X74123000Y-35973000D01*
X74123000Y-35973000D01*
G37*
X74123000Y-35973000D02*
X66677000Y-35973000D01*
X66677000Y-34227000D01*
X74123000Y-34227000D01*
X74123000Y-35973000D01*
G36*
X74123000Y-38273000D02*
X66677000Y-38273000D01*
X66677000Y-36527000D01*
X74123000Y-36527000D01*
X74123000Y-38273000D01*
X74123000Y-38273000D01*
G37*
X74123000Y-38273000D02*
X66677000Y-38273000D01*
X66677000Y-36527000D01*
X74123000Y-36527000D01*
X74123000Y-38273000D01*
G36*
X74623000Y-40623000D02*
X66677000Y-40623000D01*
X66677000Y-38877000D01*
X74623000Y-38877000D01*
X74623000Y-40623000D01*
X74623000Y-40623000D01*
G37*
X74623000Y-40623000D02*
X66677000Y-40623000D01*
X66677000Y-38877000D01*
X74623000Y-38877000D01*
X74623000Y-40623000D01*
M02*
