<?xml version="1.0" standalone="no"?>
 <!DOCTYPE svg PUBLIC "-//W3C//DTD SVG 1.1//EN" 
 "http://www.w3.org/Graphics/SVG/1.1/DTD/svg11.dtd"> 
<svg xmlns="http://www.w3.org/2000/svg" version="1.1" 
    width="10.16cm" height="10.16cm" viewBox="0 0 40000 40000 ">
<title>SVG Picture created as u2f-zero-F.Cu.svg date 2016/01/20 15:19:35 </title>
  <desc>Picture generated by PCBNEW </desc>
<g style="fill:#000000; fill-opacity:1;stroke:#000000; stroke-opacity:1;
stroke-linecap:round; stroke-linejoin:round; "
 transform="translate(0 0) scale(1 1)">
</g>
<g style="fill:#000000; fill-opacity:0.0; 
stroke:#000000; stroke-width:-0.000393701; stroke-opacity:1; 
stroke-linecap:round; stroke-linejoin:round;">
</g>
<g style="fill:#000000; fill-opacity:0.0; 
stroke:#000000; stroke-width:39.3701; stroke-opacity:1; 
stroke-linecap:round; stroke-linejoin:round;">
</g>
<g style="fill:#000000; fill-opacity:0.0; 
stroke:#000000; stroke-width:59.0551; stroke-opacity:1; 
stroke-linecap:round; stroke-linejoin:round;">
<rect x="-7244.09" y="22677.2" width="42519.7" height="12598.4" rx="0" />
</g>
<g style="fill:#000000; fill-opacity:0.0; 
stroke:#000000; stroke-width:39.3701; stroke-opacity:1; 
stroke-linecap:round; stroke-linejoin:round;">
</g>
<g style="fill:#000000; fill-opacity:0.0; 
stroke:#000000; stroke-width:59.0551; stroke-opacity:1; 
stroke-linecap:round; stroke-linejoin:round;">
<rect x="3937.01" y="3937.01" width="32126" height="32126" rx="0" />
</g>
<g style="fill:#000000; fill-opacity:0.0; 
stroke:#000000; stroke-width:39.3701; stroke-opacity:1; 
stroke-linecap:round; stroke-linejoin:round;">
</g>
<g style="fill:#000000; fill-opacity:0.0; 
stroke:#000000; stroke-width:59.0551; stroke-opacity:1; 
stroke-linecap:round; stroke-linejoin:round;">
<rect x="4724.41" y="4724.41" width="30551.2" height="30551.2" rx="0" />
</g>
<g style="fill:#000000; fill-opacity:0.0; 
stroke:#000000; stroke-width:39.3701; stroke-opacity:1; 
stroke-linecap:round; stroke-linejoin:round;">
</g>
<g style="fill:#000000; fill-opacity:0.0; 
stroke:#000000; stroke-width:59.0551; stroke-opacity:1; 
stroke-linecap:round; stroke-linejoin:round;">
<path d="M23622 4724
L23622 3937
" />
</g>
<g style="fill:#000000; fill-opacity:0.0; 
stroke:#000000; stroke-width:39.3701; stroke-opacity:1; 
stroke-linecap:round; stroke-linejoin:round;">
</g>
<g style="fill:#000000; fill-opacity:0.0; 
stroke:#000000; stroke-width:59.0551; stroke-opacity:1; 
stroke-linecap:round; stroke-linejoin:round;">
<path d="M14169 4562
L13877 4562
" />
<path d="M14023 4562
L14023 4050
L13974 4123
L13925 4172
L13877 4196
" />
</g>
<g style="fill:#000000; fill-opacity:0.0; 
stroke:#000000; stroke-width:39.3701; stroke-opacity:1; 
stroke-linecap:round; stroke-linejoin:round;">
</g>
<g style="fill:#000000; fill-opacity:0.0; 
stroke:#000000; stroke-width:59.0551; stroke-opacity:1; 
stroke-linecap:round; stroke-linejoin:round;">
<path d="M33562 4099
L33586 4074
L33635 4050
L33757 4050
L33805 4074
L33830 4099
L33854 4147
L33854 4196
L33830 4269
L33537 4562
L33854 4562
" />
</g>
<g style="fill:#000000; fill-opacity:0.0; 
stroke:#000000; stroke-width:39.3701; stroke-opacity:1; 
stroke-linecap:round; stroke-linejoin:round;">
</g>
<g style="fill:#000000; fill-opacity:0.0; 
stroke:#000000; stroke-width:59.0551; stroke-opacity:1; 
stroke-linecap:round; stroke-linejoin:round;">
<path d="M23622 35275
L23622 36062
" />
</g>
<g style="fill:#000000; fill-opacity:0.0; 
stroke:#000000; stroke-width:39.3701; stroke-opacity:1; 
stroke-linecap:round; stroke-linejoin:round;">
</g>
<g style="fill:#000000; fill-opacity:0.0; 
stroke:#000000; stroke-width:59.0551; stroke-opacity:1; 
stroke-linecap:round; stroke-linejoin:round;">
<path d="M14169 35900
L13877 35900
" />
<path d="M14023 35900
L14023 35389
L13974 35462
L13925 35510
L13877 35535
" />
</g>
<g style="fill:#000000; fill-opacity:0.0; 
stroke:#000000; stroke-width:39.3701; stroke-opacity:1; 
stroke-linecap:round; stroke-linejoin:round;">
</g>
<g style="fill:#000000; fill-opacity:0.0; 
stroke:#000000; stroke-width:59.0551; stroke-opacity:1; 
stroke-linecap:round; stroke-linejoin:round;">
<path d="M33562 35437
L33586 35413
L33635 35389
L33757 35389
L33805 35413
L33830 35437
L33854 35486
L33854 35535
L33830 35608
L33537 35900
L33854 35900
" />
</g>
<g style="fill:#000000; fill-opacity:0.0; 
stroke:#000000; stroke-width:39.3701; stroke-opacity:1; 
stroke-linecap:round; stroke-linejoin:round;">
</g>
<g style="fill:#000000; fill-opacity:0.0; 
stroke:#000000; stroke-width:59.0551; stroke-opacity:1; 
stroke-linecap:round; stroke-linejoin:round;">
<path d="M3937 23622
L4724 23622
" />
</g>
<g style="fill:#000000; fill-opacity:0.0; 
stroke:#000000; stroke-width:39.3701; stroke-opacity:1; 
stroke-linecap:round; stroke-linejoin:round;">
</g>
<g style="fill:#000000; fill-opacity:0.0; 
stroke:#000000; stroke-width:59.0551; stroke-opacity:1; 
stroke-linecap:round; stroke-linejoin:round;">
<path d="M4208 13864
L4452 13864
" />
<path d="M4160 14011
L4330 13499
L4501 14011
" />
</g>
<g style="fill:#000000; fill-opacity:0.0; 
stroke:#000000; stroke-width:39.3701; stroke-opacity:1; 
stroke-linecap:round; stroke-linejoin:round;">
</g>
<g style="fill:#000000; fill-opacity:0.0; 
stroke:#000000; stroke-width:59.0551; stroke-opacity:1; 
stroke-linecap:round; stroke-linejoin:round;">
<path d="M4367 33428
L4440 33452
L4464 33476
L4489 33525
L4489 33598
L4464 33647
L4440 33671
L4391 33696
L4196 33696
L4196 33184
L4367 33184
L4416 33208
L4440 33233
L4464 33281
L4464 33330
L4440 33379
L4416 33403
L4367 33428
L4196 33428
" />
</g>
<g style="fill:#000000; fill-opacity:0.0; 
stroke:#000000; stroke-width:39.3701; stroke-opacity:1; 
stroke-linecap:round; stroke-linejoin:round;">
</g>
<g style="fill:#000000; fill-opacity:0.0; 
stroke:#000000; stroke-width:59.0551; stroke-opacity:1; 
stroke-linecap:round; stroke-linejoin:round;">
<path d="M36062 23622
L35275 23622
" />
</g>
<g style="fill:#000000; fill-opacity:0.0; 
stroke:#000000; stroke-width:39.3701; stroke-opacity:1; 
stroke-linecap:round; stroke-linejoin:round;">
</g>
<g style="fill:#000000; fill-opacity:0.0; 
stroke:#000000; stroke-width:59.0551; stroke-opacity:1; 
stroke-linecap:round; stroke-linejoin:round;">
<path d="M35547 13864
L35791 13864
" />
<path d="M35498 14011
L35669 13499
L35839 14011
" />
</g>
<g style="fill:#000000; fill-opacity:0.0; 
stroke:#000000; stroke-width:39.3701; stroke-opacity:1; 
stroke-linecap:round; stroke-linejoin:round;">
</g>
<g style="fill:#000000; fill-opacity:0.0; 
stroke:#000000; stroke-width:59.0551; stroke-opacity:1; 
stroke-linecap:round; stroke-linejoin:round;">
<path d="M35705 33428
L35778 33452
L35803 33476
L35827 33525
L35827 33598
L35803 33647
L35778 33671
L35730 33696
L35535 33696
L35535 33184
L35705 33184
L35754 33208
L35778 33233
L35803 33281
L35803 33330
L35778 33379
L35754 33403
L35705 33428
L35535 33428
" />
</g>
<g style="fill:#000000; fill-opacity:0.0; 
stroke:#000000; stroke-width:39.3701; stroke-opacity:1; 
stroke-linecap:round; stroke-linejoin:round;">
</g>
<g style="fill:#000000; fill-opacity:0.0; 
stroke:#000000; stroke-width:59.0551; stroke-opacity:1; 
stroke-linecap:round; stroke-linejoin:round;">
<path d="M1951 33613
L1951 33023
L2092 33023
L2176 33051
L2232 33107
L2260 33163
L2289 33276
L2289 33360
L2260 33473
L2232 33529
L2176 33585
L2092 33613
L1951 33613
" />
<path d="M2795 33613
L2795 33304
L2767 33248
L2710 33219
L2598 33219
L2542 33248
" />
<path d="M2795 33585
L2739 33613
L2598 33613
L2542 33585
L2514 33529
L2514 33473
L2542 33416
L2598 33388
L2739 33388
L2795 33360
" />
<path d="M2992 33219
L3217 33219
" />
<path d="M3076 33023
L3076 33529
L3104 33585
L3160 33613
L3217 33613
" />
<path d="M3638 33585
L3582 33613
L3470 33613
L3413 33585
L3385 33529
L3385 33304
L3413 33248
L3470 33219
L3582 33219
L3638 33248
L3667 33304
L3667 33360
L3385 33416
" />
<path d="M3920 33557
L3948 33585
L3920 33613
L3892 33585
L3920 33557
L3920 33613
" />
<path d="M3920 33248
L3948 33276
L3920 33304
L3892 33276
L3920 33248
L3920 33304
" />
</g>
<g style="fill:#000000; fill-opacity:0.0; 
stroke:#000000; stroke-width:39.3701; stroke-opacity:1; 
stroke-linecap:round; stroke-linejoin:round;">
</g>
<g style="fill:#000000; fill-opacity:0.0; 
stroke:#000000; stroke-width:59.0551; stroke-opacity:1; 
stroke-linecap:round; stroke-linejoin:round;">
<path d="M-7244 33897
L35275 33897
" />
</g>
<g style="fill:#000000; fill-opacity:0.0; 
stroke:#000000; stroke-width:39.3701; stroke-opacity:1; 
stroke-linecap:round; stroke-linejoin:round;">
</g>
<g style="fill:#000000; fill-opacity:0.0; 
stroke:#000000; stroke-width:59.0551; stroke-opacity:1; 
stroke-linecap:round; stroke-linejoin:round;">
<path d="M-6709 34715
L-6709 34125
" />
<path d="M-6372 34715
L-6625 34378
" />
<path d="M-6372 34125
L-6709 34462
" />
<path d="M-6119 34715
L-6119 34322
" />
<path d="M-6119 34125
L-6147 34153
L-6119 34181
L-6091 34153
L-6119 34125
L-6119 34181
" />
<path d="M-5500 34659
L-5528 34687
L-5613 34715
L-5669 34715
L-5753 34687
L-5809 34631
L-5838 34575
L-5866 34462
L-5866 34378
L-5838 34266
L-5809 34209
L-5753 34153
L-5669 34125
L-5613 34125
L-5528 34153
L-5500 34181
" />
<path d="M-4994 34715
L-4994 34406
L-5022 34350
L-5078 34322
L-5191 34322
L-5247 34350
" />
<path d="M-4994 34687
L-5050 34715
L-5191 34715
L-5247 34687
L-5275 34631
L-5275 34575
L-5247 34519
L-5191 34491
L-5050 34491
L-4994 34462
" />
<path d="M-4460 34715
L-4460 34125
" />
<path d="M-4460 34687
L-4516 34715
L-4628 34715
L-4685 34687
L-4713 34659
L-4741 34603
L-4741 34434
L-4713 34378
L-4685 34350
L-4628 34322
L-4516 34322
L-4460 34350
" />
<path d="M-3728 34406
L-3532 34406
" />
<path d="M-3447 34715
L-3728 34715
L-3728 34125
L-3447 34125
" />
<path d="M-3194 34659
L-3166 34687
L-3194 34715
L-3222 34687
L-3194 34659
L-3194 34715
" />
<path d="M-2913 34715
L-2913 34125
L-2772 34125
L-2688 34153
L-2632 34209
L-2604 34266
L-2575 34378
L-2575 34462
L-2604 34575
L-2632 34631
L-2688 34687
L-2772 34715
L-2913 34715
" />
<path d="M-2322 34659
L-2294 34687
L-2322 34715
L-2350 34687
L-2322 34659
L-2322 34715
" />
<path d="M-2069 34547
L-1788 34547
" />
<path d="M-2125 34715
L-1929 34125
L-1732 34715
" />
<path d="M-1535 34659
L-1507 34687
L-1535 34715
L-1563 34687
L-1535 34659
L-1535 34715
" />
<path d="M-354 34715
L-354 34125
" />
<path d="M-298 34491
L-129 34715
" />
<path d="M-129 34322
L-354 34547
" />
<path d="M123 34715
L123 34322
" />
<path d="M123 34125
L95 34153
L123 34181
L151 34153
L123 34125
L123 34181
" />
<path d="M658 34687
L601 34715
L489 34715
L433 34687
L404 34659
L376 34603
L376 34434
L404 34378
L433 34350
L489 34322
L601 34322
L658 34350
" />
<path d="M1164 34715
L1164 34406
L1136 34350
L1079 34322
L967 34322
L911 34350
" />
<path d="M1164 34687
L1107 34715
L967 34715
L911 34687
L883 34631
L883 34575
L911 34519
L967 34491
L1107 34491
L1164 34462
" />
<path d="M1698 34715
L1698 34125
" />
<path d="M1698 34687
L1642 34715
L1529 34715
L1473 34687
L1445 34659
L1417 34603
L1417 34434
L1445 34378
L1473 34350
L1529 34322
L1642 34322
L1698 34350
" />
<path d="M2682 34322
L2682 34715
" />
<path d="M2542 34097
L2401 34519
L2767 34519
" />
<path d="M2992 34659
L3020 34687
L2992 34715
L2964 34687
L2992 34659
L2992 34715
" />
<path d="M3385 34125
L3442 34125
L3498 34153
L3526 34181
L3554 34237
L3582 34350
L3582 34491
L3554 34603
L3526 34659
L3498 34687
L3442 34715
L3385 34715
L3329 34687
L3301 34659
L3273 34603
L3245 34491
L3245 34350
L3273 34237
L3301 34181
L3329 34153
L3385 34125
" />
<path d="M3835 34659
L3863 34687
L3835 34715
L3807 34687
L3835 34659
L3835 34715
" />
<path d="M4426 34715
L4088 34715
" />
<path d="M4257 34715
L4257 34125
L4201 34209
L4145 34266
L4088 34294
" />
<path d="M4679 34491
L5129 34491
" />
<path d="M5354 34125
L5719 34125
L5523 34350
L5607 34350
L5663 34378
L5691 34406
L5719 34462
L5719 34603
L5691 34659
L5663 34687
L5607 34715
L5438 34715
L5382 34687
L5354 34659
" />
<path d="M5973 34659
L6001 34687
L5973 34715
L5944 34687
L5973 34659
L5973 34715
" />
<path d="M6226 34181
L6254 34153
L6310 34125
L6451 34125
L6507 34153
L6535 34181
L6563 34237
L6563 34294
L6535 34378
L6197 34715
L6563 34715
" />
<path d="M6929 34125
L6985 34125
L7041 34153
L7069 34181
L7097 34237
L7125 34350
L7125 34491
L7097 34603
L7069 34659
L7041 34687
L6985 34715
L6929 34715
L6872 34687
L6844 34659
L6816 34603
L6788 34491
L6788 34350
L6816 34237
L6844 34181
L6872 34153
L6929 34125
" />
<path d="M7688 34715
L7350 34715
" />
<path d="M7519 34715
L7519 34125
L7463 34209
L7407 34266
L7350 34294
" />
<path d="M8222 34125
L7941 34125
L7913 34406
L7941 34378
L7997 34350
L8138 34350
L8194 34378
L8222 34406
L8250 34462
L8250 34603
L8222 34659
L8194 34687
L8138 34715
L7997 34715
L7941 34687
L7913 34659
" />
<path d="M8813 34715
L8475 34715
" />
<path d="M8644 34715
L8644 34125
L8588 34209
L8532 34266
L8475 34294
" />
<path d="M9038 34181
L9066 34153
L9122 34125
L9263 34125
L9319 34153
L9347 34181
L9375 34237
L9375 34294
L9347 34378
L9010 34715
L9375 34715
" />
<path d="M9600 34181
L9628 34153
L9685 34125
L9825 34125
L9881 34153
L9910 34181
L9938 34237
L9938 34294
L9910 34378
L9572 34715
L9938 34715
" />
<path d="M10163 34181
L10191 34153
L10247 34125
L10388 34125
L10444 34153
L10472 34181
L10500 34237
L10500 34294
L10472 34378
L10134 34715
L10500 34715
" />
<path d="M11062 34715
L10725 34715
" />
<path d="M10894 34715
L10894 34125
L10838 34209
L10781 34266
L10725 34294
" />
<path d="M11569 34322
L11569 34715
" />
<path d="M11428 34097
L11287 34519
L11653 34519
" />
<path d="M11990 34125
L12047 34125
L12103 34153
L12131 34181
L12159 34237
L12187 34350
L12187 34491
L12159 34603
L12131 34659
L12103 34687
L12047 34715
L11990 34715
L11934 34687
L11906 34659
L11878 34603
L11850 34491
L11850 34350
L11878 34237
L11906 34181
L11934 34153
L11990 34125
" />
<path d="M12412 34181
L12440 34153
L12497 34125
L12637 34125
L12694 34153
L12722 34181
L12750 34237
L12750 34294
L12722 34378
L12384 34715
L12750 34715
" />
<path d="M13003 34491
L13453 34491
" />
<path d="M13228 34715
L13228 34266
" />
<path d="M13987 34125
L13875 34125
L13818 34153
L13790 34181
L13734 34266
L13706 34378
L13706 34603
L13734 34659
L13762 34687
L13818 34715
L13931 34715
L13987 34687
L14015 34659
L14043 34603
L14043 34462
L14015 34406
L13987 34378
L13931 34350
L13818 34350
L13762 34378
L13734 34406
L13706 34462
" />
<path d="M14606 34715
L14268 34715
" />
<path d="M14437 34715
L14437 34125
L14381 34209
L14325 34266
L14268 34294
" />
<path d="M14887 34715
L14999 34715
L15056 34687
L15084 34659
L15140 34575
L15168 34462
L15168 34237
L15140 34181
L15112 34153
L15056 34125
L14943 34125
L14887 34153
L14859 34181
L14831 34237
L14831 34378
L14859 34434
L14887 34462
L14943 34491
L15056 34491
L15112 34462
L15140 34434
L15168 34378
" />
<path d="M15506 34378
L15449 34350
L15421 34322
L15393 34266
L15393 34237
L15421 34181
L15449 34153
L15506 34125
L15618 34125
L15674 34153
L15703 34181
L15731 34237
L15731 34266
L15703 34322
L15674 34350
L15618 34378
L15506 34378
L15449 34406
L15421 34434
L15393 34491
L15393 34603
L15421 34659
L15449 34687
L15506 34715
L15618 34715
L15674 34687
L15703 34659
L15731 34603
L15731 34491
L15703 34434
L15674 34406
L15618 34378
" />
<path d="M15928 34125
L16293 34125
L16096 34350
L16181 34350
L16237 34378
L16265 34406
L16293 34462
L16293 34603
L16265 34659
L16237 34687
L16181 34715
L16012 34715
L15956 34687
L15928 34659
" />
<path d="M16631 34378
L16574 34350
L16546 34322
L16518 34266
L16518 34237
L16546 34181
L16574 34153
L16631 34125
L16743 34125
L16799 34153
L16827 34181
L16856 34237
L16856 34266
L16827 34322
L16799 34350
L16743 34378
L16631 34378
L16574 34406
L16546 34434
L16518 34491
L16518 34603
L16546 34659
L16574 34687
L16631 34715
L16743 34715
L16799 34687
L16827 34659
L16856 34603
L16856 34491
L16827 34434
L16799 34406
L16743 34378
" />
<path d="M15843 34023
L16968 34023
" />
<path d="M17362 34322
L17362 34715
" />
<path d="M17109 34322
L17109 34631
L17137 34687
L17193 34715
L17277 34715
L17334 34687
L17362 34659
" />
<path d="M17643 34715
L17643 34125
" />
<path d="M17643 34350
L17699 34322
L17812 34322
L17868 34350
L17896 34378
L17924 34434
L17924 34603
L17896 34659
L17868 34687
L17812 34715
L17699 34715
L17643 34687
" />
<path d="M18430 34322
L18430 34715
" />
<path d="M18177 34322
L18177 34631
L18205 34687
L18262 34715
L18346 34715
L18402 34687
L18430 34659
" />
<path d="M18712 34322
L18712 34715
" />
<path d="M18712 34378
L18740 34350
L18796 34322
L18880 34322
L18937 34350
L18965 34406
L18965 34715
" />
<path d="M19161 34322
L19386 34322
" />
<path d="M19246 34125
L19246 34631
L19274 34687
L19330 34715
L19386 34715
" />
<path d="M19836 34322
L19836 34715
" />
<path d="M19583 34322
L19583 34631
L19611 34687
L19668 34715
L19752 34715
L19808 34687
L19836 34659
" />
<path d="M20427 34715
L20089 34715
" />
<path d="M20258 34715
L20258 34125
L20202 34209
L20146 34266
L20089 34294
" />
<path d="M20933 34322
L20933 34715
" />
<path d="M20793 34097
L20652 34519
L21017 34519
" />
<path d="M21242 34659
L21271 34687
L21242 34715
L21214 34687
L21242 34659
L21242 34715
" />
<path d="M21636 34125
L21692 34125
L21749 34153
L21777 34181
L21805 34237
L21833 34350
L21833 34491
L21805 34603
L21777 34659
L21749 34687
L21692 34715
L21636 34715
L21580 34687
L21552 34659
L21524 34603
L21496 34491
L21496 34350
L21524 34237
L21552 34181
L21580 34153
L21636 34125
" />
<path d="M22339 34322
L22339 34715
" />
<path d="M22199 34097
L22058 34519
L22424 34519
" />
<path d="M22649 34659
L22677 34687
L22649 34715
L22620 34687
L22649 34659
L22649 34715
" />
<path d="M23239 34715
L22902 34715
" />
<path d="M23070 34715
L23070 34125
L23014 34209
L22958 34266
L22902 34294
" />
<path d="M23492 34491
L23942 34491
" />
<path d="M24195 34687
L24251 34715
L24364 34715
L24420 34687
L24448 34631
L24448 34603
L24420 34547
L24364 34519
L24280 34519
L24223 34491
L24195 34434
L24195 34406
L24223 34350
L24280 34322
L24364 34322
L24420 34350
" />
<path d="M24617 34322
L24842 34322
" />
<path d="M24701 34125
L24701 34631
L24730 34687
L24786 34715
L24842 34715
" />
<path d="M25292 34715
L25292 34406
L25264 34350
L25208 34322
L25095 34322
L25039 34350
" />
<path d="M25292 34687
L25236 34715
L25095 34715
L25039 34687
L25011 34631
L25011 34575
L25039 34519
L25095 34491
L25236 34491
L25292 34462
" />
<path d="M25573 34715
L25573 34125
" />
<path d="M25573 34350
L25629 34322
L25742 34322
L25798 34350
L25826 34378
L25854 34434
L25854 34603
L25826 34659
L25798 34687
L25742 34715
L25629 34715
L25573 34687
" />
<path d="M26192 34715
L26136 34687
L26107 34631
L26107 34125
" />
<path d="M26642 34687
L26586 34715
L26473 34715
L26417 34687
L26389 34631
L26389 34406
L26417 34350
L26473 34322
L26586 34322
L26642 34350
L26670 34406
L26670 34462
L26389 34519
" />
</g>
<g style="fill:#000000; fill-opacity:0.0; 
stroke:#000000; stroke-width:39.3701; stroke-opacity:1; 
stroke-linecap:round; stroke-linejoin:round;">
</g>
<g style="fill:#000000; fill-opacity:0.0; 
stroke:#000000; stroke-width:59.0551; stroke-opacity:1; 
stroke-linecap:round; stroke-linejoin:round;">
<path d="M-7244 32716
L35275 32716
" />
</g>
<g style="fill:#000000; fill-opacity:0.0; 
stroke:#000000; stroke-width:39.3701; stroke-opacity:1; 
stroke-linecap:round; stroke-linejoin:round;">
</g>
<g style="fill:#000000; fill-opacity:0.0; 
stroke:#000000; stroke-width:118.11; stroke-opacity:1; 
stroke-linecap:round; stroke-linejoin:round;">
<path d="M27092 33613
L26895 33332
" />
<path d="M26754 33613
L26754 33023
L26979 33023
L27035 33051
L27064 33079
L27092 33135
L27092 33219
L27064 33276
L27035 33304
L26979 33332
L26754 33332
" />
<path d="M27570 33585
L27514 33613
L27401 33613
L27345 33585
L27317 33529
L27317 33304
L27345 33248
L27401 33219
L27514 33219
L27570 33248
L27598 33304
L27598 33360
L27317 33416
" />
<path d="M27795 33219
L27935 33613
L28076 33219
" />
<path d="M28301 33557
L28329 33585
L28301 33613
L28273 33585
L28301 33557
L28301 33613
" />
<path d="M28301 33248
L28329 33276
L28301 33304
L28273 33276
L28301 33248
L28301 33304
" />
</g>
<g style="fill:#000000; fill-opacity:0.0; 
stroke:#000000; stroke-width:39.3701; stroke-opacity:1; 
stroke-linecap:round; stroke-linejoin:round;">
</g>
<g style="fill:#000000; fill-opacity:0.0; 
stroke:#000000; stroke-width:59.0551; stroke-opacity:1; 
stroke-linecap:round; stroke-linejoin:round;">
<path d="M-6737 33585
L-6653 33613
L-6512 33613
L-6456 33585
L-6428 33557
L-6400 33501
L-6400 33444
L-6428 33388
L-6456 33360
L-6512 33332
L-6625 33304
L-6681 33276
L-6709 33248
L-6737 33191
L-6737 33135
L-6709 33079
L-6681 33051
L-6625 33023
L-6484 33023
L-6400 33051
" />
<path d="M-6147 33613
L-6147 33219
" />
<path d="M-6147 33023
L-6175 33051
L-6147 33079
L-6119 33051
L-6147 33023
L-6147 33079
" />
<path d="M-5922 33219
L-5613 33219
L-5922 33613
L-5613 33613
" />
<path d="M-5163 33585
L-5219 33613
L-5331 33613
L-5388 33585
L-5416 33529
L-5416 33304
L-5388 33248
L-5331 33219
L-5219 33219
L-5163 33248
L-5134 33304
L-5134 33360
L-5416 33416
" />
<path d="M-4881 33557
L-4853 33585
L-4881 33613
L-4910 33585
L-4881 33557
L-4881 33613
" />
<path d="M-4881 33248
L-4853 33276
L-4881 33304
L-4910 33276
L-4881 33248
L-4881 33304
" />
<path d="M-4150 33023
L-4150 33501
L-4122 33557
L-4094 33585
L-4038 33613
L-3925 33613
L-3869 33585
L-3841 33557
L-3813 33501
L-3813 33023
" />
<path d="M-3560 33585
L-3503 33613
L-3391 33613
L-3335 33585
L-3307 33529
L-3307 33501
L-3335 33444
L-3391 33416
L-3475 33416
L-3532 33388
L-3560 33332
L-3560 33304
L-3532 33248
L-3475 33219
L-3391 33219
L-3335 33248
" />
<path d="M-2829 33585
L-2885 33613
L-2997 33613
L-3053 33585
L-3082 33529
L-3082 33304
L-3053 33248
L-2997 33219
L-2885 33219
L-2829 33248
L-2800 33304
L-2800 33360
L-3082 33416
" />
<path d="M-2547 33613
L-2547 33219
" />
<path d="M-2547 33332
L-2519 33276
L-2491 33248
L-2435 33219
L-2379 33219
" />
</g>
<g style="fill:#000000; fill-opacity:0.0; 
stroke:#000000; stroke-width:39.3701; stroke-opacity:1; 
stroke-linecap:round; stroke-linejoin:round;">
</g>
<g style="fill:#000000; fill-opacity:0.0; 
stroke:#000000; stroke-width:59.0551; stroke-opacity:1; 
stroke-linecap:round; stroke-linejoin:round;">
<path d="M26754 34715
L26754 34125
" />
<path d="M27289 34715
L27289 34125
" />
<path d="M27289 34687
L27232 34715
L27120 34715
L27064 34687
L27035 34659
L27007 34603
L27007 34434
L27035 34378
L27064 34350
L27120 34322
L27232 34322
L27289 34350
" />
<path d="M27570 34659
L27598 34687
L27570 34715
L27542 34687
L27570 34659
L27570 34715
" />
<path d="M27570 34350
L27598 34378
L27570 34406
L27542 34378
L27570 34350
L27570 34406
" />
<path d="M28610 34715
L28273 34715
" />
<path d="M28442 34715
L28442 34125
L28385 34209
L28329 34266
L28273 34294
" />
<path d="M29285 34097
L28779 34856
" />
<path d="M29791 34715
L29454 34715
" />
<path d="M29623 34715
L29623 34125
L29566 34209
L29510 34266
L29454 34294
" />
</g>
<g style="fill:#000000; fill-opacity:0.0; 
stroke:#000000; stroke-width:39.3701; stroke-opacity:1; 
stroke-linecap:round; stroke-linejoin:round;">
</g>
<g style="fill:#000000; fill-opacity:0.0; 
stroke:#000000; stroke-width:59.0551; stroke-opacity:1; 
stroke-linecap:round; stroke-linejoin:round;">
<path d="M-7244 31141
L35275 31141
" />
</g>
<g style="fill:#000000; fill-opacity:0.0; 
stroke:#000000; stroke-width:39.3701; stroke-opacity:1; 
stroke-linecap:round; stroke-linejoin:round;">
</g>
<g style="fill:#000000; fill-opacity:0.0; 
stroke:#000000; stroke-width:157.48; stroke-opacity:1; 
stroke-linecap:round; stroke-linejoin:round;">
<path d="M-6672 31419
L-6222 31419
" />
<path d="M-6545 32206
L-6447 31419
" />
<path d="M-6058 32206
L-5992 31681
" />
<path d="M-5959 31419
L-6002 31456
L-5969 31494
L-5927 31456
L-5959 31419
L-5969 31494
" />
<path d="M-5730 31681
L-5430 31681
" />
<path d="M-5584 31419
L-5669 32094
L-5641 32169
L-5570 32206
L-5495 32206
" />
<path d="M-5120 32206
L-5191 32169
L-5219 32094
L-5134 31419
" />
<path d="M-4516 32169
L-4595 32206
L-4745 32206
L-4816 32169
L-4844 32094
L-4806 31794
L-4760 31719
L-4680 31681
L-4530 31681
L-4460 31719
L-4431 31794
L-4441 31869
L-4825 31944
" />
<path d="M-4136 32131
L-4103 32169
L-4146 32206
L-4178 32169
L-4136 32131
L-4146 32206
" />
<path d="M-4085 31719
L-4052 31756
L-4094 31794
L-4127 31756
L-4085 31719
L-4094 31794
" />
</g>
<g style="fill:#000000; fill-opacity:0.0; 
stroke:#000000; stroke-width:39.3701; stroke-opacity:1; 
stroke-linecap:round; stroke-linejoin:round;">
</g>
<g style="fill:#000000; fill-opacity:0.0; 
stroke:#000000; stroke-width:59.0551; stroke-opacity:1; 
stroke-linecap:round; stroke-linejoin:round;">
<path d="M-6512 30390
L-6709 30390
" />
<path d="M-6709 30700
L-6709 30109
L-6428 30109
" />
<path d="M-6203 30700
L-6203 30306
" />
<path d="M-6203 30109
L-6231 30137
L-6203 30165
L-6175 30137
L-6203 30109
L-6203 30165
" />
<path d="M-5838 30700
L-5894 30672
L-5922 30615
L-5922 30109
" />
<path d="M-5388 30672
L-5444 30700
L-5556 30700
L-5613 30672
L-5641 30615
L-5641 30390
L-5613 30334
L-5556 30306
L-5444 30306
L-5388 30334
L-5359 30390
L-5359 30447
L-5641 30503
" />
<path d="M-5106 30643
L-5078 30672
L-5106 30700
L-5134 30672
L-5106 30643
L-5106 30700
" />
<path d="M-5106 30334
L-5078 30362
L-5106 30390
L-5134 30362
L-5106 30334
L-5106 30390
" />
<path d="M-4122 30306
L-4122 30700
" />
<path d="M-4375 30306
L-4375 30615
L-4347 30672
L-4291 30700
L-4206 30700
L-4150 30672
L-4122 30643
" />
<path d="M-3869 30165
L-3841 30137
L-3785 30109
L-3644 30109
L-3588 30137
L-3560 30165
L-3532 30222
L-3532 30278
L-3560 30362
L-3897 30700
L-3532 30700
" />
<path d="M-3363 30306
L-3138 30306
" />
<path d="M-3278 30700
L-3278 30194
L-3250 30137
L-3194 30109
L-3138 30109
" />
<path d="M-2941 30475
L-2491 30475
" />
<path d="M-2266 30306
L-1957 30306
L-2266 30700
L-1957 30700
" />
<path d="M-1507 30672
L-1563 30700
L-1676 30700
L-1732 30672
L-1760 30615
L-1760 30390
L-1732 30334
L-1676 30306
L-1563 30306
L-1507 30334
L-1479 30390
L-1479 30447
L-1760 30503
" />
<path d="M-1226 30700
L-1226 30306
" />
<path d="M-1226 30419
L-1197 30362
L-1169 30334
L-1113 30306
L-1057 30306
" />
<path d="M-776 30700
L-832 30672
L-860 30643
L-888 30587
L-888 30419
L-860 30362
L-832 30334
L-776 30306
L-691 30306
L-635 30334
L-607 30362
L-579 30419
L-579 30587
L-607 30643
L-635 30672
L-691 30700
L-776 30700
" />
<path d="M-326 30643
L-298 30672
L-326 30700
L-354 30672
L-326 30643
L-326 30700
" />
<path d="M-44 30700
L-44 30109
" />
<path d="M11 30475
L179 30700
" />
<path d="M179 30306
L-44 30531
" />
<path d="M433 30700
L433 30306
" />
<path d="M433 30109
L404 30137
L433 30165
L461 30137
L433 30109
L433 30165
" />
<path d="M967 30672
L911 30700
L798 30700
L742 30672
L714 30643
L686 30587
L686 30419
L714 30362
L742 30334
L798 30306
L911 30306
L967 30334
" />
<path d="M1473 30700
L1473 30390
L1445 30334
L1389 30306
L1276 30306
L1220 30334
" />
<path d="M1473 30672
L1417 30700
L1276 30700
L1220 30672
L1192 30615
L1192 30559
L1220 30503
L1276 30475
L1417 30475
L1473 30447
" />
<path d="M2007 30700
L2007 30109
" />
<path d="M2007 30672
L1951 30700
L1839 30700
L1782 30672
L1754 30643
L1726 30587
L1726 30419
L1754 30362
L1782 30334
L1839 30306
L1951 30306
L2007 30334
" />
<path d="M2148 30756
L2598 30756
" />
<path d="M2739 30306
L2739 30897
" />
<path d="M2739 30334
L2795 30306
L2907 30306
L2964 30334
L2992 30362
L3020 30419
L3020 30587
L2992 30643
L2964 30672
L2907 30700
L2795 30700
L2739 30672
" />
<path d="M3526 30672
L3470 30700
L3357 30700
L3301 30672
L3273 30643
L3245 30587
L3245 30419
L3273 30362
L3301 30334
L3357 30306
L3470 30306
L3526 30334
" />
<path d="M3779 30700
L3779 30109
" />
<path d="M3779 30334
L3835 30306
L3948 30306
L4004 30334
L4032 30362
L4060 30419
L4060 30587
L4032 30643
L4004 30672
L3948 30700
L3835 30700
L3779 30672
" />
</g>
<g style="fill:#000000; fill-opacity:0.0; 
stroke:#000000; stroke-width:39.3701; stroke-opacity:1; 
stroke-linecap:round; stroke-linejoin:round;">
</g>
<g style="fill:#000000; fill-opacity:0.0; 
stroke:#000000; stroke-width:59.0551; stroke-opacity:1; 
stroke-linecap:round; stroke-linejoin:round;">
<path d="M-7244 28779
L35275 28779
" />
</g>
<g style="fill:#000000; fill-opacity:0.0; 
stroke:#000000; stroke-width:39.3701; stroke-opacity:1; 
stroke-linecap:round; stroke-linejoin:round;">
</g>
<g style="fill:#000000; fill-opacity:0.0; 
stroke:#000000; stroke-width:59.0551; stroke-opacity:1; 
stroke-linecap:round; stroke-linejoin:round;">
<path d="M-6737 29609
L-6653 29637
L-6512 29637
L-6456 29609
L-6428 29580
L-6400 29524
L-6400 29468
L-6428 29412
L-6456 29384
L-6512 29356
L-6625 29327
L-6681 29299
L-6709 29271
L-6737 29215
L-6737 29159
L-6709 29102
L-6681 29074
L-6625 29046
L-6484 29046
L-6400 29074
" />
<path d="M-6147 29637
L-6147 29046
" />
<path d="M-5894 29637
L-5894 29327
L-5922 29271
L-5978 29243
L-6062 29243
L-6119 29271
L-6147 29299
" />
<path d="M-5388 29609
L-5444 29637
L-5556 29637
L-5613 29609
L-5641 29552
L-5641 29327
L-5613 29271
L-5556 29243
L-5444 29243
L-5388 29271
L-5359 29327
L-5359 29384
L-5641 29440
" />
<path d="M-4881 29609
L-4938 29637
L-5050 29637
L-5106 29609
L-5134 29552
L-5134 29327
L-5106 29271
L-5050 29243
L-4938 29243
L-4881 29271
L-4853 29327
L-4853 29384
L-5134 29440
" />
<path d="M-4685 29243
L-4460 29243
" />
<path d="M-4600 29046
L-4600 29552
L-4572 29609
L-4516 29637
L-4460 29637
" />
<path d="M-4263 29580
L-4235 29609
L-4263 29637
L-4291 29609
L-4263 29580
L-4263 29637
" />
<path d="M-4263 29271
L-4235 29299
L-4263 29327
L-4291 29299
L-4263 29271
L-4263 29327
" />
</g>
<g style="fill:#000000; fill-opacity:0.0; 
stroke:#000000; stroke-width:39.3701; stroke-opacity:1; 
stroke-linecap:round; stroke-linejoin:round;">
</g>
<g style="fill:#000000; fill-opacity:0.0; 
stroke:#000000; stroke-width:59.0551; stroke-opacity:1; 
stroke-linecap:round; stroke-linejoin:round;">
<path d="M629 32716
L629 33897
" />
</g>
<g style="fill:#000000; fill-opacity:0.0; 
stroke:#000000; stroke-width:39.3701; stroke-opacity:1; 
stroke-linecap:round; stroke-linejoin:round;">
</g>
<g style="fill:#000000; fill-opacity:0.0; 
stroke:#000000; stroke-width:59.0551; stroke-opacity:1; 
stroke-linecap:round; stroke-linejoin:round;">
<path d="M25826 32716
L25826 35275
" />
</g>
<g style="fill:#C2C200; fill-opacity:0.0; 
stroke:#C2C200; stroke-width:59.0551; stroke-opacity:1; 
stroke-linecap:round; stroke-linejoin:round;">
<path d="M13385 16732
L13385 16535
" />
<path d="M29822 16732
L29822 16535
" />
<path d="M29822 11811
L29822 16535
" />
<path d="M13385 11811
L29822 11811
" />
<path d="M13385 16535
L13385 11811
" />
<path d="M29822 16732
L13385 16732
" />
</g>
<g style="fill:#840000; fill-opacity:0.0; 
stroke:#840000; stroke-width:59.0551; stroke-opacity:1; 
stroke-linecap:round; stroke-linejoin:round;">
</g>
<g style="fill:#840000; fill-opacity:1.0; 
stroke:#840000; stroke-width:0; stroke-opacity:1; 
stroke-linecap:round; stroke-linejoin:round;">
<circle cx="15748" cy="14960.6" r="300" /> 
</g>
<g style="fill:#840000; fill-opacity:1.0; 
stroke:#840000; stroke-width:39.3701; stroke-opacity:1; 
stroke-linecap:round; stroke-linejoin:round;">
</g>
<g style="fill:#840000; fill-opacity:1.0; 
stroke:#840000; stroke-width:0; stroke-opacity:1; 
stroke-linecap:round; stroke-linejoin:round;">
<circle cx="13976.4" cy="14960.6" r="300" /> 
</g>
<g style="fill:#840000; fill-opacity:1.0; 
stroke:#840000; stroke-width:39.3701; stroke-opacity:1; 
stroke-linecap:round; stroke-linejoin:round;">
</g>
<g style="fill:#840000; fill-opacity:1.0; 
stroke:#840000; stroke-width:0; stroke-opacity:1; 
stroke-linecap:round; stroke-linejoin:round;">
<circle cx="15748" cy="12401.6" r="300" /> 
</g>
<g style="fill:#840000; fill-opacity:1.0; 
stroke:#840000; stroke-width:39.3701; stroke-opacity:1; 
stroke-linecap:round; stroke-linejoin:round;">
</g>
<g style="fill:#840000; fill-opacity:1.0; 
stroke:#840000; stroke-width:0; stroke-opacity:1; 
stroke-linecap:round; stroke-linejoin:round;">
<circle cx="13976.4" cy="12401.6" r="300" /> 
</g>
<g style="fill:#840000; fill-opacity:1.0; 
stroke:#840000; stroke-width:39.3701; stroke-opacity:1; 
stroke-linecap:round; stroke-linejoin:round;">
</g>
<g style="fill:#840000; fill-opacity:1.0; 
stroke:#840000; stroke-width:0; stroke-opacity:1; 
stroke-linecap:round; stroke-linejoin:round;">
<polyline style="fill-rule:evenodd;"
points="22845,16113
22395,16113
22395,15913
22845,15913
22845,16113
" /> 
<polyline style="fill-rule:evenodd;"
points="22845,15613
22395,15613
22395,15413
22845,15413
22845,15613
" /> 
<polyline style="fill-rule:evenodd;"
points="22845,15113
22395,15113
22395,14913
22845,14913
22845,15113
" /> 
<polyline style="fill-rule:evenodd;"
points="22845,14613
22395,14613
22395,14413
22845,14413
22845,14613
" /> 
<polyline style="fill-rule:evenodd;"
points="25345,14613
24895,14613
24895,14413
25345,14413
25345,14613
" /> 
<polyline style="fill-rule:evenodd;"
points="25345,15113
24895,15113
24895,14913
25345,14913
25345,15113
" /> 
<polyline style="fill-rule:evenodd;"
points="25345,15613
24895,15613
24895,15413
25345,15413
25345,15613
" /> 
<polyline style="fill-rule:evenodd;"
points="25345,16113
24895,16113
24895,15913
25345,15913
25345,16113
" /> 
<polyline style="fill-rule:evenodd;"
points="18996,13818
18799,13818
18799,13582
18996,13582
18996,13818
" /> 
<polyline style="fill-rule:evenodd;"
points="18996,13385
18799,13385
18799,13149
18996,13149
18996,13385
" /> 
<polyline style="fill-rule:evenodd;"
points="18356,13937
18061,13937
18061,13622
18356,13622
18356,13937
" /> 
<polyline style="fill-rule:evenodd;"
points="18356,13346
18061,13346
18061,13031
18356,13031
18356,13346
" /> 
<polyline style="fill-rule:evenodd;"
points="21023,15543
21023,15346
21259,15346
21259,15543
21023,15543
" /> 
<polyline style="fill-rule:evenodd;"
points="21456,15543
21456,15346
21692,15346
21692,15543
21456,15543
" /> 
<polyline style="fill-rule:evenodd;"
points="21811,14624
21811,14919
21496,14919
21496,14624
21811,14624
" /> 
<polyline style="fill-rule:evenodd;"
points="21220,14624
21220,14919
20905,14919
20905,14624
21220,14624
" /> 
<polyline style="fill-rule:evenodd;"
points="20811,14027
20811,13909
20929,13909
20929,14027
20811,14027
" /> 
<polyline style="fill-rule:evenodd;"
points="20811,13043
20811,12925
20929,12925
20929,13043
20811,13043
" /> 
<polyline style="fill-rule:evenodd;"
points="20929,13240
20574,13240
20574,13122
20929,13122
20929,13240
" /> 
<polyline style="fill-rule:evenodd;"
points="20929,13437
20574,13437
20574,13318
20929,13318
20929,13437
" /> 
<polyline style="fill-rule:evenodd;"
points="20929,13633
20574,13633
20574,13515
20929,13515
20929,13633
" /> 
<polyline style="fill-rule:evenodd;"
points="20929,13830
20574,13830
20574,13712
20929,13712
20929,13830
" /> 
<polyline style="fill-rule:evenodd;"
points="21007,14263
21007,13909
21125,13909
21125,14263
21007,14263
" /> 
<polyline style="fill-rule:evenodd;"
points="21204,14263
21204,13909
21322,13909
21322,14263
21204,14263
" /> 
<polyline style="fill-rule:evenodd;"
points="21401,14263
21401,13909
21519,13909
21519,14263
21401,14263
" /> 
<polyline style="fill-rule:evenodd;"
points="21598,14263
21598,13909
21716,13909
21716,14263
21598,14263
" /> 
<polyline style="fill-rule:evenodd;"
points="21795,14027
21795,13909
21913,13909
21913,14027
21795,14027
" /> 
<polyline style="fill-rule:evenodd;"
points="22149,13830
21795,13830
21795,13712
22149,13712
22149,13830
" /> 
<polyline style="fill-rule:evenodd;"
points="22149,13633
21795,13633
21795,13515
22149,13515
22149,13633
" /> 
<polyline style="fill-rule:evenodd;"
points="22149,13437
21795,13437
21795,13318
22149,13318
22149,13437
" /> 
<polyline style="fill-rule:evenodd;"
points="22149,13240
21795,13240
21795,13122
22149,13122
22149,13240
" /> 
<polyline style="fill-rule:evenodd;"
points="21913,13043
21795,13043
21795,12925
21913,12925
21913,13043
" /> 
<polyline style="fill-rule:evenodd;"
points="21716,12688
21716,13043
21598,13043
21598,12688
21716,12688
" /> 
<polyline style="fill-rule:evenodd;"
points="21519,12688
21519,13043
21401,13043
21401,12688
21519,12688
" /> 
<polyline style="fill-rule:evenodd;"
points="21322,12688
21322,13043
21204,13043
21204,12688
21322,12688
" /> 
<polyline style="fill-rule:evenodd;"
points="21125,12688
21125,13043
21007,13043
21007,12688
21125,12688
" /> 
<polyline style="fill-rule:evenodd;"
points="21716,13122
21716,13830
21007,13830
21007,13122
21716,13122
" /> 
<polyline style="fill-rule:evenodd;"
points="18295,15657
18295,16011
18098,16011
18098,15657
18295,15657
" /> 
<polyline style="fill-rule:evenodd;"
points="17704,15657
17704,16011
17507,16011
17507,15657
17704,15657
" /> 
<polyline style="fill-rule:evenodd;"
points="19955,15110
19955,15228
19778,15228
19778,15110
19955,15110
" /> 
<polyline style="fill-rule:evenodd;"
points="19955,14716
19955,14834
19778,14834
19778,14716
19955,14716
" /> 
<polyline style="fill-rule:evenodd;"
points="19403,15110
19403,15228
19226,15228
19226,15110
19403,15110
" /> 
<polyline style="fill-rule:evenodd;"
points="19955,14913
19955,15031
19778,15031
19778,14913
19955,14913
" /> 
<polyline style="fill-rule:evenodd;"
points="19403,14716
19403,14834
19226,14834
19226,14716
19403,14716
" /> 
<polyline style="fill-rule:evenodd;"
points="16801,14143
16801,13809
17057,13809
17057,14143
16801,14143
" /> 
<polyline style="fill-rule:evenodd;"
points="17135,14143
17135,13809
17391,13809
17391,14143
17135,14143
" /> 
<polyline style="fill-rule:evenodd;"
points="17135,14714
17135,14379
17391,14379
17391,14714
17135,14714
" /> 
<polyline style="fill-rule:evenodd;"
points="16801,14714
16801,14379
17057,14379
17057,14714
16801,14714
" /> 
</g>
<g style="fill:#C2C2C2; fill-opacity:1.0; 
stroke:#C2C2C2; stroke-width:0; stroke-opacity:1; 
stroke-linecap:round; stroke-linejoin:round;">
<circle cx="23464.6" cy="14748" r="118.11" /> 
</g>
<g style="fill:#C2C2C2; fill-opacity:1.0; 
stroke:#C2C2C2; stroke-width:39.3701; stroke-opacity:1; 
stroke-linecap:round; stroke-linejoin:round;">
</g>
<g style="fill:#C2C2C2; fill-opacity:1.0; 
stroke:#C2C2C2; stroke-width:0; stroke-opacity:1; 
stroke-linecap:round; stroke-linejoin:round;">
<circle cx="18189" cy="15842.5" r="118.11" /> 
</g>
<g style="fill:#C2C2C2; fill-opacity:1.0; 
stroke:#C2C2C2; stroke-width:39.3701; stroke-opacity:1; 
stroke-linecap:round; stroke-linejoin:round;">
</g>
<g style="fill:#C2C2C2; fill-opacity:1.0; 
stroke:#C2C2C2; stroke-width:0; stroke-opacity:1; 
stroke-linecap:round; stroke-linejoin:round;">
<circle cx="21063" cy="14771.7" r="118.11" /> 
</g>
<g style="fill:#C2C2C2; fill-opacity:1.0; 
stroke:#C2C2C2; stroke-width:39.3701; stroke-opacity:1; 
stroke-linecap:round; stroke-linejoin:round;">
</g>
<g style="fill:#C2C2C2; fill-opacity:1.0; 
stroke:#C2C2C2; stroke-width:0; stroke-opacity:1; 
stroke-linecap:round; stroke-linejoin:round;">
<circle cx="21653.5" cy="14771.7" r="118.11" /> 
</g>
<g style="fill:#C2C2C2; fill-opacity:1.0; 
stroke:#C2C2C2; stroke-width:39.3701; stroke-opacity:1; 
stroke-linecap:round; stroke-linejoin:round;">
</g>
<g style="fill:#C2C2C2; fill-opacity:1.0; 
stroke:#C2C2C2; stroke-width:0; stroke-opacity:1; 
stroke-linecap:round; stroke-linejoin:round;">
<circle cx="25120.1" cy="14529.5" r="118.11" /> 
</g>
<g style="fill:#C2C2C2; fill-opacity:1.0; 
stroke:#C2C2C2; stroke-width:39.3701; stroke-opacity:1; 
stroke-linecap:round; stroke-linejoin:round;">
</g>
<g style="fill:#C2C2C2; fill-opacity:1.0; 
stroke:#C2C2C2; stroke-width:0; stroke-opacity:1; 
stroke-linecap:round; stroke-linejoin:round;">
<circle cx="19586.6" cy="13366.1" r="118.11" /> 
</g>
<g style="fill:#C2C2C2; fill-opacity:1.0; 
stroke:#C2C2C2; stroke-width:39.3701; stroke-opacity:1; 
stroke-linecap:round; stroke-linejoin:round;">
</g>
<g style="fill:#C2C2C2; fill-opacity:1.0; 
stroke:#C2C2C2; stroke-width:0; stroke-opacity:1; 
stroke-linecap:round; stroke-linejoin:round;">
<circle cx="22661.4" cy="13755.9" r="118.11" /> 
</g>
<g style="fill:#C2C2C2; fill-opacity:1.0; 
stroke:#C2C2C2; stroke-width:39.3701; stroke-opacity:1; 
stroke-linecap:round; stroke-linejoin:round;">
</g>
<g style="fill:#C2C2C2; fill-opacity:1.0; 
stroke:#C2C2C2; stroke-width:0; stroke-opacity:1; 
stroke-linecap:round; stroke-linejoin:round;">
<circle cx="18897.6" cy="13700.8" r="118.11" /> 
</g>
<g style="fill:#C2C2C2; fill-opacity:1.0; 
stroke:#C2C2C2; stroke-width:39.3701; stroke-opacity:1; 
stroke-linecap:round; stroke-linejoin:round;">
</g>
<g style="fill:#C2C2C2; fill-opacity:1.0; 
stroke:#C2C2C2; stroke-width:0; stroke-opacity:1; 
stroke-linecap:round; stroke-linejoin:round;">
<circle cx="20216.5" cy="14531.5" r="118.11" /> 
</g>
<g style="fill:#C2C2C2; fill-opacity:1.0; 
stroke:#C2C2C2; stroke-width:39.3701; stroke-opacity:1; 
stroke-linecap:round; stroke-linejoin:round;">
</g>
<g style="fill:#C2C2C2; fill-opacity:1.0; 
stroke:#C2C2C2; stroke-width:0; stroke-opacity:1; 
stroke-linecap:round; stroke-linejoin:round;">
<circle cx="20275.6" cy="13917.3" r="118.11" /> 
</g>
<g style="fill:#C2C2C2; fill-opacity:1.0; 
stroke:#C2C2C2; stroke-width:39.3701; stroke-opacity:1; 
stroke-linecap:round; stroke-linejoin:round;">
</g>
<g style="fill:#C2C2C2; fill-opacity:1.0; 
stroke:#C2C2C2; stroke-width:0; stroke-opacity:1; 
stroke-linecap:round; stroke-linejoin:round;">
<circle cx="26574.8" cy="14724.4" r="118.11" /> 
</g>
<g style="fill:#C2C2C2; fill-opacity:1.0; 
stroke:#C2C2C2; stroke-width:39.3701; stroke-opacity:1; 
stroke-linecap:round; stroke-linejoin:round;">
</g>
<g style="fill:#C2C2C2; fill-opacity:1.0; 
stroke:#C2C2C2; stroke-width:0; stroke-opacity:1; 
stroke-linecap:round; stroke-linejoin:round;">
<circle cx="20039.4" cy="13641.7" r="118.11" /> 
</g>
<g style="fill:#C2C2C2; fill-opacity:1.0; 
stroke:#C2C2C2; stroke-width:39.3701; stroke-opacity:1; 
stroke-linecap:round; stroke-linejoin:round;">
</g>
<g style="fill:#C2C2C2; fill-opacity:1.0; 
stroke:#C2C2C2; stroke-width:0; stroke-opacity:1; 
stroke-linecap:round; stroke-linejoin:round;">
<circle cx="26574.8" cy="13799.2" r="118.11" /> 
</g>
<g style="fill:#C2C2C2; fill-opacity:1.0; 
stroke:#C2C2C2; stroke-width:39.3701; stroke-opacity:1; 
stroke-linecap:round; stroke-linejoin:round;">
</g>
<g style="fill:#C2C2C2; fill-opacity:1.0; 
stroke:#C2C2C2; stroke-width:0; stroke-opacity:1; 
stroke-linecap:round; stroke-linejoin:round;">
<circle cx="15748" cy="12401.6" r="118.11" /> 
</g>
<g style="fill:#C2C2C2; fill-opacity:1.0; 
stroke:#C2C2C2; stroke-width:39.3701; stroke-opacity:1; 
stroke-linecap:round; stroke-linejoin:round;">
</g>
<g style="fill:#C2C2C2; fill-opacity:1.0; 
stroke:#C2C2C2; stroke-width:0; stroke-opacity:1; 
stroke-linecap:round; stroke-linejoin:round;">
<circle cx="20035.4" cy="12889.8" r="118.11" /> 
</g>
<g style="fill:#C2C2C2; fill-opacity:1.0; 
stroke:#C2C2C2; stroke-width:39.3701; stroke-opacity:1; 
stroke-linecap:round; stroke-linejoin:round;">
</g>
<g style="fill:#840000; fill-opacity:1.0; 
stroke:#840000; stroke-width:39.3701; stroke-opacity:1; 
stroke-linecap:round; stroke-linejoin:round;">
</g>
<g style="fill:#840000; fill-opacity:1.0; 
stroke:#840000; stroke-width:98.4252; stroke-opacity:1; 
stroke-linecap:round; stroke-linejoin:round;">
</g>
<g style="fill:#840000; fill-opacity:0.0; 
stroke:#840000; stroke-width:98.4252; stroke-opacity:1; 
stroke-linecap:round; stroke-linejoin:round;">
<path d="M26082 12834
L26870 12834
" />
<path d="M24527 14389
L26082 12834
" />
<path d="M23464 14748
L24527 14389
" />
<path d="M18188 15842
L18161 15814
" />
<path d="M18161 15814
L18161 15775
" />
<path d="M19866 14775
L21009 14824
" />
<path d="M21009 14824
L21062 14771
" />
<path d="M21062 14771
L21074 13976
" />
<path d="M21074 13976
L21066 13968
" />
<path d="M21141 15444
L21141 14850
" />
<path d="M21141 14850
L21062 14771
" />
<path d="M22620 15013
L22438 15013
" />
<path d="M22438 15013
L21854 13968
" />
<path d="M21870 13984
L21854 13968
" />
<path d="M22620 14513
L22620 14435
" />
<path d="M22620 14435
L23137 13889
" />
<path d="M23137 13889
L23137 13645
" />
<path d="M23137 13645
L22889 13397
" />
<path d="M22889 13397
L22574 13397
" />
<path d="M22574 13397
L22397 13574
" />
<path d="M22397 13574
L21854 13574
" />
<path d="M17944 14657
L17944 14204
" />
<path d="M17944 14657
L19677 16389
" />
<path d="M23212 16476
L23212 16488
" />
<path d="M19677 16389
L23212 16488
" />
<path d="M17814 13188
L18208 13188
" />
<path d="M17814 14074
L17814 13188
" />
<path d="M17944 14204
L17814 14074
" />
<path d="M23212 16476
L25437 16476
" />
<path d="M26263 15649
L26811 15649
" />
<path d="M25437 16476
L26263 15649
" />
<path d="M23212 16476
L23212 16122
" />
<path d="M24820 14513
L25120 14513
" />
<path d="M23212 16122
L24820 14513
" />
<path d="M18897 13267
L19448 13503
" />
<path d="M19448 13503
L19586 13366
" />
<path d="M18208 13188
L18832 13202
" />
<path d="M18832 13202
L18897 13267
" />
<path d="M13976 14960
L15748 14960
" />
<path d="M19866 14972
L20283 14972
" />
<path d="M20283 14972
L20551 15240
" />
<path d="M19586 13366
L19673 13366
" />
<path d="M19677 13370
L19586 13366
" />
<path d="M19673 13366
L19677 13370
" />
<path d="M19586 13366
L19586 13370
" />
<path d="M19586 13370
L19586 13366
" />
<path d="M19586 13366
L19586 13370
" />
<path d="M21854 13771
L22645 13771
" />
<path d="M22645 13771
L22661 13755
" />
<path d="M21649 14767
L21653 14771
" />
<path d="M19586 13370
L20870 13377
" />
<path d="M22066 14736
L21653 14771
" />
<path d="M22078 14748
L22066 14736
" />
<path d="M22102 15803
L22078 14748
" />
<path d="M22062 15846
L22102 15803
" />
<path d="M20551 15846
L22062 15846
" />
<path d="M20551 15240
L20551 15846
" />
<path d="M20545 15234
L20551 15240
" />
<path d="M21574 15444
L21574 14850
" />
<path d="M21574 14850
L21653 14771
" />
<path d="M18287 13267
L18208 13188
" />
<path d="M18897 13700
L18287 13700
" />
<path d="M18287 13700
L18602 14015
" />
<path d="M20334 16051
L22555 16051
" />
<path d="M19783 15500
L20334 16051
" />
<path d="M19185 15598
L19783 15500
" />
<path d="M18602 15015
L19185 15598
" />
<path d="M18602 14015
L18602 15015
" />
<path d="M18805 13793
L18897 13700
" />
<path d="M22555 16051
L22620 16013
" />
<path d="M18818 13779
L18897 13700
" />
<path d="M20779 13968
L20870 13968
" />
<path d="M20216 14531
L20779 13968
" />
<path d="M20275 13861
L20275 13917
" />
<path d="M20275 13861
L20346 13771
" />
<path d="M19314 14775
L19049 14734
" />
<path d="M20346 13771
L20870 13771
" />
<path d="M19051 14500
L20275 13861
" />
<path d="M19051 14732
L19051 14500
" />
<path d="M19049 14734
L19051 14732
" />
<path d="M20000 13602
L20000 13574
" />
<path d="M20000 13602
L20039 13641
" />
<path d="M20870 13574
L20000 13574
" />
<path d="M20000 13574
L19909 13574
" />
<path d="M19027 15169
L19314 15169
" />
<path d="M18818 14960
L19027 15169
" />
<path d="M18818 14389
L18818 14960
" />
<path d="M19389 13818
L18818 14389
" />
<path d="M19665 13818
L19389 13818
" />
<path d="M19909 13574
L19665 13818
" />
<path d="M16929 13976
L16929 12168
" />
<path d="M16929 12168
L16929 12204
" />
<path d="M16929 12204
L16929 12168
" />
<path d="M21854 12157
L21854 12984
" />
<path d="M21830 12133
L21854 12157
" />
<path d="M16929 12168
L21830 12133
" />
<path d="M17263 13976
L17263 12419
" />
<path d="M17263 12419
L17322 12360
" />
<path d="M17322 12401
L17322 12360
" />
<path d="M21657 12334
L21657 12984
" />
<path d="M17322 12360
L21657 12334
" />
<path d="M17263 14547
L17598 14448
" />
<path d="M17618 14429
L17618 12661
" />
<path d="M17598 14448
L17618 14429
" />
<path d="M17618 12661
L17618 12696
" />
<path d="M17618 12696
L17618 12661
" />
<path d="M21468 12527
L21460 12984
" />
<path d="M21476 12519
L21468 12527
" />
<path d="M17618 12661
L21476 12519
" />
<path d="M15748 12401
L13976 12401
" />
<path d="M20188 12767
L20066 12889
" />
<path d="M20066 12889
L20035 12889
" />
<path d="M21066 12850
L20984 12767
" />
<path d="M20984 12767
L20188 12767
" />
<path d="M21066 12984
L21066 12850
" />
<path d="M21263 12984
L21066 12984
" />
<path d="M17606 15834
L16929 15157
" />
<path d="M16929 15157
L16929 14547
" />
<path d="M16948 14539
L16933 14523
" />
</g>
<g style="fill:#840000; fill-opacity:1.0; 
stroke:#840000; stroke-width:100; stroke-opacity:1; 
stroke-linecap:round; stroke-linejoin:round;">
<polyline style="fill-rule:evenodd;"
points="29379,13237
26250,13237
26250,12550
29379,12550
29379,13237
" /> 
<polyline style="fill-rule:evenodd;"
points="29182,14162
26250,14162
26250,13475
29182,13475
29182,14162
" /> 
<polyline style="fill-rule:evenodd;"
points="29182,15068
26250,15068
26250,14380
29182,14380
29182,15068
" /> 
<polyline style="fill-rule:evenodd;"
points="29379,15993
26250,15993
26250,15305
29379,15305
29379,15993
" /> 
</g>
<g style="fill:#FFFFFF; fill-opacity:1.0; 
stroke:#FFFFFF; stroke-width:100; stroke-opacity:1; 
stroke-linecap:round; stroke-linejoin:round;">
</g>
<g style="fill:#FFFFFF; fill-opacity:1.0; 
stroke:#FFFFFF; stroke-width:0; stroke-opacity:1; 
stroke-linecap:round; stroke-linejoin:round;">
<circle cx="23464.6" cy="14748" r="78.7402" /> 
</g>
<g style="fill:#FFFFFF; fill-opacity:1.0; 
stroke:#FFFFFF; stroke-width:39.3701; stroke-opacity:1; 
stroke-linecap:round; stroke-linejoin:round;">
</g>
<g style="fill:#FFFFFF; fill-opacity:1.0; 
stroke:#FFFFFF; stroke-width:0; stroke-opacity:1; 
stroke-linecap:round; stroke-linejoin:round;">
<circle cx="18189" cy="15842.5" r="78.7402" /> 
</g>
<g style="fill:#FFFFFF; fill-opacity:1.0; 
stroke:#FFFFFF; stroke-width:39.3701; stroke-opacity:1; 
stroke-linecap:round; stroke-linejoin:round;">
</g>
<g style="fill:#FFFFFF; fill-opacity:1.0; 
stroke:#FFFFFF; stroke-width:0; stroke-opacity:1; 
stroke-linecap:round; stroke-linejoin:round;">
<circle cx="21063" cy="14771.7" r="78.7402" /> 
</g>
<g style="fill:#FFFFFF; fill-opacity:1.0; 
stroke:#FFFFFF; stroke-width:39.3701; stroke-opacity:1; 
stroke-linecap:round; stroke-linejoin:round;">
</g>
<g style="fill:#FFFFFF; fill-opacity:1.0; 
stroke:#FFFFFF; stroke-width:0; stroke-opacity:1; 
stroke-linecap:round; stroke-linejoin:round;">
<circle cx="21653.5" cy="14771.7" r="78.7402" /> 
</g>
<g style="fill:#FFFFFF; fill-opacity:1.0; 
stroke:#FFFFFF; stroke-width:39.3701; stroke-opacity:1; 
stroke-linecap:round; stroke-linejoin:round;">
</g>
<g style="fill:#FFFFFF; fill-opacity:1.0; 
stroke:#FFFFFF; stroke-width:0; stroke-opacity:1; 
stroke-linecap:round; stroke-linejoin:round;">
<circle cx="25120.1" cy="14529.5" r="78.7402" /> 
</g>
<g style="fill:#FFFFFF; fill-opacity:1.0; 
stroke:#FFFFFF; stroke-width:39.3701; stroke-opacity:1; 
stroke-linecap:round; stroke-linejoin:round;">
</g>
<g style="fill:#FFFFFF; fill-opacity:1.0; 
stroke:#FFFFFF; stroke-width:0; stroke-opacity:1; 
stroke-linecap:round; stroke-linejoin:round;">
<circle cx="19586.6" cy="13366.1" r="78.7402" /> 
</g>
<g style="fill:#FFFFFF; fill-opacity:1.0; 
stroke:#FFFFFF; stroke-width:39.3701; stroke-opacity:1; 
stroke-linecap:round; stroke-linejoin:round;">
</g>
<g style="fill:#FFFFFF; fill-opacity:1.0; 
stroke:#FFFFFF; stroke-width:0; stroke-opacity:1; 
stroke-linecap:round; stroke-linejoin:round;">
<circle cx="22661.4" cy="13755.9" r="78.7402" /> 
</g>
<g style="fill:#FFFFFF; fill-opacity:1.0; 
stroke:#FFFFFF; stroke-width:39.3701; stroke-opacity:1; 
stroke-linecap:round; stroke-linejoin:round;">
</g>
<g style="fill:#FFFFFF; fill-opacity:1.0; 
stroke:#FFFFFF; stroke-width:0; stroke-opacity:1; 
stroke-linecap:round; stroke-linejoin:round;">
<circle cx="18897.6" cy="13700.8" r="78.7402" /> 
</g>
<g style="fill:#FFFFFF; fill-opacity:1.0; 
stroke:#FFFFFF; stroke-width:39.3701; stroke-opacity:1; 
stroke-linecap:round; stroke-linejoin:round;">
</g>
<g style="fill:#FFFFFF; fill-opacity:1.0; 
stroke:#FFFFFF; stroke-width:0; stroke-opacity:1; 
stroke-linecap:round; stroke-linejoin:round;">
<circle cx="20216.5" cy="14531.5" r="78.7402" /> 
</g>
<g style="fill:#FFFFFF; fill-opacity:1.0; 
stroke:#FFFFFF; stroke-width:39.3701; stroke-opacity:1; 
stroke-linecap:round; stroke-linejoin:round;">
</g>
<g style="fill:#FFFFFF; fill-opacity:1.0; 
stroke:#FFFFFF; stroke-width:0; stroke-opacity:1; 
stroke-linecap:round; stroke-linejoin:round;">
<circle cx="20275.6" cy="13917.3" r="78.7402" /> 
</g>
<g style="fill:#FFFFFF; fill-opacity:1.0; 
stroke:#FFFFFF; stroke-width:39.3701; stroke-opacity:1; 
stroke-linecap:round; stroke-linejoin:round;">
</g>
<g style="fill:#FFFFFF; fill-opacity:1.0; 
stroke:#FFFFFF; stroke-width:0; stroke-opacity:1; 
stroke-linecap:round; stroke-linejoin:round;">
<circle cx="26574.8" cy="14724.4" r="78.7402" /> 
</g>
<g style="fill:#FFFFFF; fill-opacity:1.0; 
stroke:#FFFFFF; stroke-width:39.3701; stroke-opacity:1; 
stroke-linecap:round; stroke-linejoin:round;">
</g>
<g style="fill:#FFFFFF; fill-opacity:1.0; 
stroke:#FFFFFF; stroke-width:0; stroke-opacity:1; 
stroke-linecap:round; stroke-linejoin:round;">
<circle cx="20039.4" cy="13641.7" r="78.7402" /> 
</g>
<g style="fill:#FFFFFF; fill-opacity:1.0; 
stroke:#FFFFFF; stroke-width:39.3701; stroke-opacity:1; 
stroke-linecap:round; stroke-linejoin:round;">
</g>
<g style="fill:#FFFFFF; fill-opacity:1.0; 
stroke:#FFFFFF; stroke-width:0; stroke-opacity:1; 
stroke-linecap:round; stroke-linejoin:round;">
<circle cx="26574.8" cy="13799.2" r="78.7402" /> 
</g>
<g style="fill:#FFFFFF; fill-opacity:1.0; 
stroke:#FFFFFF; stroke-width:39.3701; stroke-opacity:1; 
stroke-linecap:round; stroke-linejoin:round;">
</g>
<g style="fill:#FFFFFF; fill-opacity:1.0; 
stroke:#FFFFFF; stroke-width:0; stroke-opacity:1; 
stroke-linecap:round; stroke-linejoin:round;">
<circle cx="15748" cy="12401.6" r="78.7402" /> 
</g>
<g style="fill:#FFFFFF; fill-opacity:1.0; 
stroke:#FFFFFF; stroke-width:39.3701; stroke-opacity:1; 
stroke-linecap:round; stroke-linejoin:round;">
</g>
<g style="fill:#FFFFFF; fill-opacity:1.0; 
stroke:#FFFFFF; stroke-width:0; stroke-opacity:1; 
stroke-linecap:round; stroke-linejoin:round;">
<circle cx="20035.4" cy="12889.8" r="78.7402" /> 
</g>
<g style="fill:#FFFFFF; fill-opacity:1.0; 
stroke:#FFFFFF; stroke-width:39.3701; stroke-opacity:1; 
stroke-linecap:round; stroke-linejoin:round;">
</g>
<g style="fill:#FFFFFF; fill-opacity:1.0; 
stroke:#FFFFFF; stroke-width:0; stroke-opacity:1; 
stroke-linecap:round; stroke-linejoin:round;">
<circle cx="15748" cy="14960.6" r="150" /> 
</g>
<g style="fill:#FFFFFF; fill-opacity:1.0; 
stroke:#FFFFFF; stroke-width:39.3701; stroke-opacity:1; 
stroke-linecap:round; stroke-linejoin:round;">
</g>
<g style="fill:#FFFFFF; fill-opacity:1.0; 
stroke:#FFFFFF; stroke-width:0; stroke-opacity:1; 
stroke-linecap:round; stroke-linejoin:round;">
<circle cx="13976.4" cy="14960.6" r="150" /> 
</g>
<g style="fill:#FFFFFF; fill-opacity:1.0; 
stroke:#FFFFFF; stroke-width:39.3701; stroke-opacity:1; 
stroke-linecap:round; stroke-linejoin:round;">
</g>
<g style="fill:#FFFFFF; fill-opacity:1.0; 
stroke:#FFFFFF; stroke-width:0; stroke-opacity:1; 
stroke-linecap:round; stroke-linejoin:round;">
<circle cx="15748" cy="12401.6" r="150" /> 
</g>
<g style="fill:#FFFFFF; fill-opacity:1.0; 
stroke:#FFFFFF; stroke-width:39.3701; stroke-opacity:1; 
stroke-linecap:round; stroke-linejoin:round;">
</g>
<g style="fill:#FFFFFF; fill-opacity:1.0; 
stroke:#FFFFFF; stroke-width:0; stroke-opacity:1; 
stroke-linecap:round; stroke-linejoin:round;">
<circle cx="13976.4" cy="12401.6" r="150" /> 
</g>
<g style="fill:#FFFFFF; fill-opacity:1.0; 
stroke:#FFFFFF; stroke-width:39.3701; stroke-opacity:1; 
stroke-linecap:round; stroke-linejoin:round;">
</g>
<g style="fill:#000000; fill-opacity:1.0; 
stroke:#000000; stroke-width:39.3701; stroke-opacity:1; 
stroke-linecap:round; stroke-linejoin:round;">
</g> 
</svg>
