G04 #@! TF.FileFunction,Copper,L2,Bot,Signal*
%FSLAX46Y46*%
G04 Gerber Fmt 4.6, Leading zero omitted, Abs format (unit mm)*
G04 Created by KiCad (PCBNEW 4.0.1-stable) date 1/23/2016 7:41:23 PM*
%MOMM*%
G01*
G04 APERTURE LIST*
%ADD10C,0.100000*%
%ADD11C,0.780000*%
%ADD12C,0.600000*%
%ADD13C,0.250000*%
%ADD14C,0.200000*%
%ADD15C,0.160000*%
G04 APERTURE END LIST*
D10*
D11*
X56450000Y-36100000D03*
X57700000Y-36100000D03*
X57300000Y-39520000D03*
X56050000Y-39550000D03*
D12*
X67050000Y-32750000D03*
X56250000Y-34450000D03*
X61600000Y-35700000D03*
X63900000Y-31400000D03*
X54600000Y-35800000D03*
X60200000Y-31600000D03*
X55550000Y-38100000D03*
X64450000Y-40300000D03*
X54050000Y-37700000D03*
X64400000Y-35275000D03*
X62550000Y-36575000D03*
X54650000Y-41700000D03*
X48000000Y-35500000D03*
X48850000Y-35500000D03*
X62200000Y-41625000D03*
X63525000Y-36525000D03*
X67050000Y-37400000D03*
X57301040Y-33400380D03*
X67050000Y-35100000D03*
X65400000Y-35900000D03*
X57301040Y-32399620D03*
X48850000Y-36950000D03*
X53750000Y-41075000D03*
D13*
X61600000Y-35675000D02*
X62750000Y-34525000D01*
X62750000Y-34525000D02*
X65275000Y-34525000D01*
X67050000Y-32750000D02*
X65275000Y-34525000D01*
X61600000Y-35675000D02*
X61600000Y-35700000D01*
D14*
X61600000Y-35700000D02*
X60350000Y-35700000D01*
X57050000Y-35250000D02*
X56250000Y-34450000D01*
X59900000Y-35250000D02*
X57050000Y-35250000D01*
X60350000Y-35700000D02*
X59900000Y-35250000D01*
X63400000Y-30900000D02*
X63900000Y-31400000D01*
X54100000Y-30900000D02*
X61300000Y-30900000D01*
X53800000Y-31200000D02*
X54100000Y-30900000D01*
X53800000Y-35000000D02*
X53800000Y-31200000D01*
X54600000Y-35800000D02*
X53800000Y-35000000D01*
X61300000Y-30900000D02*
X63400000Y-30900000D01*
X54500000Y-31600000D02*
X60200000Y-31600000D01*
X54300000Y-34100000D02*
X54300000Y-31800000D01*
X54300000Y-31800000D02*
X54500000Y-31600000D01*
X54300000Y-34400000D02*
X54300000Y-34100000D01*
X55500000Y-35600000D02*
X54300000Y-34400000D01*
X55500000Y-38050000D02*
X55500000Y-35600000D01*
X55550000Y-38100000D02*
X55500000Y-38050000D01*
D13*
X64450000Y-40300000D02*
X63950000Y-40800000D01*
X63950000Y-40800000D02*
X55650000Y-40800000D01*
X55650000Y-40800000D02*
X53800000Y-38950000D01*
X53800000Y-38950000D02*
X53800000Y-37950000D01*
X53800000Y-37950000D02*
X54050000Y-37700000D01*
D14*
X63850000Y-35275000D02*
X64400000Y-35275000D01*
X62550000Y-36575000D02*
X63850000Y-35275000D01*
D15*
X50500000Y-40250000D02*
X50962500Y-40712500D01*
X50500000Y-39700000D02*
X50500000Y-40250000D01*
X50300000Y-39500000D02*
X50500000Y-39700000D01*
X50300000Y-38100000D02*
X50300000Y-39500000D01*
X49950000Y-37750000D02*
X50300000Y-38100000D01*
X49500000Y-37750000D02*
X49950000Y-37750000D01*
X53025000Y-41700000D02*
X52037500Y-40712500D01*
X54650000Y-41700000D02*
X53100000Y-41700000D01*
X53100000Y-41700000D02*
X53025000Y-41700000D01*
X49500000Y-37750000D02*
X47250000Y-37750000D01*
X47250000Y-37750000D02*
X47000000Y-37500000D01*
X47000000Y-37500000D02*
X47000000Y-36500000D01*
X47000000Y-36500000D02*
X48000000Y-35500000D01*
X52037500Y-40712500D02*
X50962500Y-40712500D01*
X55200000Y-41325000D02*
X55125000Y-41325000D01*
X55125000Y-41325000D02*
X53175000Y-39375000D01*
X53175000Y-39375000D02*
X53175000Y-39250000D01*
X52925000Y-37225000D02*
X51250000Y-37225000D01*
X53175000Y-37475000D02*
X52925000Y-37225000D01*
X53175000Y-39250000D02*
X53175000Y-37475000D01*
X48850000Y-35500000D02*
X48750000Y-35500000D01*
X51250000Y-37225000D02*
X50725000Y-37225000D01*
X50000000Y-36500000D02*
X49000000Y-35500000D01*
X50725000Y-37225000D02*
X50000000Y-36500000D01*
X51250000Y-37225000D02*
X51150000Y-37225000D01*
X62200000Y-41625000D02*
X62150000Y-41675000D01*
X62150000Y-41675000D02*
X61275000Y-41675000D01*
X61275000Y-41675000D02*
X60925000Y-41325000D01*
X60925000Y-41325000D02*
X55200000Y-41325000D01*
X55200000Y-41325000D02*
X55175000Y-41325000D01*
X67050000Y-37400000D02*
X66750000Y-37400000D01*
X66750000Y-37400000D02*
X65825000Y-37400000D01*
X64950000Y-36525000D02*
X65825000Y-37400000D01*
X64950000Y-36525000D02*
X63525000Y-36525000D01*
X66200000Y-35100000D02*
X67050000Y-35100000D01*
X65400000Y-35900000D02*
X66200000Y-35100000D01*
X51250000Y-39500000D02*
X50900000Y-39500000D01*
X48850000Y-36950000D02*
X48900000Y-37000000D01*
X48900000Y-37000000D02*
X49500000Y-37000000D01*
X52275000Y-39775000D02*
X52000000Y-39500000D01*
X52000000Y-39500000D02*
X51250000Y-39500000D01*
X53200000Y-41075000D02*
X53000000Y-41075000D01*
X53200000Y-41075000D02*
X53750000Y-41075000D01*
X53000000Y-41075000D02*
X52275000Y-40350000D01*
X52275000Y-40350000D02*
X52275000Y-39775000D01*
X49800000Y-37000000D02*
X49500000Y-37000000D01*
X50400000Y-37600000D02*
X49800000Y-37000000D01*
X50600000Y-37600000D02*
X50400000Y-37600000D01*
X50700000Y-37700000D02*
X50600000Y-37600000D01*
X50700000Y-39300000D02*
X50700000Y-37700000D01*
X50900000Y-39500000D02*
X50700000Y-39300000D01*
X53750000Y-41075000D02*
X53750000Y-41000000D01*
M02*
