G04 #@! TF.FileFunction,Legend,Top*
%FSLAX46Y46*%
G04 Gerber Fmt 4.6, Leading zero omitted, Abs format (unit mm)*
G04 Created by KiCad (PCBNEW 4.0.1-3.201512221402+6198~38~ubuntu15.04.1-stable) date Sat 02 Jan 2016 05:41:53 PM EST*
%MOMM*%
G01*
G04 APERTURE LIST*
%ADD10C,0.100000*%
%ADD11C,0.160000*%
%ADD12C,0.250000*%
%ADD13C,0.200000*%
%ADD14C,0.150000*%
%ADD15C,0.030000*%
%ADD16C,0.125000*%
G04 APERTURE END LIST*
D10*
D11*
X56783334Y-33302381D02*
X56783334Y-32302381D01*
X57083334Y-33302381D02*
X57083334Y-32778571D01*
X57050000Y-32683333D01*
X56983334Y-32635714D01*
X56883334Y-32635714D01*
X56816667Y-32683333D01*
X56783334Y-32730952D01*
X57316667Y-32635714D02*
X57583333Y-32635714D01*
X57416667Y-32302381D02*
X57416667Y-33159524D01*
X57450000Y-33254762D01*
X57516667Y-33302381D01*
X57583333Y-33302381D01*
X57716667Y-32635714D02*
X57983333Y-32635714D01*
X57816667Y-32302381D02*
X57816667Y-33159524D01*
X57850000Y-33254762D01*
X57916667Y-33302381D01*
X57983333Y-33302381D01*
X58216667Y-32635714D02*
X58216667Y-33635714D01*
X58216667Y-32683333D02*
X58283333Y-32635714D01*
X58416667Y-32635714D01*
X58483333Y-32683333D01*
X58516667Y-32730952D01*
X58550000Y-32826190D01*
X58550000Y-33111905D01*
X58516667Y-33207143D01*
X58483333Y-33254762D01*
X58416667Y-33302381D01*
X58283333Y-33302381D01*
X58216667Y-33254762D01*
X58816666Y-33254762D02*
X58883333Y-33302381D01*
X59016666Y-33302381D01*
X59083333Y-33254762D01*
X59116666Y-33159524D01*
X59116666Y-33111905D01*
X59083333Y-33016667D01*
X59016666Y-32969048D01*
X58916666Y-32969048D01*
X58850000Y-32921429D01*
X58816666Y-32826190D01*
X58816666Y-32778571D01*
X58850000Y-32683333D01*
X58916666Y-32635714D01*
X59016666Y-32635714D01*
X59083333Y-32683333D01*
X59416667Y-33207143D02*
X59450000Y-33254762D01*
X59416667Y-33302381D01*
X59383333Y-33254762D01*
X59416667Y-33207143D01*
X59416667Y-33302381D01*
X59416667Y-32683333D02*
X59450000Y-32730952D01*
X59416667Y-32778571D01*
X59383333Y-32730952D01*
X59416667Y-32683333D01*
X59416667Y-32778571D01*
X60250000Y-32254762D02*
X59650000Y-33540476D01*
X60983333Y-32254762D02*
X60383333Y-33540476D01*
X61349999Y-32302381D02*
X61416666Y-32302381D01*
X61483332Y-32350000D01*
X61516666Y-32397619D01*
X61549999Y-32492857D01*
X61583332Y-32683333D01*
X61583332Y-32921429D01*
X61549999Y-33111905D01*
X61516666Y-33207143D01*
X61483332Y-33254762D01*
X61416666Y-33302381D01*
X61349999Y-33302381D01*
X61283332Y-33254762D01*
X61249999Y-33207143D01*
X61216666Y-33111905D01*
X61183332Y-32921429D01*
X61183332Y-32683333D01*
X61216666Y-32492857D01*
X61249999Y-32397619D01*
X61283332Y-32350000D01*
X61349999Y-32302381D01*
X61816666Y-33302381D02*
X62183333Y-32635714D01*
X61816666Y-32635714D02*
X62183333Y-33302381D01*
X62816666Y-33302381D02*
X62416666Y-33302381D01*
X62616666Y-33302381D02*
X62616666Y-32302381D01*
X62550000Y-32445238D01*
X62483333Y-32540476D01*
X62416666Y-32588095D01*
X63083333Y-32397619D02*
X63116667Y-32350000D01*
X63183333Y-32302381D01*
X63350000Y-32302381D01*
X63416667Y-32350000D01*
X63450000Y-32397619D01*
X63483333Y-32492857D01*
X63483333Y-32588095D01*
X63450000Y-32730952D01*
X63050000Y-33302381D01*
X63483333Y-33302381D01*
X63716667Y-32302381D02*
X64150000Y-32302381D01*
X63916667Y-32683333D01*
X64016667Y-32683333D01*
X64083334Y-32730952D01*
X64116667Y-32778571D01*
X64150000Y-32873810D01*
X64150000Y-33111905D01*
X64116667Y-33207143D01*
X64083334Y-33254762D01*
X64016667Y-33302381D01*
X63816667Y-33302381D01*
X63750000Y-33254762D01*
X63716667Y-33207143D01*
X64450001Y-33207143D02*
X64483334Y-33254762D01*
X64450001Y-33302381D01*
X64416667Y-33254762D01*
X64450001Y-33207143D01*
X64450001Y-33302381D01*
X64716667Y-33302381D02*
X65083334Y-32635714D01*
X64716667Y-32635714D02*
X65083334Y-33302381D01*
X65283334Y-32635714D02*
X65450001Y-33302381D01*
X65616667Y-32635714D02*
X65450001Y-33302381D01*
X65383334Y-33540476D01*
X65350001Y-33588095D01*
X65283334Y-33635714D01*
X65816667Y-32635714D02*
X66183334Y-32635714D01*
X65816667Y-33302381D01*
X66183334Y-33302381D01*
D12*
X57876190Y-30538095D02*
X57876190Y-31590476D01*
X57923809Y-31714286D01*
X57971428Y-31776190D01*
X58066666Y-31838095D01*
X58257143Y-31838095D01*
X58352381Y-31776190D01*
X58400000Y-31714286D01*
X58447619Y-31590476D01*
X58447619Y-30538095D01*
X58876190Y-30661905D02*
X58923809Y-30600000D01*
X59019047Y-30538095D01*
X59257143Y-30538095D01*
X59352381Y-30600000D01*
X59400000Y-30661905D01*
X59447619Y-30785714D01*
X59447619Y-30909524D01*
X59400000Y-31095238D01*
X58828571Y-31838095D01*
X59447619Y-31838095D01*
X60209524Y-31157143D02*
X59876190Y-31157143D01*
X59876190Y-31838095D02*
X59876190Y-30538095D01*
X60352381Y-30538095D01*
X61400000Y-30538095D02*
X62066667Y-30538095D01*
X61400000Y-31838095D01*
X62066667Y-31838095D01*
X62447619Y-31157143D02*
X62780953Y-31157143D01*
X62923810Y-31838095D02*
X62447619Y-31838095D01*
X62447619Y-30538095D01*
X62923810Y-30538095D01*
X63923810Y-31838095D02*
X63590476Y-31219048D01*
X63352381Y-31838095D02*
X63352381Y-30538095D01*
X63733334Y-30538095D01*
X63828572Y-30600000D01*
X63876191Y-30661905D01*
X63923810Y-30785714D01*
X63923810Y-30971429D01*
X63876191Y-31095238D01*
X63828572Y-31157143D01*
X63733334Y-31219048D01*
X63352381Y-31219048D01*
X64542857Y-30538095D02*
X64733334Y-30538095D01*
X64828572Y-30600000D01*
X64923810Y-30723810D01*
X64971429Y-30971429D01*
X64971429Y-31404762D01*
X64923810Y-31652381D01*
X64828572Y-31776190D01*
X64733334Y-31838095D01*
X64542857Y-31838095D01*
X64447619Y-31776190D01*
X64352381Y-31652381D01*
X64304762Y-31404762D01*
X64304762Y-30971429D01*
X64352381Y-30723810D01*
X64447619Y-30600000D01*
X64542857Y-30538095D01*
D13*
X37842221Y-40600000D02*
G75*
G03X37842221Y-40600000I-1442221J0D01*
G01*
D14*
X41000000Y-39000000D02*
X34500000Y-39000000D01*
X34500000Y-39000000D02*
X34500000Y-30500000D01*
X34500000Y-30500000D02*
X41000000Y-30500000D01*
X41000000Y-30500000D02*
X41000000Y-39000000D01*
X58344000Y-41310000D02*
X58344000Y-36230000D01*
X58344000Y-36230000D02*
X62916000Y-36230000D01*
X62916000Y-36230000D02*
X62916000Y-41310000D01*
X62916000Y-41310000D02*
X58344000Y-41310000D01*
X59868000Y-41310000D02*
X59868000Y-40802000D01*
X59868000Y-40802000D02*
X61138000Y-40802000D01*
X61138000Y-40802000D02*
X61138000Y-41310000D01*
X47525000Y-34000000D02*
X47525000Y-34500000D01*
X48475000Y-34500000D02*
X48475000Y-34000000D01*
X45650000Y-34600000D02*
X45650000Y-33900000D01*
X46850000Y-33900000D02*
X46850000Y-34600000D01*
X54500000Y-38755000D02*
X54000000Y-38755000D01*
X54000000Y-39705000D02*
X54500000Y-39705000D01*
X54600000Y-38120000D02*
X53900000Y-38120000D01*
X53900000Y-36920000D02*
X54600000Y-36920000D01*
D15*
X52651421Y-32480000D02*
G75*
G03X52651421Y-32480000I-141421J0D01*
G01*
X52010000Y-31980000D02*
X56510000Y-31980000D01*
X56510000Y-31980000D02*
X56510000Y-36480000D01*
X56510000Y-36480000D02*
X52010000Y-36480000D01*
X52010000Y-36480000D02*
X52010000Y-31980000D01*
D14*
X44970000Y-39545000D02*
X45970000Y-39545000D01*
X45970000Y-40895000D02*
X44970000Y-40895000D01*
X50809020Y-38880900D02*
X48710980Y-38880900D01*
X48710980Y-38880900D02*
X48710980Y-37179100D01*
X48710980Y-37179100D02*
X50809020Y-37179100D01*
X50809020Y-37179100D02*
X50809020Y-38880900D01*
D15*
X42492000Y-34865000D02*
X44397000Y-34865000D01*
X44397000Y-34865000D02*
X44397000Y-37532000D01*
X44397000Y-37532000D02*
X42492000Y-37532000D01*
X42492000Y-37532000D02*
X42492000Y-34865000D01*
D16*
X36833334Y-35202381D02*
X36904763Y-35226190D01*
X37023810Y-35226190D01*
X37071429Y-35202381D01*
X37095239Y-35178571D01*
X37119048Y-35130952D01*
X37119048Y-35083333D01*
X37095239Y-35035714D01*
X37071429Y-35011905D01*
X37023810Y-34988095D01*
X36928572Y-34964286D01*
X36880953Y-34940476D01*
X36857144Y-34916667D01*
X36833334Y-34869048D01*
X36833334Y-34821429D01*
X36857144Y-34773810D01*
X36880953Y-34750000D01*
X36928572Y-34726190D01*
X37047620Y-34726190D01*
X37119048Y-34750000D01*
X37285715Y-34726190D02*
X37404762Y-35226190D01*
X37500000Y-34869048D01*
X37595238Y-35226190D01*
X37714286Y-34726190D01*
X38166667Y-35226190D02*
X37880953Y-35226190D01*
X38023810Y-35226190D02*
X38023810Y-34726190D01*
X37976191Y-34797619D01*
X37928572Y-34845238D01*
X37880953Y-34869048D01*
D14*
X59526667Y-39484286D02*
X59526667Y-39008095D01*
X59812381Y-39579524D02*
X58812381Y-39246191D01*
X59812381Y-38912857D01*
X59812381Y-38055714D02*
X59812381Y-38627143D01*
X59812381Y-38341429D02*
X58812381Y-38341429D01*
X58955238Y-38436667D01*
X59050476Y-38531905D01*
X59098095Y-38627143D01*
D16*
X47018571Y-34418333D02*
X47042381Y-34442143D01*
X47066190Y-34513571D01*
X47066190Y-34561190D01*
X47042381Y-34632619D01*
X46994762Y-34680238D01*
X46947143Y-34704047D01*
X46851905Y-34727857D01*
X46780476Y-34727857D01*
X46685238Y-34704047D01*
X46637619Y-34680238D01*
X46590000Y-34632619D01*
X46566190Y-34561190D01*
X46566190Y-34513571D01*
X46590000Y-34442143D01*
X46613810Y-34418333D01*
X47066190Y-33942143D02*
X47066190Y-34227857D01*
X47066190Y-34085000D02*
X46566190Y-34085000D01*
X46637619Y-34132619D01*
X46685238Y-34180238D01*
X46709048Y-34227857D01*
X45168571Y-34338333D02*
X45192381Y-34362143D01*
X45216190Y-34433571D01*
X45216190Y-34481190D01*
X45192381Y-34552619D01*
X45144762Y-34600238D01*
X45097143Y-34624047D01*
X45001905Y-34647857D01*
X44930476Y-34647857D01*
X44835238Y-34624047D01*
X44787619Y-34600238D01*
X44740000Y-34552619D01*
X44716190Y-34481190D01*
X44716190Y-34433571D01*
X44740000Y-34362143D01*
X44763810Y-34338333D01*
X44763810Y-34147857D02*
X44740000Y-34124047D01*
X44716190Y-34076428D01*
X44716190Y-33957381D01*
X44740000Y-33909762D01*
X44763810Y-33885952D01*
X44811429Y-33862143D01*
X44859048Y-33862143D01*
X44930476Y-33885952D01*
X45216190Y-34171666D01*
X45216190Y-33862143D01*
X52416667Y-39388571D02*
X52392857Y-39412381D01*
X52321429Y-39436190D01*
X52273810Y-39436190D01*
X52202381Y-39412381D01*
X52154762Y-39364762D01*
X52130953Y-39317143D01*
X52107143Y-39221905D01*
X52107143Y-39150476D01*
X52130953Y-39055238D01*
X52154762Y-39007619D01*
X52202381Y-38960000D01*
X52273810Y-38936190D01*
X52321429Y-38936190D01*
X52392857Y-38960000D01*
X52416667Y-38983810D01*
X52583334Y-38936190D02*
X52892857Y-38936190D01*
X52726191Y-39126667D01*
X52797619Y-39126667D01*
X52845238Y-39150476D01*
X52869048Y-39174286D01*
X52892857Y-39221905D01*
X52892857Y-39340952D01*
X52869048Y-39388571D01*
X52845238Y-39412381D01*
X52797619Y-39436190D01*
X52654762Y-39436190D01*
X52607143Y-39412381D01*
X52583334Y-39388571D01*
X52136667Y-37688571D02*
X52112857Y-37712381D01*
X52041429Y-37736190D01*
X51993810Y-37736190D01*
X51922381Y-37712381D01*
X51874762Y-37664762D01*
X51850953Y-37617143D01*
X51827143Y-37521905D01*
X51827143Y-37450476D01*
X51850953Y-37355238D01*
X51874762Y-37307619D01*
X51922381Y-37260000D01*
X51993810Y-37236190D01*
X52041429Y-37236190D01*
X52112857Y-37260000D01*
X52136667Y-37283810D01*
X52565238Y-37402857D02*
X52565238Y-37736190D01*
X52446191Y-37212381D02*
X52327143Y-37569524D01*
X52636667Y-37569524D01*
D10*
X52664763Y-31444286D02*
X52831429Y-31444286D01*
X52902858Y-31706190D02*
X52664763Y-31706190D01*
X52664763Y-31206190D01*
X52902858Y-31206190D01*
X53379048Y-31706190D02*
X53093334Y-31706190D01*
X53236191Y-31706190D02*
X53236191Y-31206190D01*
X53188572Y-31277619D01*
X53140953Y-31325238D01*
X53093334Y-31349048D01*
D16*
X45826190Y-42013333D02*
X45588095Y-42180000D01*
X45826190Y-42299047D02*
X45326190Y-42299047D01*
X45326190Y-42108571D01*
X45350000Y-42060952D01*
X45373810Y-42037143D01*
X45421429Y-42013333D01*
X45492857Y-42013333D01*
X45540476Y-42037143D01*
X45564286Y-42060952D01*
X45588095Y-42108571D01*
X45588095Y-42299047D01*
X45826190Y-41537143D02*
X45826190Y-41822857D01*
X45826190Y-41680000D02*
X45326190Y-41680000D01*
X45397619Y-41727619D01*
X45445238Y-41775238D01*
X45469048Y-41822857D01*
X49315239Y-36406190D02*
X49648572Y-36406190D01*
X49315239Y-36906190D01*
X49648572Y-36906190D01*
X50100952Y-36906190D02*
X49815238Y-36906190D01*
X49958095Y-36906190D02*
X49958095Y-36406190D01*
X49910476Y-36477619D01*
X49862857Y-36525238D01*
X49815238Y-36549048D01*
D10*
X43038794Y-34492232D02*
X42905460Y-34301756D01*
X42810222Y-34492232D02*
X42810222Y-34092232D01*
X42962603Y-34092232D01*
X43000698Y-34111280D01*
X43019746Y-34130328D01*
X43038794Y-34168423D01*
X43038794Y-34225566D01*
X43019746Y-34263661D01*
X43000698Y-34282709D01*
X42962603Y-34301756D01*
X42810222Y-34301756D01*
X43419746Y-34111280D02*
X43381651Y-34092232D01*
X43324508Y-34092232D01*
X43267365Y-34111280D01*
X43229270Y-34149375D01*
X43210222Y-34187470D01*
X43191174Y-34263661D01*
X43191174Y-34320804D01*
X43210222Y-34396994D01*
X43229270Y-34435090D01*
X43267365Y-34473185D01*
X43324508Y-34492232D01*
X43362603Y-34492232D01*
X43419746Y-34473185D01*
X43438794Y-34454137D01*
X43438794Y-34320804D01*
X43362603Y-34320804D01*
X43743555Y-34282709D02*
X43800698Y-34301756D01*
X43819746Y-34320804D01*
X43838794Y-34358899D01*
X43838794Y-34416042D01*
X43819746Y-34454137D01*
X43800698Y-34473185D01*
X43762603Y-34492232D01*
X43610222Y-34492232D01*
X43610222Y-34092232D01*
X43743555Y-34092232D01*
X43781651Y-34111280D01*
X43800698Y-34130328D01*
X43819746Y-34168423D01*
X43819746Y-34206518D01*
X43800698Y-34244613D01*
X43781651Y-34263661D01*
X43743555Y-34282709D01*
X43610222Y-34282709D01*
X44219746Y-34492232D02*
X43991174Y-34492232D01*
X44105460Y-34492232D02*
X44105460Y-34092232D01*
X44067365Y-34149375D01*
X44029270Y-34187470D01*
X43991174Y-34206518D01*
M02*
