G04 #@! TF.FileFunction,Copper,L2,Bot,Signal*
%FSLAX46Y46*%
G04 Gerber Fmt 4.6, Leading zero omitted, Abs format (unit mm)*
G04 Created by KiCad (PCBNEW 4.0.1-3.201512221402+6198~38~ubuntu15.04.1-stable) date Sat 02 Jan 2016 12:46:19 AM EST*
%MOMM*%
G01*
G04 APERTURE LIST*
%ADD10C,0.100000*%
%ADD11C,1.524000*%
%ADD12C,0.600000*%
%ADD13C,0.250000*%
G04 APERTURE END LIST*
D10*
D11*
X40000000Y-38000000D03*
X35500000Y-38000000D03*
X40000000Y-31500000D03*
X35500000Y-31500000D03*
D12*
X62300000Y-38850000D03*
X46200000Y-40240000D03*
X53500000Y-37520000D03*
X55000000Y-37520000D03*
X64355000Y-36285000D03*
X49750000Y-33950000D03*
X57560000Y-34940000D03*
X47400000Y-35400000D03*
X51350000Y-36910000D03*
X68100000Y-37400000D03*
X51450000Y-35250000D03*
X50900000Y-34650000D03*
X68100000Y-35100000D03*
X40000000Y-31500000D03*
X50890000Y-32740000D03*
D13*
X53500000Y-37520000D02*
X53620000Y-37520000D01*
X54950000Y-38850000D02*
X62300000Y-38850000D01*
X53620000Y-37520000D02*
X54950000Y-38850000D01*
X53500000Y-37520000D02*
X52340000Y-37520000D01*
X49620000Y-40240000D02*
X46200000Y-40240000D01*
X52340000Y-37520000D02*
X49620000Y-40240000D01*
X50400000Y-35950000D02*
X49750000Y-33950000D01*
X55000000Y-37520000D02*
X54870000Y-37520000D01*
X54870000Y-37520000D02*
X53400000Y-36050000D01*
X53400000Y-36050000D02*
X50300000Y-36050000D01*
X50300000Y-36050000D02*
X50400000Y-35950000D01*
X49750000Y-33950000D02*
X48770000Y-33970000D01*
X48700000Y-33900000D02*
X45400000Y-33900000D01*
X45400000Y-33900000D02*
X40000000Y-38000000D01*
X48770000Y-33970000D02*
X48700000Y-33900000D01*
X57560000Y-34940000D02*
X57560000Y-34960000D01*
X57560000Y-34960000D02*
X55000000Y-37520000D01*
X48905000Y-36860000D02*
X51350000Y-36910000D01*
X47430000Y-35385000D02*
X48905000Y-36860000D01*
X68100000Y-37400000D02*
X61350000Y-37400000D01*
X58050000Y-34100000D02*
X61350000Y-37400000D01*
X52600000Y-34100000D02*
X58050000Y-34100000D01*
X51450000Y-35250000D02*
X52600000Y-34100000D01*
X68100000Y-35100000D02*
X61350000Y-35100000D01*
X59750000Y-33500000D02*
X61350000Y-35100000D01*
X52050000Y-33500000D02*
X59750000Y-33500000D01*
X50900000Y-34650000D02*
X52050000Y-33500000D01*
X50890000Y-32740000D02*
X40060000Y-31440000D01*
X50890000Y-32740000D02*
X50850000Y-32700000D01*
M02*
