G04 #@! TF.FileFunction,Legend,Top*
%FSLAX46Y46*%
G04 Gerber Fmt 4.6, Leading zero omitted, Abs format (unit mm)*
G04 Created by KiCad (PCBNEW 4.0.1-3.201512221402+6198~38~ubuntu15.04.1-stable) date Sat 02 Jan 2016 12:46:19 AM EST*
%MOMM*%
G01*
G04 APERTURE LIST*
%ADD10C,0.100000*%
%ADD11C,0.200000*%
%ADD12C,0.150000*%
%ADD13C,0.030000*%
%ADD14C,0.125000*%
G04 APERTURE END LIST*
D10*
D11*
X37342221Y-40600000D02*
G75*
G03X37342221Y-40600000I-1442221J0D01*
G01*
D12*
X41000000Y-39000000D02*
X34500000Y-39000000D01*
X34500000Y-39000000D02*
X34500000Y-30500000D01*
X34500000Y-30500000D02*
X41000000Y-30500000D01*
X41000000Y-30500000D02*
X41000000Y-39000000D01*
X58894000Y-40690000D02*
X58894000Y-35610000D01*
X58894000Y-35610000D02*
X63466000Y-35610000D01*
X63466000Y-35610000D02*
X63466000Y-40690000D01*
X63466000Y-40690000D02*
X58894000Y-40690000D01*
X60418000Y-40690000D02*
X60418000Y-40182000D01*
X60418000Y-40182000D02*
X61688000Y-40182000D01*
X61688000Y-40182000D02*
X61688000Y-40690000D01*
X46925000Y-34600000D02*
X46925000Y-35100000D01*
X47875000Y-35100000D02*
X47875000Y-34600000D01*
X44790000Y-35235000D02*
X44790000Y-34535000D01*
X45990000Y-34535000D02*
X45990000Y-35235000D01*
X54500000Y-38755000D02*
X54000000Y-38755000D01*
X54000000Y-39705000D02*
X54500000Y-39705000D01*
X54600000Y-38120000D02*
X53900000Y-38120000D01*
X53900000Y-36920000D02*
X54600000Y-36920000D01*
D13*
X52651421Y-32480000D02*
G75*
G03X52651421Y-32480000I-141421J0D01*
G01*
X52010000Y-31980000D02*
X56510000Y-31980000D01*
X56510000Y-31980000D02*
X56510000Y-36480000D01*
X56510000Y-36480000D02*
X52010000Y-36480000D01*
X52010000Y-36480000D02*
X52010000Y-31980000D01*
D12*
X44970000Y-39545000D02*
X45970000Y-39545000D01*
X45970000Y-40895000D02*
X44970000Y-40895000D01*
X50809020Y-38880900D02*
X48710980Y-38880900D01*
X48710980Y-38880900D02*
X48710980Y-37179100D01*
X48710980Y-37179100D02*
X50809020Y-37179100D01*
X50809020Y-37179100D02*
X50809020Y-38880900D01*
D13*
X41192000Y-34565000D02*
X43097000Y-34565000D01*
X43097000Y-34565000D02*
X43097000Y-37232000D01*
X43097000Y-37232000D02*
X41192000Y-37232000D01*
X41192000Y-37232000D02*
X41192000Y-34565000D01*
D14*
X36833334Y-35202381D02*
X36904763Y-35226190D01*
X37023810Y-35226190D01*
X37071429Y-35202381D01*
X37095239Y-35178571D01*
X37119048Y-35130952D01*
X37119048Y-35083333D01*
X37095239Y-35035714D01*
X37071429Y-35011905D01*
X37023810Y-34988095D01*
X36928572Y-34964286D01*
X36880953Y-34940476D01*
X36857144Y-34916667D01*
X36833334Y-34869048D01*
X36833334Y-34821429D01*
X36857144Y-34773810D01*
X36880953Y-34750000D01*
X36928572Y-34726190D01*
X37047620Y-34726190D01*
X37119048Y-34750000D01*
X37285715Y-34726190D02*
X37404762Y-35226190D01*
X37500000Y-34869048D01*
X37595238Y-35226190D01*
X37714286Y-34726190D01*
X38166667Y-35226190D02*
X37880953Y-35226190D01*
X38023810Y-35226190D02*
X38023810Y-34726190D01*
X37976191Y-34797619D01*
X37928572Y-34845238D01*
X37880953Y-34869048D01*
D12*
X60076667Y-38864286D02*
X60076667Y-38388095D01*
X60362381Y-38959524D02*
X59362381Y-38626191D01*
X60362381Y-38292857D01*
X60362381Y-37435714D02*
X60362381Y-38007143D01*
X60362381Y-37721429D02*
X59362381Y-37721429D01*
X59505238Y-37816667D01*
X59600476Y-37911905D01*
X59648095Y-38007143D01*
D14*
X46418571Y-35018333D02*
X46442381Y-35042143D01*
X46466190Y-35113571D01*
X46466190Y-35161190D01*
X46442381Y-35232619D01*
X46394762Y-35280238D01*
X46347143Y-35304047D01*
X46251905Y-35327857D01*
X46180476Y-35327857D01*
X46085238Y-35304047D01*
X46037619Y-35280238D01*
X45990000Y-35232619D01*
X45966190Y-35161190D01*
X45966190Y-35113571D01*
X45990000Y-35042143D01*
X46013810Y-35018333D01*
X46466190Y-34542143D02*
X46466190Y-34827857D01*
X46466190Y-34685000D02*
X45966190Y-34685000D01*
X46037619Y-34732619D01*
X46085238Y-34780238D01*
X46109048Y-34827857D01*
X44308571Y-34973333D02*
X44332381Y-34997143D01*
X44356190Y-35068571D01*
X44356190Y-35116190D01*
X44332381Y-35187619D01*
X44284762Y-35235238D01*
X44237143Y-35259047D01*
X44141905Y-35282857D01*
X44070476Y-35282857D01*
X43975238Y-35259047D01*
X43927619Y-35235238D01*
X43880000Y-35187619D01*
X43856190Y-35116190D01*
X43856190Y-35068571D01*
X43880000Y-34997143D01*
X43903810Y-34973333D01*
X43903810Y-34782857D02*
X43880000Y-34759047D01*
X43856190Y-34711428D01*
X43856190Y-34592381D01*
X43880000Y-34544762D01*
X43903810Y-34520952D01*
X43951429Y-34497143D01*
X43999048Y-34497143D01*
X44070476Y-34520952D01*
X44356190Y-34806666D01*
X44356190Y-34497143D01*
X52416667Y-39388571D02*
X52392857Y-39412381D01*
X52321429Y-39436190D01*
X52273810Y-39436190D01*
X52202381Y-39412381D01*
X52154762Y-39364762D01*
X52130953Y-39317143D01*
X52107143Y-39221905D01*
X52107143Y-39150476D01*
X52130953Y-39055238D01*
X52154762Y-39007619D01*
X52202381Y-38960000D01*
X52273810Y-38936190D01*
X52321429Y-38936190D01*
X52392857Y-38960000D01*
X52416667Y-38983810D01*
X52583334Y-38936190D02*
X52892857Y-38936190D01*
X52726191Y-39126667D01*
X52797619Y-39126667D01*
X52845238Y-39150476D01*
X52869048Y-39174286D01*
X52892857Y-39221905D01*
X52892857Y-39340952D01*
X52869048Y-39388571D01*
X52845238Y-39412381D01*
X52797619Y-39436190D01*
X52654762Y-39436190D01*
X52607143Y-39412381D01*
X52583334Y-39388571D01*
X52136667Y-37688571D02*
X52112857Y-37712381D01*
X52041429Y-37736190D01*
X51993810Y-37736190D01*
X51922381Y-37712381D01*
X51874762Y-37664762D01*
X51850953Y-37617143D01*
X51827143Y-37521905D01*
X51827143Y-37450476D01*
X51850953Y-37355238D01*
X51874762Y-37307619D01*
X51922381Y-37260000D01*
X51993810Y-37236190D01*
X52041429Y-37236190D01*
X52112857Y-37260000D01*
X52136667Y-37283810D01*
X52565238Y-37402857D02*
X52565238Y-37736190D01*
X52446191Y-37212381D02*
X52327143Y-37569524D01*
X52636667Y-37569524D01*
D10*
X52664763Y-31444286D02*
X52831429Y-31444286D01*
X52902858Y-31706190D02*
X52664763Y-31706190D01*
X52664763Y-31206190D01*
X52902858Y-31206190D01*
X53379048Y-31706190D02*
X53093334Y-31706190D01*
X53236191Y-31706190D02*
X53236191Y-31206190D01*
X53188572Y-31277619D01*
X53140953Y-31325238D01*
X53093334Y-31349048D01*
D14*
X45826190Y-42013333D02*
X45588095Y-42180000D01*
X45826190Y-42299047D02*
X45326190Y-42299047D01*
X45326190Y-42108571D01*
X45350000Y-42060952D01*
X45373810Y-42037143D01*
X45421429Y-42013333D01*
X45492857Y-42013333D01*
X45540476Y-42037143D01*
X45564286Y-42060952D01*
X45588095Y-42108571D01*
X45588095Y-42299047D01*
X45826190Y-41537143D02*
X45826190Y-41822857D01*
X45826190Y-41680000D02*
X45326190Y-41680000D01*
X45397619Y-41727619D01*
X45445238Y-41775238D01*
X45469048Y-41822857D01*
X49315239Y-36406190D02*
X49648572Y-36406190D01*
X49315239Y-36906190D01*
X49648572Y-36906190D01*
X50100952Y-36906190D02*
X49815238Y-36906190D01*
X49958095Y-36906190D02*
X49958095Y-36406190D01*
X49910476Y-36477619D01*
X49862857Y-36525238D01*
X49815238Y-36549048D01*
D10*
X41738794Y-34192232D02*
X41605460Y-34001756D01*
X41510222Y-34192232D02*
X41510222Y-33792232D01*
X41662603Y-33792232D01*
X41700698Y-33811280D01*
X41719746Y-33830328D01*
X41738794Y-33868423D01*
X41738794Y-33925566D01*
X41719746Y-33963661D01*
X41700698Y-33982709D01*
X41662603Y-34001756D01*
X41510222Y-34001756D01*
X42119746Y-33811280D02*
X42081651Y-33792232D01*
X42024508Y-33792232D01*
X41967365Y-33811280D01*
X41929270Y-33849375D01*
X41910222Y-33887470D01*
X41891174Y-33963661D01*
X41891174Y-34020804D01*
X41910222Y-34096994D01*
X41929270Y-34135090D01*
X41967365Y-34173185D01*
X42024508Y-34192232D01*
X42062603Y-34192232D01*
X42119746Y-34173185D01*
X42138794Y-34154137D01*
X42138794Y-34020804D01*
X42062603Y-34020804D01*
X42443555Y-33982709D02*
X42500698Y-34001756D01*
X42519746Y-34020804D01*
X42538794Y-34058899D01*
X42538794Y-34116042D01*
X42519746Y-34154137D01*
X42500698Y-34173185D01*
X42462603Y-34192232D01*
X42310222Y-34192232D01*
X42310222Y-33792232D01*
X42443555Y-33792232D01*
X42481651Y-33811280D01*
X42500698Y-33830328D01*
X42519746Y-33868423D01*
X42519746Y-33906518D01*
X42500698Y-33944613D01*
X42481651Y-33963661D01*
X42443555Y-33982709D01*
X42310222Y-33982709D01*
X42919746Y-34192232D02*
X42691174Y-34192232D01*
X42805460Y-34192232D02*
X42805460Y-33792232D01*
X42767365Y-33849375D01*
X42729270Y-33887470D01*
X42691174Y-33906518D01*
M02*
