G04 #@! TF.FileFunction,Copper,L1,Top,Signal*
%FSLAX46Y46*%
G04 Gerber Fmt 4.6, Leading zero omitted, Abs format (unit mm)*
G04 Created by KiCad (PCBNEW 4.0.1-3.201512221402+6198~38~ubuntu15.04.1-stable) date Sat 02 Jan 2016 12:46:19 AM EST*
%MOMM*%
G01*
G04 APERTURE LIST*
%ADD10C,0.100000*%
%ADD11C,1.524000*%
%ADD12R,1.143000X0.508000*%
%ADD13R,0.500000X0.600000*%
%ADD14R,0.750000X0.800000*%
%ADD15R,0.600000X0.500000*%
%ADD16R,0.800000X0.750000*%
%ADD17R,0.300000X0.300000*%
%ADD18R,0.900000X0.300000*%
%ADD19R,0.300000X0.900000*%
%ADD20R,1.800000X1.800000*%
%ADD21R,0.500000X0.900000*%
%ADD22R,0.449580X0.299720*%
%ADD23R,0.650000X0.850000*%
%ADD24C,0.600000*%
%ADD25C,0.250000*%
%ADD26C,0.254000*%
G04 APERTURE END LIST*
D10*
D11*
X40000000Y-38000000D03*
X35500000Y-38000000D03*
X40000000Y-31500000D03*
X35500000Y-31500000D03*
D12*
X58005000Y-40055000D03*
X58005000Y-38785000D03*
X58005000Y-37515000D03*
X58005000Y-36245000D03*
X64355000Y-36245000D03*
X64355000Y-37515000D03*
X64355000Y-38785000D03*
X64355000Y-40055000D03*
D13*
X47400000Y-35400000D03*
X47400000Y-34300000D03*
D14*
X45390000Y-35635000D03*
X45390000Y-34135000D03*
D15*
X53700000Y-39230000D03*
X54800000Y-39230000D03*
D16*
X55000000Y-37520000D03*
X53500000Y-37520000D03*
D17*
X53010000Y-35480000D03*
X53010000Y-32980000D03*
D18*
X52710000Y-33480000D03*
X52710000Y-33980000D03*
X52710000Y-34480000D03*
X52710000Y-34980000D03*
D19*
X53510000Y-35780000D03*
X54010000Y-35780000D03*
X54510000Y-35780000D03*
X55010000Y-35780000D03*
D17*
X55510000Y-35480000D03*
D18*
X55810000Y-34980000D03*
X55810000Y-34480000D03*
X55810000Y-33980000D03*
X55810000Y-33480000D03*
D17*
X55510000Y-32980000D03*
D19*
X55010000Y-32680000D03*
X54510000Y-32680000D03*
X54010000Y-32680000D03*
X53510000Y-32680000D03*
D20*
X54260000Y-34230000D03*
D21*
X46220000Y-40220000D03*
X44720000Y-40220000D03*
D22*
X50461040Y-38530380D03*
X50461040Y-37529620D03*
X49058960Y-38530380D03*
X50461040Y-38030000D03*
X49058960Y-37529620D03*
D23*
X41700000Y-35200000D03*
X42550000Y-35200000D03*
X42550000Y-36650000D03*
X41700000Y-36650000D03*
D24*
X62300000Y-38850000D03*
X46200000Y-40240000D03*
X53500000Y-37520000D03*
X55000000Y-37520000D03*
X64355000Y-36285000D03*
X49750000Y-33950000D03*
X57560000Y-34940000D03*
X47400000Y-35400000D03*
X51350000Y-36910000D03*
X68100000Y-37400000D03*
X51450000Y-35250000D03*
X50900000Y-34650000D03*
X68100000Y-35100000D03*
X40000000Y-31500000D03*
X50890000Y-32740000D03*
D25*
X66250000Y-32600000D02*
X68250000Y-32600000D01*
X62300000Y-36550000D02*
X66250000Y-32600000D01*
X62300000Y-38850000D02*
X62300000Y-36550000D01*
X46200000Y-40240000D02*
X46130000Y-40170000D01*
X46130000Y-40170000D02*
X46130000Y-40070000D01*
X50461040Y-37529620D02*
X53365380Y-37654620D01*
X53365380Y-37654620D02*
X53500000Y-37520000D01*
X53500000Y-37520000D02*
X53530000Y-35500000D01*
X53530000Y-35500000D02*
X53510000Y-35480000D01*
X53700000Y-39230000D02*
X53700000Y-37720000D01*
X53700000Y-37720000D02*
X53500000Y-37520000D01*
X58005000Y-37515000D02*
X57545000Y-37515000D01*
X57545000Y-37515000D02*
X55510000Y-35480000D01*
X55550000Y-35520000D02*
X55510000Y-35480000D01*
X58005000Y-36245000D02*
X58005000Y-36045000D01*
X58005000Y-36045000D02*
X58770000Y-35280000D01*
X58770000Y-35280000D02*
X58770000Y-34660000D01*
X58770000Y-34660000D02*
X58140000Y-34030000D01*
X58140000Y-34030000D02*
X57340000Y-34030000D01*
X57340000Y-34030000D02*
X56890000Y-34480000D01*
X56890000Y-34480000D02*
X55510000Y-34480000D01*
X47400000Y-34300000D02*
X49400000Y-34300000D01*
X49400000Y-34300000D02*
X49750000Y-33950000D01*
X45390000Y-34135000D02*
X47235000Y-34135000D01*
X47235000Y-34135000D02*
X47400000Y-34300000D01*
X67800654Y-39749346D02*
X67850000Y-39700000D01*
X65650790Y-39749346D02*
X67800654Y-39749346D01*
X65650790Y-39749346D02*
X65672000Y-36442000D01*
X35500000Y-38000000D02*
X40000000Y-38000000D01*
X50461040Y-38030000D02*
X51520000Y-38030000D01*
X51520000Y-38030000D02*
X52200000Y-38710000D01*
X64355000Y-36245000D02*
X65475000Y-36245000D01*
X65475000Y-36245000D02*
X65672000Y-36442000D01*
X65642000Y-41120000D02*
X65650790Y-39749346D01*
X65672000Y-36442000D02*
X65672000Y-36340000D01*
X44086000Y-34270000D02*
X44110000Y-34270000D01*
X45390000Y-34135000D02*
X44005000Y-34135000D01*
X50422000Y-41304000D02*
X44106000Y-37438000D01*
X65688000Y-41134000D02*
X50422000Y-41304000D01*
X65642000Y-41120000D02*
X65688000Y-41134000D01*
X44086000Y-34270000D02*
X44106000Y-37438000D01*
X44110000Y-34270000D02*
X44005000Y-34135000D01*
X49750000Y-33950000D02*
X49970000Y-33950000D01*
X49980000Y-33960000D02*
X49750000Y-33950000D01*
X49970000Y-33950000D02*
X49980000Y-33960000D01*
X49750000Y-33950000D02*
X49750000Y-33960000D01*
X49750000Y-33960000D02*
X49750000Y-33950000D01*
X49750000Y-33950000D02*
X49750000Y-33960000D01*
X55510000Y-34980000D02*
X57520000Y-34980000D01*
X57520000Y-34980000D02*
X57560000Y-34940000D01*
X54990000Y-37510000D02*
X55000000Y-37520000D01*
X49750000Y-33960000D02*
X53010000Y-33980000D01*
X56050000Y-37430000D02*
X55000000Y-37520000D01*
X56080000Y-37460000D02*
X56050000Y-37430000D01*
X56140000Y-40140000D02*
X56080000Y-37460000D01*
X56040000Y-40250000D02*
X56140000Y-40140000D01*
X52200000Y-40250000D02*
X56040000Y-40250000D01*
X52200000Y-38710000D02*
X52200000Y-40250000D01*
X52185000Y-38695000D02*
X52200000Y-38710000D01*
X54800000Y-39230000D02*
X54800000Y-37720000D01*
X54800000Y-37720000D02*
X55000000Y-37520000D01*
X45590000Y-34335000D02*
X45390000Y-34135000D01*
X45390000Y-35635000D02*
X47165000Y-35635000D01*
X47165000Y-35635000D02*
X47400000Y-35400000D01*
X45390000Y-35635000D02*
X45390000Y-36530000D01*
X57290000Y-40770000D02*
X58005000Y-40055000D01*
X51650000Y-40770000D02*
X57290000Y-40770000D01*
X50250000Y-39370000D02*
X51650000Y-40770000D01*
X48230000Y-39370000D02*
X50250000Y-39370000D01*
X45390000Y-36530000D02*
X48230000Y-39370000D01*
X47200000Y-35600000D02*
X47400000Y-35400000D01*
X52780000Y-35480000D02*
X53010000Y-35480000D01*
X51350000Y-36910000D02*
X52780000Y-35480000D01*
X51450000Y-35250000D02*
X51450000Y-35109331D01*
X51450000Y-35109331D02*
X51680000Y-34980000D01*
X49058960Y-37529620D02*
X48385380Y-37424620D01*
X51680000Y-34980000D02*
X53010000Y-34980000D01*
X48390000Y-36830000D02*
X51450000Y-35109331D01*
X48390000Y-37420000D02*
X48390000Y-36830000D01*
X48385380Y-37424620D02*
X48390000Y-37420000D01*
X50800000Y-34550000D02*
X50800000Y-34480000D01*
X50800000Y-34550000D02*
X50900000Y-34650000D01*
X53010000Y-34480000D02*
X50800000Y-34480000D01*
X50800000Y-34480000D02*
X50570000Y-34480000D01*
X48330380Y-38530380D02*
X49058960Y-38530380D01*
X47800000Y-38000000D02*
X48330380Y-38530380D01*
X47800000Y-36550000D02*
X47800000Y-38000000D01*
X49250000Y-35100000D02*
X47800000Y-36550000D01*
X49950000Y-35100000D02*
X49250000Y-35100000D01*
X50570000Y-34480000D02*
X49950000Y-35100000D01*
X41710000Y-35140000D02*
X41760000Y-31040000D01*
X41760000Y-31040000D02*
X41890000Y-30910000D01*
X55510000Y-30880000D02*
X55510000Y-32980000D01*
X55450000Y-30820000D02*
X55510000Y-30880000D01*
X41830000Y-30910000D02*
X41890000Y-30910000D01*
X41890000Y-30910000D02*
X55450000Y-30820000D01*
X42560000Y-35140000D02*
X42630000Y-31650000D01*
X42630000Y-31650000D02*
X42880000Y-31400000D01*
X55010000Y-31330000D02*
X55010000Y-32980000D01*
X42880000Y-31400000D02*
X55010000Y-31330000D01*
X42870000Y-31410000D02*
X42880000Y-31400000D01*
X42560000Y-36590000D02*
X43570000Y-36590000D01*
X43570000Y-36590000D02*
X43600000Y-36620000D01*
X54530000Y-31820002D02*
X54510000Y-32980000D01*
X54550000Y-31800002D02*
X54530000Y-31820002D01*
X43689998Y-32200002D02*
X54550000Y-31800002D01*
X43510000Y-34540000D02*
X43689998Y-32200002D01*
X43510000Y-34540000D02*
X43600000Y-36620000D01*
X43590000Y-36630000D02*
X43600000Y-36620000D01*
X40000000Y-31500000D02*
X35500000Y-31500000D01*
X51280000Y-32430000D02*
X50970000Y-32740000D01*
X50970000Y-32740000D02*
X50890000Y-32740000D01*
X53510000Y-32640000D02*
X53300000Y-32430000D01*
X53300000Y-32430000D02*
X51280000Y-32430000D01*
X53510000Y-32980000D02*
X53510000Y-32640000D01*
X54010000Y-32980000D02*
X53510000Y-32980000D01*
X44720000Y-40220000D02*
X43510000Y-40220000D01*
X41710000Y-38420000D02*
X41710000Y-36590000D01*
X43510000Y-40220000D02*
X41710000Y-38420000D01*
X41750000Y-36630000D02*
X41710000Y-36590000D01*
D26*
G36*
X75373000Y-33623000D02*
X67427000Y-33623000D01*
X67427000Y-31877000D01*
X75373000Y-31877000D01*
X75373000Y-33623000D01*
X75373000Y-33623000D01*
G37*
X75373000Y-33623000D02*
X67427000Y-33623000D01*
X67427000Y-31877000D01*
X75373000Y-31877000D01*
X75373000Y-33623000D01*
G36*
X74873000Y-35973000D02*
X67427000Y-35973000D01*
X67427000Y-34227000D01*
X74873000Y-34227000D01*
X74873000Y-35973000D01*
X74873000Y-35973000D01*
G37*
X74873000Y-35973000D02*
X67427000Y-35973000D01*
X67427000Y-34227000D01*
X74873000Y-34227000D01*
X74873000Y-35973000D01*
G36*
X74873000Y-38273000D02*
X67427000Y-38273000D01*
X67427000Y-36527000D01*
X74873000Y-36527000D01*
X74873000Y-38273000D01*
X74873000Y-38273000D01*
G37*
X74873000Y-38273000D02*
X67427000Y-38273000D01*
X67427000Y-36527000D01*
X74873000Y-36527000D01*
X74873000Y-38273000D01*
G36*
X75373000Y-40623000D02*
X67427000Y-40623000D01*
X67427000Y-38877000D01*
X75373000Y-38877000D01*
X75373000Y-40623000D01*
X75373000Y-40623000D01*
G37*
X75373000Y-40623000D02*
X67427000Y-40623000D01*
X67427000Y-38877000D01*
X75373000Y-38877000D01*
X75373000Y-40623000D01*
M02*
