G04 #@! TF.FileFunction,Soldermask,Top*
%FSLAX46Y46*%
G04 Gerber Fmt 4.6, Leading zero omitted, Abs format (unit mm)*
G04 Created by KiCad (PCBNEW 4.0.1-3.201512221402+6198~38~ubuntu15.04.1-stable) date Sat 02 Jan 2016 05:41:53 PM EST*
%MOMM*%
G01*
G04 APERTURE LIST*
%ADD10C,0.100000*%
%ADD11C,1.824000*%
%ADD12R,1.443000X0.808000*%
%ADD13R,0.800000X0.900000*%
%ADD14R,1.050000X1.100000*%
%ADD15R,0.900000X0.800000*%
%ADD16R,1.100000X1.050000*%
%ADD17R,0.600000X0.600000*%
%ADD18R,1.200000X0.600000*%
%ADD19R,0.600000X1.200000*%
%ADD20R,2.100000X2.100000*%
%ADD21R,0.800000X1.200000*%
%ADD22R,0.749580X0.599720*%
%ADD23R,0.950000X1.150000*%
%ADD24C,0.254000*%
G04 APERTURE END LIST*
D10*
D11*
X40000000Y-38000000D03*
X35500000Y-38000000D03*
X40000000Y-31500000D03*
X35500000Y-31500000D03*
D12*
X57455000Y-40675000D03*
X57455000Y-39405000D03*
X57455000Y-38135000D03*
X57455000Y-36865000D03*
X63805000Y-36865000D03*
X63805000Y-38135000D03*
X63805000Y-39405000D03*
X63805000Y-40675000D03*
D13*
X48000000Y-34800000D03*
X48000000Y-33700000D03*
D14*
X46250000Y-35000000D03*
X46250000Y-33500000D03*
D15*
X53700000Y-39230000D03*
X54800000Y-39230000D03*
D16*
X55000000Y-37520000D03*
X53500000Y-37520000D03*
D17*
X53010000Y-35480000D03*
X53010000Y-32980000D03*
D18*
X52710000Y-33480000D03*
X52710000Y-33980000D03*
X52710000Y-34480000D03*
X52710000Y-34980000D03*
D19*
X53510000Y-35780000D03*
X54010000Y-35780000D03*
X54510000Y-35780000D03*
X55010000Y-35780000D03*
D17*
X55510000Y-35480000D03*
D18*
X55810000Y-34980000D03*
X55810000Y-34480000D03*
X55810000Y-33980000D03*
X55810000Y-33480000D03*
D17*
X55510000Y-32980000D03*
D19*
X55010000Y-32680000D03*
X54510000Y-32680000D03*
X54010000Y-32680000D03*
X53510000Y-32680000D03*
D20*
X54260000Y-34230000D03*
D21*
X46220000Y-40220000D03*
X44720000Y-40220000D03*
D22*
X50461040Y-38530380D03*
X50461040Y-37529620D03*
X49058960Y-38530380D03*
X50461040Y-38030000D03*
X49058960Y-37529620D03*
D23*
X43000000Y-35500000D03*
X43850000Y-35500000D03*
X43850000Y-36950000D03*
X43000000Y-36950000D03*
D24*
G36*
X74623000Y-33623000D02*
X66677000Y-33623000D01*
X66677000Y-31877000D01*
X74623000Y-31877000D01*
X74623000Y-33623000D01*
X74623000Y-33623000D01*
G37*
X74623000Y-33623000D02*
X66677000Y-33623000D01*
X66677000Y-31877000D01*
X74623000Y-31877000D01*
X74623000Y-33623000D01*
G36*
X74123000Y-35973000D02*
X66677000Y-35973000D01*
X66677000Y-34227000D01*
X74123000Y-34227000D01*
X74123000Y-35973000D01*
X74123000Y-35973000D01*
G37*
X74123000Y-35973000D02*
X66677000Y-35973000D01*
X66677000Y-34227000D01*
X74123000Y-34227000D01*
X74123000Y-35973000D01*
G36*
X74123000Y-38273000D02*
X66677000Y-38273000D01*
X66677000Y-36527000D01*
X74123000Y-36527000D01*
X74123000Y-38273000D01*
X74123000Y-38273000D01*
G37*
X74123000Y-38273000D02*
X66677000Y-38273000D01*
X66677000Y-36527000D01*
X74123000Y-36527000D01*
X74123000Y-38273000D01*
G36*
X74623000Y-40623000D02*
X66677000Y-40623000D01*
X66677000Y-38877000D01*
X74623000Y-38877000D01*
X74623000Y-40623000D01*
X74623000Y-40623000D01*
G37*
X74623000Y-40623000D02*
X66677000Y-40623000D01*
X66677000Y-38877000D01*
X74623000Y-38877000D01*
X74623000Y-40623000D01*
M02*
